<svg width="40" height="40" viewBox="0 0 40 40" fill="none" xmlns="http://www.w3.org/2000/svg">
<path d="M25.2187 8.96149L7.93196 19.9189L6.44531 17.5736V15.5526C6.44531 14.8168 6.81783 14.131 7.43508 13.7305L17.4839 7.21002C19.0148 6.21659 20.9869 6.21644 22.518 7.20964L25.2187 8.96149Z" fill="url(#paint0_linear_249_31274)"/>
<path d="M22.3631 7.11328C22.4151 7.14419 22.4666 7.1762 22.5177 7.20932L30.3601 12.2965L10.915 24.622L7.93115 19.9146L22.2019 10.8513C23.5537 9.99287 23.6129 8.06166 22.3631 7.11328Z" fill="url(#paint1_linear_249_31274)"/>
<path d="M22.3631 7.11328C22.4151 7.14419 22.4666 7.1762 22.5177 7.20932L30.3601 12.2965L10.915 24.622L7.93115 19.9146L22.2019 10.8513C23.5537 9.99287 23.6129 8.06166 22.3631 7.11328Z" fill="url(#paint2_linear_249_31274)" fill-opacity="0.2"/>
<path d="M18.6736 26.9759L10.9155 24.6225L27.4101 14.1668C28.7992 13.2863 28.7956 11.2582 27.4033 10.3826L27.3291 10.3359L27.5429 10.469L32.563 13.7254C33.1805 14.1259 33.5531 14.8118 33.5531 15.5477V17.5037L18.6736 26.9759Z" fill="url(#paint3_linear_249_31274)"/>
<path d="M18.6736 26.9759L10.9155 24.6225L27.4101 14.1668C28.7992 13.2863 28.7956 11.2582 27.4033 10.3826L27.3291 10.3359L27.5429 10.469L32.563 13.7254C33.1805 14.1259 33.5531 14.8118 33.5531 15.5477V17.5037L18.6736 26.9759Z" fill="url(#paint4_linear_249_31274)" fill-opacity="0.2"/>
<path d="M22.518 7.20964C20.9869 6.21644 19.0148 6.21659 17.4839 7.21002L7.43508 13.7305C6.81783 14.131 6.44531 14.8168 6.44531 15.5526V15.6515C6.46954 16.3901 6.85825 17.0709 7.48606 17.4667L19.9808 25.3439L32.5069 17.4787C33.1574 17.0702 33.5523 16.356 33.5523 15.5879V17.504L33.5525 15.5478C33.5525 14.8119 33.1799 14.126 32.5625 13.7256L22.518 7.20964Z" fill="url(#paint5_radial_249_31274)"/>
<path d="M17.7789 33.5562H29.0074C31.5175 33.5562 33.5524 31.5213 33.5524 29.0112L33.5524 15.5912C33.5514 16.3582 33.1567 17.0712 32.507 17.4791L16.0456 27.8153C15.1577 28.3729 14.6187 29.3478 14.6188 30.3963C14.6189 32.1415 16.0337 33.5562 17.7789 33.5562Z" fill="url(#paint6_linear_249_31274)"/>
<path d="M17.7789 33.5562H29.0074C31.5175 33.5562 33.5524 31.5213 33.5524 29.0112L33.5524 15.5912C33.5514 16.3582 33.1567 17.0712 32.507 17.4791L16.0456 27.8153C15.1577 28.3729 14.6187 29.3478 14.6188 30.3963C14.6189 32.1415 16.0337 33.5562 17.7789 33.5562Z" fill="url(#paint7_radial_249_31274)" fill-opacity="0.4"/>
<path d="M17.7789 33.5562H29.0074C31.5175 33.5562 33.5524 31.5213 33.5524 29.0112L33.5524 15.5912C33.5514 16.3582 33.1567 17.0712 32.507 17.4791L16.0456 27.8153C15.1577 28.3729 14.6187 29.3478 14.6188 30.3963C14.6189 32.1415 16.0337 33.5562 17.7789 33.5562Z" fill="url(#paint8_radial_249_31274)" fill-opacity="0.5"/>
<path d="M22.2779 33.555H10.9885C8.47839 33.555 6.44353 31.5202 6.44353 29.0101V15.5783C6.44353 16.345 6.83693 17.0581 7.48548 17.467L23.9305 27.8347C24.8308 28.4022 25.3769 29.3921 25.3768 30.4564C25.3766 32.1678 23.9892 33.555 22.2779 33.555Z" fill="url(#paint9_radial_249_31274)"/>
<path d="M22.2779 33.555H10.9885C8.47839 33.555 6.44353 31.5202 6.44353 29.0101V15.5783C6.44353 16.345 6.83693 17.0581 7.48548 17.467L23.9305 27.8347C24.8308 28.4022 25.3769 29.3921 25.3768 30.4564C25.3766 32.1678 23.9892 33.555 22.2779 33.555Z" fill="url(#paint10_linear_249_31274)"/>
<rect x="5.21191" y="18.7676" width="12.3235" height="12.3235" rx="2.77278" fill="url(#paint11_radial_249_31274)"/>
<rect x="5.21191" y="18.7676" width="12.3235" height="12.3235" rx="2.77278" fill="url(#paint12_radial_249_31274)" fill-opacity="0.5"/>
<path d="M11.3376 28.7499C10.2718 28.7499 9.39688 28.4061 8.71273 27.7185C8.02859 27.0309 7.68652 26.1336 7.68652 25.0266C7.68652 23.8577 8.03375 22.9123 8.7282 22.1904C9.42266 21.4684 10.332 21.1074 11.4562 21.1074C12.5185 21.1074 13.3831 21.4529 14.0501 22.1439C14.7205 22.835 15.0556 23.746 15.0556 24.8771C15.0556 26.0391 14.7084 26.9759 14.014 27.6875C13.3229 28.3958 12.4308 28.7499 11.3376 28.7499ZM11.3685 27.2905C11.9495 27.2905 12.4171 27.0859 12.7712 26.6768C13.1253 26.2677 13.3023 25.6987 13.3023 24.9699C13.3023 24.2101 13.1304 23.6188 12.7866 23.1959C12.4428 22.7731 11.9839 22.5617 11.4098 22.5617C10.8184 22.5617 10.3423 22.78 9.98132 23.2166C9.62034 23.6497 9.43985 24.2239 9.43985 24.939C9.43985 25.6643 9.62034 26.2385 9.98132 26.6613C10.3423 27.0808 10.8047 27.2905 11.3685 27.2905Z" fill="white"/>
<defs>
<linearGradient id="paint0_linear_249_31274" x1="9.44795" y1="18.7672" x2="25.2187" y2="8.9855" gradientUnits="userSpaceOnUse">
<stop stop-color="#20A7FA"/>
<stop offset="0.4" stop-color="#3BD5FF"/>
<stop offset="1" stop-color="#C4B0FF"/>
</linearGradient>
<linearGradient id="paint1_linear_249_31274" x1="14.8757" y1="22.1024" x2="23.6552" y2="8.04438" gradientUnits="userSpaceOnUse">
<stop stop-color="#165AD9"/>
<stop offset="0.5008" stop-color="#1880E5"/>
<stop offset="1" stop-color="#8587FF"/>
</linearGradient>
<linearGradient id="paint2_linear_249_31274" x1="21.279" y1="22.2936" x2="11.5316" y2="14.3514" gradientUnits="userSpaceOnUse">
<stop offset="0.236946" stop-color="#448AFF" stop-opacity="0"/>
<stop offset="0.792113" stop-color="#0032B1"/>
</linearGradient>
<linearGradient id="paint3_linear_249_31274" x1="20.039" y1="25.3525" x2="35.4433" y2="15.4937" gradientUnits="userSpaceOnUse">
<stop stop-color="#1A43A6"/>
<stop offset="0.492267" stop-color="#2052CB"/>
<stop offset="1" stop-color="#5F20CB"/>
</linearGradient>
<linearGradient id="paint4_linear_249_31274" x1="24.3875" y1="24.7631" x2="15.0269" y2="16.6632" gradientUnits="userSpaceOnUse">
<stop stop-color="#0045B9" stop-opacity="0"/>
<stop offset="0.669859" stop-color="#0D1F69"/>
</linearGradient>
<radialGradient id="paint5_radial_249_31274" cx="0" cy="0" r="1" gradientUnits="userSpaceOnUse" gradientTransform="translate(19.9999 7.05996) rotate(-90) scale(20.3337 22.0081)">
<stop offset="0.568182" stop-color="#275FF0" stop-opacity="0"/>
<stop offset="0.992424" stop-color="#002177"/>
</radialGradient>
<linearGradient id="paint6_linear_249_31274" x1="33.5524" y1="24.4744" x2="19.8877" y2="24.4744" gradientUnits="userSpaceOnUse">
<stop stop-color="#4DC4FF"/>
<stop offset="0.196145" stop-color="#0FAFFF"/>
</linearGradient>
<radialGradient id="paint7_radial_249_31274" cx="0" cy="0" r="1" gradientUnits="userSpaceOnUse" gradientTransform="translate(23.0814 30.475) rotate(-45) scale(8.714)">
<stop offset="0.259477" stop-color="#0060D1"/>
<stop offset="0.908166" stop-color="#0383F1" stop-opacity="0"/>
</radialGradient>
<radialGradient id="paint8_radial_249_31274" cx="0" cy="0" r="1" gradientTransform="matrix(17.9425 -23.5168 16.535 22.4244 9.93247 36.9211)" gradientUnits="userSpaceOnUse">
<stop offset="0.732317" stop-color="#F4A7F7" stop-opacity="0"/>
<stop offset="1" stop-color="#F4A7F7"/>
</radialGradient>
<radialGradient id="paint9_radial_249_31274" cx="0" cy="0" r="1" gradientUnits="userSpaceOnUse" gradientTransform="translate(15.9102 22.6585) rotate(123.339) scale(15.607 40.5022)">
<stop stop-color="#49DEFF"/>
<stop offset="0.724349" stop-color="#29C3FF"/>
</radialGradient>
<linearGradient id="paint10_linear_249_31274" x1="4.52958" y1="30.445" x2="17.6861" y2="30.4355" gradientUnits="userSpaceOnUse">
<stop offset="0.205882" stop-color="#6CE0FF"/>
<stop offset="0.535" stop-color="#50D5FF" stop-opacity="0"/>
</linearGradient>
<radialGradient id="paint11_radial_249_31274" cx="0" cy="0" r="1" gradientUnits="userSpaceOnUse" gradientTransform="translate(5.16794 19.2416) rotate(46.9242) scale(16.2222)">
<stop offset="0.038877" stop-color="#0091FF"/>
<stop offset="0.919119" stop-color="#183DAD"/>
</radialGradient>
<radialGradient id="paint12_radial_249_31274" cx="0" cy="0" r="1" gradientUnits="userSpaceOnUse" gradientTransform="translate(11.3736 26.2725) rotate(90) scale(8.62642 9.95031)">
<stop offset="0.557796" stop-color="#0FA5F7" stop-opacity="0"/>
<stop offset="1" stop-color="#74C6FF"/>
</radialGradient>
</defs>
</svg>
