<svg width="40" height="40" viewBox="0 0 40 40" fill="none" xmlns="http://www.w3.org/2000/svg">
<path d="M18.7676 17.5352H28.0101C30.3922 17.5352 32.3233 19.4662 32.3233 21.8484V28.6265C32.3233 31.3489 30.1164 33.5559 27.394 33.5559C24.6715 33.5559 22.4646 31.3489 22.4646 28.6265V21.2322C22.4646 19.1904 20.8094 17.5352 18.7676 17.5352Z" fill="url(#paint0_radial_249_31306)"/>
<path d="M7.67676 19.3835C7.67676 17.0014 9.60785 15.0703 11.99 15.0703H18.1516C20.5338 15.0703 22.4648 17.0014 22.4648 19.3835V28.6264C22.4648 31.3488 24.6718 33.5558 27.3942 33.5558H15.0708C10.9872 33.5558 7.67676 30.2453 7.67676 26.1617V19.3835Z" fill="url(#paint1_radial_249_31306)"/>
<path d="M7.67676 19.3835C7.67676 17.0014 9.60785 15.0703 11.99 15.0703H18.1516C20.5338 15.0703 22.4648 17.0014 22.4648 19.3835V28.6264C22.4648 31.3488 24.6718 33.5558 27.3942 33.5558H15.0708C10.9872 33.5558 7.67676 30.2453 7.67676 26.1617V19.3835Z" fill="url(#paint2_linear_249_31306)" fill-opacity="0.7"/>
<path d="M7.67676 19.3835C7.67676 17.0014 9.60785 15.0703 11.99 15.0703H18.1516C20.5338 15.0703 22.4648 17.0014 22.4648 19.3835V28.6264C22.4648 31.3488 24.6718 33.5558 27.3942 33.5558H15.0708C10.9872 33.5558 7.67676 30.2453 7.67676 26.1617V19.3835Z" fill="url(#paint3_radial_249_31306)" fill-opacity="0.7"/>
<path d="M26.1619 16.3024C28.2037 16.3024 29.8589 14.6471 29.8589 12.6053C29.8589 10.5634 28.2037 8.9082 26.1619 8.9082C24.1201 8.9082 22.4648 10.5634 22.4648 12.6053C22.4648 14.6471 24.1201 16.3024 26.1619 16.3024Z" fill="url(#paint4_radial_249_31306)"/>
<path d="M26.1619 16.3024C28.2037 16.3024 29.8589 14.6471 29.8589 12.6053C29.8589 10.5634 28.2037 8.9082 26.1619 8.9082C24.1201 8.9082 22.4648 10.5634 22.4648 12.6053C22.4648 14.6471 24.1201 16.3024 26.1619 16.3024Z" fill="url(#paint5_radial_249_31306)" fill-opacity="0.46"/>
<path d="M26.1619 16.3024C28.2037 16.3024 29.8589 14.6471 29.8589 12.6053C29.8589 10.5634 28.2037 8.9082 26.1619 8.9082C24.1201 8.9082 22.4648 10.5634 22.4648 12.6053C22.4648 14.6471 24.1201 16.3024 26.1619 16.3024Z" fill="url(#paint6_radial_249_31306)" fill-opacity="0.4"/>
<path d="M15.6867 13.8375C18.0688 13.8375 19.9999 11.9064 19.9999 9.52421C19.9999 7.14205 18.0688 5.21094 15.6867 5.21094C13.3046 5.21094 11.3735 7.14205 11.3735 9.52421C11.3735 11.9064 13.3046 13.8375 15.6867 13.8375Z" fill="url(#paint7_radial_249_31306)"/>
<path d="M15.6867 13.8375C18.0688 13.8375 19.9999 11.9064 19.9999 9.52421C19.9999 7.14205 18.0688 5.21094 15.6867 5.21094C13.3046 5.21094 11.3735 7.14205 11.3735 9.52421C11.3735 11.9064 13.3046 13.8375 15.6867 13.8375Z" fill="url(#paint8_radial_249_31306)" fill-opacity="0.6"/>
<path d="M15.6867 13.8375C18.0688 13.8375 19.9999 11.9064 19.9999 9.52421C19.9999 7.14205 18.0688 5.21094 15.6867 5.21094C13.3046 5.21094 11.3735 7.14205 11.3735 9.52421C11.3735 11.9064 13.3046 13.8375 15.6867 13.8375Z" fill="url(#paint9_radial_249_31306)" fill-opacity="0.5"/>
<rect x="5.21191" y="18.7676" width="12.3235" height="12.3235" rx="2.77278" fill="url(#paint10_radial_249_31306)"/>
<rect x="5.21191" y="18.7676" width="12.3235" height="12.3235" rx="2.77278" fill="url(#paint11_radial_249_31306)" fill-opacity="0.7"/>
<path d="M14.1826 22.5885H12.207V28.6265H10.5401V22.5885H8.56445V21.2324H14.1826V22.5885Z" fill="white"/>
<defs>
<radialGradient id="paint0_radial_249_31306" cx="0" cy="0" r="1" gradientUnits="userSpaceOnUse" gradientTransform="translate(31.3937 18.7675) scale(10.0534 24.8158)">
<stop stop-color="#A98AFF"/>
<stop offset="0.14" stop-color="#8C75FF"/>
<stop offset="0.565" stop-color="#5F50E2"/>
<stop offset="0.9" stop-color="#3C2CB8"/>
</radialGradient>
<radialGradient id="paint1_radial_249_31306" cx="0" cy="0" r="1" gradientTransform="matrix(9.24255 23.4149 -23.4145 9.24272 8.29293 13.8379)" gradientUnits="userSpaceOnUse">
<stop stop-color="#85C2FF"/>
<stop offset="0.69" stop-color="#7588FF"/>
<stop offset="1" stop-color="#6459FE"/>
</radialGradient>
<linearGradient id="paint2_linear_249_31306" x1="17.2274" y1="15.0703" x2="17.2274" y2="33.5558" gradientUnits="userSpaceOnUse">
<stop offset="0.801159" stop-color="#6864F6" stop-opacity="0"/>
<stop offset="1" stop-color="#5149DE"/>
</linearGradient>
<radialGradient id="paint3_radial_249_31306" cx="0" cy="0" r="1" gradientTransform="matrix(-5.77096 13.5928 -11.326 -3.33243 22.4648 14.4541)" gradientUnits="userSpaceOnUse">
<stop stop-color="#BD96FF"/>
<stop offset="0.686685" stop-color="#BD96FF" stop-opacity="0"/>
</radialGradient>
<radialGradient id="paint4_radial_249_31306" cx="0" cy="0" r="1" gradientUnits="userSpaceOnUse" gradientTransform="translate(26.1619 11.549) rotate(-90) scale(7.39418 9.33249)">
<stop offset="0.268201" stop-color="#6868F7"/>
<stop offset="1" stop-color="#3923B1"/>
</radialGradient>
<radialGradient id="paint5_radial_249_31306" cx="0" cy="0" r="1" gradientTransform="matrix(4.04471 3.40019 4.91789 -5.8503 23.1064 10.7893)" gradientUnits="userSpaceOnUse">
<stop offset="0.270711" stop-color="#A1D3FF"/>
<stop offset="0.813393" stop-color="#A1D3FF" stop-opacity="0"/>
</radialGradient>
<radialGradient id="paint6_radial_249_31306" cx="0" cy="0" r="1" gradientTransform="matrix(4.70267 -4.18383 10.2631 11.5362 29.1064 10.6596)" gradientUnits="userSpaceOnUse">
<stop stop-color="#E3ACFD"/>
<stop offset="0.816041" stop-color="#9FA2FF" stop-opacity="0"/>
</radialGradient>
<radialGradient id="paint7_radial_249_31306" cx="0" cy="0" r="1" gradientUnits="userSpaceOnUse" gradientTransform="translate(15.6867 8.29185) rotate(-90) scale(8.62654 10.8879)">
<stop offset="0.268201" stop-color="#8282FF"/>
<stop offset="1" stop-color="#3923B1"/>
</radialGradient>
<radialGradient id="paint8_radial_249_31306" cx="0" cy="0" r="1" gradientTransform="matrix(4.71883 3.96689 5.73753 -6.82536 12.122 7.40556)" gradientUnits="userSpaceOnUse">
<stop offset="0.270711" stop-color="#A1D3FF"/>
<stop offset="0.813393" stop-color="#A1D3FF" stop-opacity="0"/>
</radialGradient>
<radialGradient id="paint9_radial_249_31306" cx="0" cy="0" r="1" gradientTransform="matrix(5.48645 -4.88114 11.9736 13.4589 19.122 7.2542)" gradientUnits="userSpaceOnUse">
<stop stop-color="#E3ACFD"/>
<stop offset="0.816041" stop-color="#9FA2FF" stop-opacity="0"/>
</radialGradient>
<radialGradient id="paint10_radial_249_31306" cx="0" cy="0" r="1" gradientUnits="userSpaceOnUse" gradientTransform="translate(5.21191 18.7676) rotate(45) scale(17.428)">
<stop offset="0.046875" stop-color="#688EFF"/>
<stop offset="0.946875" stop-color="#230F94"/>
</radialGradient>
<radialGradient id="paint11_radial_249_31306" cx="0" cy="0" r="1" gradientUnits="userSpaceOnUse" gradientTransform="translate(11.3736 26.1617) rotate(90) scale(8.62642 10.0669)">
<stop offset="0.570647" stop-color="#6965F6" stop-opacity="0"/>
<stop offset="1" stop-color="#8F8FFF"/>
</radialGradient>
</defs>
</svg>
