<svg width="40" height="40" viewBox="0 0 40 40" fill="none" xmlns="http://www.w3.org/2000/svg">
<g clip-path="url(#clip0_249_31336)">
<rect x="14.7925" y="27.1113" width="3.69704" height="9.85877" rx="1.84852" transform="rotate(20 14.7925 27.1113)" fill="url(#paint0_linear_249_31336)"/>
<rect x="9.24658" y="22.1816" width="3.69704" height="9.85877" rx="1.84852" transform="rotate(20 9.24658 22.1816)" fill="url(#paint1_linear_249_31336)"/>
<g filter="url(#filter0_d_249_31336)">
<path d="M9.01759 13.2259C9.76382 7.99893 14.2585 3.98047 19.6918 3.98047C24.2324 3.98047 28.1175 6.78695 29.7072 10.7599C29.7575 10.7589 29.8081 10.7584 29.8587 10.7584C33.9423 10.7584 37.2528 14.0688 37.2528 18.1525C37.2528 22.2361 33.9423 25.5465 29.8587 25.5465C29.8326 25.5465 29.8065 25.5464 29.7804 25.5461C29.7723 25.5464 29.7642 25.5465 29.756 25.5465H9.2169C5.64371 25.5465 2.74707 22.7878 2.74707 19.3848C2.74707 16.0453 5.53662 13.3262 9.01759 13.2259Z" fill="white"/>
</g>
<g opacity="0.8">
<mask id="mask0_249_31336" style="mask-type:alpha" maskUnits="userSpaceOnUse" x="2" y="3" width="36" height="23">
<path d="M9.01759 13.2259C9.76382 7.99893 14.2585 3.98047 19.6918 3.98047C24.2324 3.98047 28.1175 6.78695 29.7072 10.7599C29.7575 10.7589 29.8081 10.7584 29.8587 10.7584C33.9423 10.7584 37.2528 14.0688 37.2528 18.1525C37.2528 22.2361 33.9423 25.5465 29.8587 25.5465C29.8326 25.5465 29.8065 25.5464 29.7804 25.5461C29.7723 25.5464 29.7642 25.5465 29.756 25.5465H9.2169C5.64371 25.5465 2.74707 22.7878 2.74707 19.3848C2.74707 16.0453 5.53662 13.3262 9.01759 13.2259Z" fill="white"/>
</mask>
<g mask="url(#mask0_249_31336)">
<g filter="url(#filter1_f_249_31336)">
<rect x="9.24707" y="22.1816" width="3.69704" height="9.85877" rx="1.84852" transform="rotate(20 9.24707 22.1816)" fill="url(#paint2_linear_249_31336)"/>
</g>
</g>
</g>
<path d="M18.617 19.9528L30.531 5.9021C30.9536 5.40376 31.7592 5.8193 31.5981 6.4525L29.2306 15.7596C29.1242 16.1778 29.4697 16.5731 29.8984 16.5236L33.3921 16.1203C33.9452 16.0565 34.2926 16.7007 33.9354 17.1278L20.3444 33.3757C19.9032 33.9032 19.0605 33.4212 19.2913 32.7735L23.2059 21.7914C23.3489 21.3903 23.0515 20.9685 22.6256 20.9684L19.0868 20.9675C18.562 20.9673 18.2776 20.3531 18.617 19.9528Z" fill="url(#paint3_linear_249_31336)"/>
<path d="M18.617 19.9528L30.531 5.9021C30.9536 5.40376 31.7592 5.8193 31.5981 6.4525L29.2306 15.7596C29.1242 16.1778 29.4697 16.5731 29.8984 16.5236L33.3921 16.1203C33.9452 16.0565 34.2926 16.7007 33.9354 17.1278L20.3444 33.3757C19.9032 33.9032 19.0605 33.4212 19.2913 32.7735L23.2059 21.7914C23.3489 21.3903 23.0515 20.9685 22.6256 20.9684L19.0868 20.9675C18.562 20.9673 18.2776 20.3531 18.617 19.9528Z" fill="url(#paint4_linear_249_31336)"/>
<path d="M18.617 19.9528L30.531 5.9021C30.9536 5.40376 31.7592 5.8193 31.5981 6.4525L29.2306 15.7596C29.1242 16.1778 29.4697 16.5731 29.8984 16.5236L33.3921 16.1203C33.9452 16.0565 34.2926 16.7007 33.9354 17.1278L20.3444 33.3757C19.9032 33.9032 19.0605 33.4212 19.2913 32.7735L23.2059 21.7914C23.3489 21.3903 23.0515 20.9685 22.6256 20.9684L19.0868 20.9675C18.562 20.9673 18.2776 20.3531 18.617 19.9528Z" fill="url(#paint5_linear_249_31336)" fill-opacity="0.7"/>
</g>
<defs>
<filter id="filter0_d_249_31336" x="-2.18231" y="1.51578" width="44.3646" height="31.4252" filterUnits="userSpaceOnUse" color-interpolation-filters="sRGB">
<feFlood flood-opacity="0" result="BackgroundImageFix"/>
<feColorMatrix in="SourceAlpha" type="matrix" values="0 0 0 0 0 0 0 0 0 0 0 0 0 0 0 0 0 0 127 0" result="hardAlpha"/>
<feOffset dy="2.46469"/>
<feGaussianBlur stdDeviation="2.46469"/>
<feComposite in2="hardAlpha" operator="out"/>
<feColorMatrix type="matrix" values="0 0 0 0 0 0 0 0 0 0 0 0 0 0 0 0 0 0 0.11 0"/>
<feBlend mode="normal" in2="BackgroundImageFix" result="effect1_dropShadow_249_31336"/>
<feBlend mode="normal" in="SourceGraphic" in2="effect1_dropShadow_249_31336" result="shape"/>
</filter>
<filter id="filter1_f_249_31336" x="0.000302315" y="17.2523" width="17.869" height="20.3334" filterUnits="userSpaceOnUse" color-interpolation-filters="sRGB">
<feFlood flood-opacity="0" result="BackgroundImageFix"/>
<feBlend mode="normal" in="SourceGraphic" in2="BackgroundImageFix" result="shape"/>
<feGaussianBlur stdDeviation="2.46469" result="effect1_foregroundBlur_249_31336"/>
</filter>
<linearGradient id="paint0_linear_249_31336" x1="14.5717" y1="29.2344" x2="18.6795" y2="29.67" gradientUnits="userSpaceOnUse">
<stop stop-color="#A0D2FE"/>
<stop offset="0.911458" stop-color="#2298FF"/>
</linearGradient>
<linearGradient id="paint1_linear_249_31336" x1="9.0258" y1="24.3047" x2="13.1336" y2="24.7404" gradientUnits="userSpaceOnUse">
<stop stop-color="#A0D2FE"/>
<stop offset="0.911458" stop-color="#2298FF"/>
</linearGradient>
<linearGradient id="paint2_linear_249_31336" x1="9.02629" y1="24.3047" x2="13.1341" y2="24.7404" gradientUnits="userSpaceOnUse">
<stop stop-color="#A0D2FE"/>
<stop offset="0.911458" stop-color="#2298FF"/>
</linearGradient>
<linearGradient id="paint3_linear_249_31336" x1="26.8221" y1="5.05769" x2="23.3437" y2="36.2085" gradientUnits="userSpaceOnUse">
<stop stop-color="#FFD793"/>
<stop offset="1" stop-color="#E9980C"/>
</linearGradient>
<linearGradient id="paint4_linear_249_31336" x1="23.6155" y1="6.6992" x2="41.6141" y2="19.8264" gradientUnits="userSpaceOnUse">
<stop stop-color="#FF9900"/>
<stop offset="0.53915" stop-color="#FFB729"/>
<stop offset="1" stop-color="#FFE975"/>
</linearGradient>
<linearGradient id="paint5_linear_249_31336" x1="25.9501" y1="35.6442" x2="10.8742" y2="16.4455" gradientUnits="userSpaceOnUse">
<stop stop-color="#E25A01"/>
<stop offset="1" stop-color="#FFD400"/>
</linearGradient>
<clipPath id="clip0_249_31336">
<rect width="39.4351" height="39.4351" fill="white"/>
</clipPath>
</defs>
</svg>
