<svg width="32" height="32" viewBox="0 0 32 32" fill="none" xmlns="http://www.w3.org/2000/svg">
<rect x="0.5" y="0.5" width="30.168" height="30.168" rx="15.084" stroke="#00BEE8"/>
<path d="M21.9728 15.3064C21.9907 15.4788 22 15.6602 22 15.8511C22 17.1482 21.548 18.0197 21.11 18.5656C20.8889 18.8413 20.6688 19.0368 20.507 19.1616C20.4263 19.2239 20.3607 19.2681 20.3176 19.2955C20.2961 19.3092 20.2802 19.3187 20.271 19.324L20.2621 19.3291C20.1007 19.4164 20 19.5852 20 19.7689V21.084C20 21.3601 19.7761 21.584 19.5 21.584H19C19 21.0317 18.5523 20.584 18 20.584H16C15.4477 20.584 15 21.0317 15 21.584H14.5C14.2239 21.584 14 21.3601 14 21.084V20.4812C14 20.2326 13.8173 20.0218 13.5713 19.9863C13.5678 19.9857 13.5609 19.9845 13.5508 19.9826C13.5305 19.9787 13.4976 19.9718 13.4542 19.9608C13.3673 19.9389 13.2393 19.9012 13.0869 19.8397C12.7811 19.7163 12.3855 19.5007 12.0226 19.1328C11.5795 18.6837 11.3087 18.0908 11.1638 17.6799C11.0197 17.2712 10.6916 16.9012 10.2232 16.7688C10.0912 16.7315 10 16.611 10 16.4738V15.6798C10 15.5503 10.0858 15.4365 10.2103 15.4009C10.6945 15.2625 11.0188 14.8695 11.1555 14.4561C11.2678 14.1166 11.4662 13.6795 11.7884 13.3529C12.1017 13.0353 12.4486 12.7928 12.721 12.6288C12.8562 12.5473 12.9706 12.4867 13.0496 12.4472C13.089 12.4274 13.1195 12.413 13.1391 12.404L13.1602 12.3944L13.1644 12.3925C13.3478 12.3136 13.4667 12.133 13.4667 11.9333V10.2593C13.6758 10.4363 13.9133 10.6203 14.1661 10.7858C14.4838 10.9937 14.8536 11.1911 15.2412 11.2954C15.3549 10.9682 15.5106 10.6562 15.7049 10.3679L15.6991 10.3674C15.4202 10.3391 15.0782 10.1876 14.7137 9.94908C14.3583 9.71647 14.026 9.43085 13.7733 9.19205C13.5256 8.95806 13.1945 8.9413 12.9475 9.04153C12.6984 9.14261 12.4667 9.39212 12.4667 9.74561V11.6232C12.3901 11.6642 12.3018 11.7139 12.2051 11.7721C11.8861 11.9642 11.4659 12.2559 11.0765 12.6507C10.6005 13.1332 10.3407 13.7349 10.2061 14.1421C10.1509 14.3089 10.0388 14.4099 9.93541 14.4395C9.38171 14.5978 9 15.1039 9 15.6798V16.4738C9 17.0585 9.38851 17.5721 9.95122 17.7311C10.0573 17.7611 10.1663 17.8582 10.2207 18.0125C10.3869 18.4838 10.7186 19.2349 11.3107 19.8351C11.7916 20.3226 12.3127 20.6056 12.7126 20.767C12.817 20.8091 12.9137 20.8432 13 20.8706V21.084C13 21.9124 13.6716 22.584 14.5 22.584H15C15.5523 22.584 16 22.1363 16 21.584H18C18 22.1363 18.4477 22.584 19 22.584H19.5C20.3284 22.584 21 21.9124 21 21.084V20.0409C21.0365 20.0149 21.076 19.9857 21.118 19.9533C21.3312 19.7887 21.6111 19.539 21.89 19.1914C22.452 18.4908 23 17.4034 23 15.8511C23 15.2011 22.9075 14.6189 22.7309 14.0995C22.5533 14.5409 22.2975 14.9508 21.9728 15.3064ZM21.7914 11.4588C22.317 12.7274 21.9077 14.1501 20.8808 14.9611C20.4645 15.2898 19.8928 15.2646 19.4027 15.0617L17.0137 14.0723C16.5236 13.8694 16.1014 13.483 16.0394 12.9562C15.8865 11.6566 16.6029 10.3612 17.8715 9.83555C19.4022 9.20137 21.1572 9.92813 21.7914 11.4588ZM20.261 14.1763C20.9461 13.6353 21.2174 12.686 20.8675 11.8416C20.4447 10.8211 19.2747 10.3366 18.2543 10.7594C17.4099 11.1093 16.9306 11.9724 17.0326 12.8394C17.0348 12.8582 17.0436 12.8959 17.0985 12.9549C17.1582 13.0192 17.2587 13.0915 17.3963 13.1484L19.7853 14.1378C19.9229 14.1947 20.045 14.2147 20.1327 14.2114C20.2133 14.2085 20.2461 14.1881 20.261 14.1763ZM13.75 15.084C14.1642 15.084 14.5 14.7482 14.5 14.334C14.5 13.9198 14.1642 13.584 13.75 13.584C13.3358 13.584 13 13.9198 13 14.334C13 14.7482 13.3358 15.084 13.75 15.084Z" fill="#00BEE8"/>
</svg>
