<svg preserveAspectRatio="none" width="100%" height="100%" overflow="visible" style="display: block;" viewBox="0 0 11.9999 12.0001" fill="none" xmlns="http://www.w3.org/2000/svg">
<path id="Shape" d="M4.99992 6.88033C5.34483 6.88033 5.62443 7.15993 5.62443 7.50484C5.62443 7.84974 5.34483 8.12935 4.99992 8.12935C4.65501 8.12935 4.37541 7.84974 4.37541 7.50484C4.37541 7.15993 4.65501 6.88033 4.99992 6.88033ZM4.99997 2.00342C6.03101 2.00342 6.85337 2.84921 6.85337 3.95291C6.85337 4.53867 6.63904 4.86065 6.12574 5.27147L5.84869 5.48578C5.60294 5.68037 5.52024 5.78626 5.50339 5.93402L5.49186 6.09017C5.44952 6.32342 5.24536 6.50027 4.9999 6.50027C4.72376 6.50027 4.49991 6.27639 4.49992 6.00025C4.49995 5.42935 4.70993 5.11611 5.21569 4.7118L5.49368 4.49677C5.78217 4.26787 5.85337 4.15471 5.85337 3.95291C5.85337 3.39531 5.47234 3.00342 4.99997 3.00342C4.50619 3.00342 4.14098 3.3691 4.14654 3.94811C4.14919 4.22424 3.92749 4.45023 3.65136 4.45288C3.37523 4.45554 3.14924 4.23384 3.14659 3.95771C3.13567 2.82081 3.95202 2.00342 4.99997 2.00342ZM8.11897e-06 5C8.11897e-06 2.23858 2.23858 0 5.00001 0C7.76143 0 10 2.23858 10 5C10 7.76142 7.76143 10 5.00001 10C4.24557 10 3.529 9.83258 2.88649 9.53253L0.598087 9.99031C0.434155 10.0231 0.264681 9.97179 0.146464 9.85358C0.0282469 9.73537 -0.0230683 9.5659 0.00971694 9.40197L0.467416 7.11337C0.167401 6.4709 8.11897e-06 5.75438 8.11897e-06 5ZM5.00001 1C2.79087 1 1.00001 2.79086 1.00001 5C1.00001 5.65571 1.1574 6.27321 1.43602 6.81814C1.48734 6.91851 1.50324 7.03328 1.48113 7.14382L1.13739 8.86261L2.85602 8.51881C2.96657 8.49669 3.08135 8.51259 3.18173 8.56392C3.7267 8.84258 4.34424 9 5.00001 9C7.20915 9 9.00001 7.20914 9.00001 5C9.00001 2.79086 7.20915 1 5.00001 1ZM3.86036 10.8918C4.71858 11.585 5.81077 12.0001 6.99992 12.0001C7.75436 12.0001 8.47093 11.8327 9.11343 11.5326L11.4018 11.9904C11.5658 12.0232 11.7352 11.9719 11.8535 11.8537C11.9717 11.7355 12.023 11.566 11.9902 11.4021L11.5325 9.11349C11.8325 8.47102 11.9999 7.7545 11.9999 7.00012C11.9999 5.81121 11.585 4.71923 10.892 3.86108C10.9629 4.22987 11 4.61066 11 5.00012C11 5.37677 10.9653 5.74532 10.8989 6.10274C10.965 6.39122 10.9999 6.69159 10.9999 7.00012C10.9999 7.65583 10.8425 8.27332 10.5639 8.81826C10.5126 8.91863 10.4967 9.0334 10.5188 9.14394L10.8625 10.8627L9.14391 10.5189C9.03336 10.4968 8.91857 10.5127 8.81819 10.564C8.27322 10.8427 7.65568 11.0001 6.99992 11.0001C6.69136 11.0001 6.39096 10.9652 6.10246 10.899C5.74508 10.9654 5.37657 11.0001 4.99996 11.0001C4.61076 11.0001 4.2297 10.9629 3.86036 10.8918Z" fill="var(--fill-0, #00BEE8)"/>
</svg>
