<svg width="28" height="28" viewBox="0 0 28 28" fill="none" xmlns="http://www.w3.org/2000/svg">
<path d="M25 21.75C25 23.5449 23.5449 25 21.75 25H6.25C4.45507 25 3 23.5449 3 21.75V9L14 8L25 9V21.75Z" fill="url(#paint0_linear_9_2460)"/>
<path d="M25 21.75C25 23.5449 23.5449 25 21.75 25H6.25C4.45507 25 3 23.5449 3 21.75V9L14 8L25 9V21.75Z" fill="url(#paint1_linear_9_2460)"/>
<g filter="url(#filter0_d_9_2460)">
<path d="M8.74902 17.5015C9.43938 17.5015 9.99902 18.0611 9.99902 18.7515C9.99902 19.4418 9.43938 20.0015 8.74902 20.0015C8.05867 20.0015 7.49902 19.4418 7.49902 18.7515C7.49902 18.0611 8.05867 17.5015 8.74902 17.5015ZM14.0035 17.5015C14.6939 17.5015 15.2535 18.0611 15.2535 18.7515C15.2535 19.4418 14.6939 20.0015 14.0035 20.0015C13.3131 20.0015 12.7535 19.4418 12.7535 18.7515C12.7535 18.0611 13.3131 17.5015 14.0035 17.5015ZM8.74902 12.5015C9.43938 12.5015 9.99902 13.0611 9.99902 13.7515C9.99902 14.4418 9.43938 15.0015 8.74902 15.0015C8.05867 15.0015 7.49902 14.4418 7.49902 13.7515C7.49902 13.0611 8.05867 12.5015 8.74902 12.5015ZM14.0035 12.5015C14.6939 12.5015 15.2535 13.0611 15.2535 13.7515C15.2535 14.4418 14.6939 15.0015 14.0035 15.0015C13.3131 15.0015 12.7535 14.4418 12.7535 13.7515C12.7535 13.0611 13.3131 12.5015 14.0035 12.5015ZM19.258 12.5015C19.9483 12.5015 20.508 13.0611 20.508 13.7515C20.508 14.4418 19.9483 15.0015 19.258 15.0015C18.5676 15.0015 18.008 14.4418 18.008 13.7515C18.008 13.0611 18.5676 12.5015 19.258 12.5015Z" fill="url(#paint2_linear_9_2460)"/>
</g>
<path d="M21.75 3C23.5449 3 25 4.45507 25 6.25V9H3V6.25C3 4.45507 4.45507 3 6.25 3H21.75Z" fill="url(#paint3_linear_9_2460)"/>
<defs>
<filter id="filter0_d_9_2460" x="6.16569" y="11.8348" width="15.6755" height="10.1667" filterUnits="userSpaceOnUse" color-interpolation-filters="sRGB">
<feFlood flood-opacity="0" result="BackgroundImageFix"/>
<feColorMatrix in="SourceAlpha" type="matrix" values="0 0 0 0 0 0 0 0 0 0 0 0 0 0 0 0 0 0 127 0" result="hardAlpha"/>
<feOffset dy="0.666667"/>
<feGaussianBlur stdDeviation="0.666667"/>
<feColorMatrix type="matrix" values="0 0 0 0 0.1242 0 0 0 0 0.323337 0 0 0 0 0.7958 0 0 0 0.32 0"/>
<feBlend mode="normal" in2="BackgroundImageFix" result="effect1_dropShadow_9_2460"/>
<feBlend mode="normal" in="SourceGraphic" in2="effect1_dropShadow_9_2460" result="shape"/>
</filter>
<linearGradient id="paint0_linear_9_2460" x1="17.9722" y1="27.0877" x2="11.8281" y2="8.80315" gradientUnits="userSpaceOnUse">
<stop stop-color="#B3E0FF"/>
<stop offset="1" stop-color="#B3E0FF"/>
</linearGradient>
<linearGradient id="paint1_linear_9_2460" x1="16.3571" y1="14.9545" x2="19.4017" y2="28.8851" gradientUnits="userSpaceOnUse">
<stop stop-color="#DCF8FF" stop-opacity="0"/>
<stop offset="1" stop-color="#FF6CE8" stop-opacity="0.7"/>
</linearGradient>
<linearGradient id="paint2_linear_9_2460" x1="12.8209" y1="11.6361" x2="15.0992" y2="26.6493" gradientUnits="userSpaceOnUse">
<stop stop-color="#0078D4"/>
<stop offset="1" stop-color="#0067BF"/>
</linearGradient>
<linearGradient id="paint3_linear_9_2460" x1="3" y1="3" x2="21.7216" y2="-3.15664" gradientUnits="userSpaceOnUse">
<stop stop-color="#0094F0"/>
<stop offset="1" stop-color="#2764E7"/>
</linearGradient>
</defs>
</svg>
