<svg width="24" height="24" viewBox="0 0 24 24" fill="none" xmlns="http://www.w3.org/2000/svg">
<path d="M20 6.8016C20 5.81605 19.0658 5.09831 18.1135 5.35225L5.11351 8.81891C4.45688 8.99402 4 9.58869 4 10.2683V12.7792C4 13.4249 4.41315 13.9981 5.02566 14.2023L7 14.8604V15.75C7 17.5449 8.45507 19 10.25 19C11.6211 19 12.7932 18.1513 13.2709 16.9507L18.0257 18.5356C18.997 18.8594 20 18.1364 20 17.1126V6.8016ZM12.32 16.6337C11.9766 17.437 11.1787 18 10.25 18C9.00736 18 8 16.9926 8 15.75V15.1937L12.32 16.6337ZM18.3712 6.31848C18.6886 6.23384 19 6.47309 19 6.8016V17.1126C19 17.4538 18.6657 17.6948 18.3419 17.5869L5.34189 13.2536C5.13771 13.1855 5 12.9944 5 12.7792V10.2683C5 10.0417 5.15229 9.84352 5.37117 9.78515L18.3712 6.31848Z" fill="#616161"/>
</svg>
