<svg width="24" height="24" viewBox="0 0 24 24" fill="none" xmlns="http://www.w3.org/2000/svg">
<path d="M20.9519 3.04761C19.5543 1.65009 17.2885 1.65015 15.8911 3.04776L3.94103 14.9992C3.5347 15.4056 3.2491 15.9167 3.116 16.4757L2.02041 21.0772C1.96009 21.3306 2.03552 21.5971 2.21968 21.7812C2.40385 21.9654 2.67037 22.0408 2.92373 21.9805L7.52498 20.885C8.08418 20.7518 8.59546 20.4661 9.00191 20.0596L18.9995 10.0609C19.6777 10.7447 19.676 11.8489 18.9943 12.5305L17.2109 14.314C16.918 14.6069 16.918 15.0817 17.2109 15.3746C17.5038 15.6675 17.9786 15.6675 18.2715 15.3746L20.055 13.5912C21.3224 12.3237 21.3242 10.2698 20.0601 9.00015L20.952 8.10812C22.3493 6.71064 22.3493 4.44501 20.9519 3.04761ZM16.9518 4.10836C17.7634 3.2966 19.0795 3.29656 19.8912 4.10827C20.7028 4.91991 20.7029 6.23583 19.8913 7.04752L7.94119 18.999C7.73104 19.2092 7.46668 19.3569 7.17755 19.4258L3.76191 20.239L4.57521 16.8232C4.64402 16.5342 4.79168 16.2699 5.00175 16.0598L16.9518 4.10836Z" fill="#616161"/>
</svg>
