<svg width="24" height="24" viewBox="0 0 24 24" fill="none" xmlns="http://www.w3.org/2000/svg">
<path d="M12.5 14C13.3284 14 14 14.6716 14 15.5V16C14 17.9714 12.1405 20 9 20C5.85951 20 4 17.9714 4 16V15.5C4 14.6716 4.67157 14 5.5 14H12.5ZM12.5 15H5.5C5.22386 15 5 15.2239 5 15.5V16C5 17.4376 6.43216 19 9 19C11.5678 19 13 17.4376 13 16V15.5C13 15.2239 12.7761 15 12.5 15ZM9 7.5C10.5188 7.5 11.75 8.73122 11.75 10.25C11.75 11.7688 10.5188 13 9 13C7.48122 13 6.25 11.7688 6.25 10.25C6.25 8.73122 7.48122 7.5 9 7.5ZM18 4C19.0544 4 19.9182 4.81588 19.9945 5.85074L20 6V8C20 9.05436 19.1841 9.91817 18.1493 9.99451L18 10H16.499L15.301 11.5998C14.7716 12.306 13.6965 12.0199 13.5243 11.2243L13.5066 11.1126L13.5008 11L13.5 9.935L13.4224 9.91532C12.697 9.69685 12.1452 9.07753 12.0246 8.3148L12.0055 8.14926L12 8V6C12 4.94564 12.8159 4.08183 13.8507 4.00549L14 4H18ZM9 8.5C8.0335 8.5 7.25 9.2835 7.25 10.25C7.25 11.2165 8.0335 12 9 12C9.9665 12 10.75 11.2165 10.75 10.25C10.75 9.2835 9.9665 8.5 9 8.5ZM18 5H14C13.4872 5 13.0645 5.38604 13.0067 5.88338L13 6V8C13 8.51284 13.386 8.93551 13.8834 8.99327L14 9H14.5008V11L16 9H18C18.5128 9 18.9355 8.61396 18.9933 8.11662L19 8V6C19 5.48716 18.614 5.06449 18.1166 5.00673L18 5Z" fill="#616161"/>
</svg>
