<svg width="100" height="100" viewBox="0 0 100 100" fill="none" xmlns="http://www.w3.org/2000/svg">
<path d="M46.0552 2.23591C48.5022 0.848953 51.4978 0.848953 53.9448 2.23591L71.75 12.3279L89.3925 22.7017C91.8172 24.1273 93.315 26.7216 93.3373 29.5343L93.5 50L93.3373 70.4657C93.315 73.2784 91.8172 75.8727 89.3925 77.2983L71.75 87.6721L53.9448 97.7641C51.4978 99.151 48.5022 99.151 46.0552 97.7641L28.25 87.6721L10.6075 77.2983C8.18285 75.8727 6.68505 73.2784 6.66269 70.4657L6.5 50L6.66269 29.5343C6.68505 26.7216 8.18285 24.1273 10.6075 22.7017L28.25 12.3279L46.0552 2.23591Z" fill="#008FB1"/>
<path d="M49.6071 70.1013C38.6783 70.0964 29.8225 60.7144 29.8272 49.1462C29.8318 37.5779 38.6952 28.2041 49.624 28.209C60.5528 28.2139 69.4085 37.5959 69.4038 49.1641C69.4023 52.8945 68.4597 56.5568 66.6733 59.7725C66.4775 60.0978 66.0696 60.1936 65.7622 59.9863C65.4703 59.7894 65.3717 59.3872 65.5363 59.0649C70.7182 49.75 67.785 37.7523 58.9851 32.2673C50.1851 26.7823 38.8507 29.887 33.6688 39.2019C28.487 48.5167 31.4201 60.5144 40.22 65.9994C47.0621 70.2641 55.7126 69.4289 61.7129 63.9244C61.9807 63.6627 62.3982 63.6804 62.6454 63.9639C62.8926 64.2474 62.8758 64.6893 62.608 64.9509C62.5981 64.9607 62.5878 64.9701 62.5773 64.9791C58.9777 68.2842 54.3722 70.103 49.6071 70.1013Z" fill="white"/>
<path d="M49.6071 70.1013C38.6783 70.0964 29.8225 60.7144 29.8272 49.1462C29.8318 37.5779 38.6952 28.2041 49.624 28.209C60.5528 28.2139 69.4085 37.5959 69.4038 49.1641C69.4023 52.8945 68.4597 56.5568 66.6733 59.7725C66.4775 60.0978 66.0696 60.1936 65.7622 59.9863C65.4703 59.7894 65.3717 59.3872 65.5363 59.0649C70.7182 49.75 67.785 37.7523 58.9851 32.2673C50.1851 26.7823 38.8507 29.887 33.6688 39.2019C28.487 48.5167 31.4201 60.5144 40.22 65.9994C47.0621 70.2641 55.7126 69.4289 61.7129 63.9244C61.9807 63.6627 62.3982 63.6804 62.6454 63.9639C62.8926 64.2474 62.8758 64.6893 62.608 64.9509C62.5981 64.9607 62.5878 64.9701 62.5773 64.9791C58.9777 68.2842 54.3722 70.103 49.6071 70.1013Z" fill="white" fill-opacity="0.2"/>
<path d="M38.3898 57.5289C38.2237 57.5288 38.0637 57.4625 37.9418 57.3431C35.4341 54.8913 34.7696 54.0852 34.569 53.7737C33.7304 53.4353 32.8718 53.1553 31.9987 52.9355C31.6027 52.844 31.2138 52.7209 30.8353 52.5674C30.5073 52.3992 30.3702 51.9814 30.5291 51.6342C30.688 51.287 31.0827 51.1418 31.4107 51.31C31.5183 51.3533 31.9538 51.4763 32.3385 51.5846C34.9444 52.3187 35.5107 52.5702 35.704 53.0808C35.8453 53.2987 37.0509 54.5476 38.2585 55.7477C38.5959 55.2163 38.8621 54.638 39.0497 54.0293C38.5782 53.1949 37.9932 52.4384 37.3135 51.7843C36.7127 51.1386 36.3374 50.2956 36.2497 49.394C36.2655 49.0391 36.4514 48.7172 36.7427 48.5405C37.2501 48.2338 38.2334 48.2576 39.8719 48.4078C40.0699 48.4266 40.2322 48.4427 40.3273 48.4469C40.9517 48.0993 41.4432 47.5336 41.7183 46.8459C42.4389 45.1046 43.7425 43.7069 45.3781 42.9217C46.2203 42.4183 47.172 42.1563 48.1392 42.1617C48.679 41.5854 49.4926 39.0023 49.0716 38.3772C48.8003 37.9762 47.8006 37.5669 46.9975 37.2379C45.7556 36.7294 44.6832 36.29 44.3718 35.426C44.0603 34.5619 44.383 32.7018 44.8047 30.5504C44.8925 30.0999 44.9756 29.6751 44.9927 29.5124C45.0328 29.1289 45.359 28.8525 45.7212 28.8949C46.0835 28.9374 46.3447 29.2826 46.3046 29.6661C46.2809 29.8952 46.2037 30.2885 46.0968 30.8333C45.9074 31.8007 45.4045 34.3712 45.6058 34.9286C45.7259 35.2192 46.8629 35.6851 47.474 35.9352C48.5905 36.392 49.645 36.8237 50.1446 37.5655C50.9595 38.7718 50.1815 41.1335 49.6562 42.2141C49.2121 43.1312 48.7753 43.5587 48.2883 43.5587H48.1602C47.3733 43.558 46.6004 43.7781 45.9199 44.1964C44.6289 44.8167 43.5872 45.9012 42.9801 47.2573C42.6065 48.5412 41.1462 49.8453 40.3695 49.8453C40.2666 49.8453 40.0442 49.8271 39.7571 49.8006C39.0448 49.7191 38.3279 49.6897 37.6118 49.7126C37.7502 50.0772 37.9389 50.4183 38.1714 50.7247C38.1714 50.7247 40.3695 52.8544 40.3695 54.0363C40.3695 54.8578 39.3691 56.5349 38.9389 57.218C38.8316 57.3881 38.6595 57.4999 38.4677 57.524C38.4418 57.5273 38.4158 57.529 38.3898 57.5289Z" fill="white"/>
<path d="M38.3898 57.5289C38.2237 57.5288 38.0637 57.4625 37.9418 57.3431C35.4341 54.8913 34.7696 54.0852 34.569 53.7737C33.7304 53.4353 32.8718 53.1553 31.9987 52.9355C31.6027 52.844 31.2138 52.7209 30.8353 52.5674C30.5073 52.3992 30.3702 51.9814 30.5291 51.6342C30.688 51.287 31.0827 51.1418 31.4107 51.31C31.5183 51.3533 31.9538 51.4763 32.3385 51.5846C34.9444 52.3187 35.5107 52.5702 35.704 53.0808C35.8453 53.2987 37.0509 54.5476 38.2585 55.7477C38.5959 55.2163 38.8621 54.638 39.0497 54.0293C38.5782 53.1949 37.9932 52.4384 37.3135 51.7843C36.7127 51.1386 36.3374 50.2956 36.2497 49.394C36.2655 49.0391 36.4514 48.7172 36.7427 48.5405C37.2501 48.2338 38.2334 48.2576 39.8719 48.4078C40.0699 48.4266 40.2322 48.4427 40.3273 48.4469C40.9517 48.0993 41.4432 47.5336 41.7183 46.8459C42.4389 45.1046 43.7425 43.7069 45.3781 42.9217C46.2203 42.4183 47.172 42.1563 48.1392 42.1617C48.679 41.5854 49.4926 39.0023 49.0716 38.3772C48.8003 37.9762 47.8006 37.5669 46.9975 37.2379C45.7556 36.7294 44.6832 36.29 44.3718 35.426C44.0603 34.5619 44.383 32.7018 44.8047 30.5504C44.8925 30.0999 44.9756 29.6751 44.9927 29.5124C45.0328 29.1289 45.359 28.8525 45.7212 28.8949C46.0835 28.9374 46.3447 29.2826 46.3046 29.6661C46.2809 29.8952 46.2037 30.2885 46.0968 30.8333C45.9074 31.8007 45.4045 34.3712 45.6058 34.9286C45.7259 35.2192 46.8629 35.6851 47.474 35.9352C48.5905 36.392 49.645 36.8237 50.1446 37.5655C50.9595 38.7718 50.1815 41.1335 49.6562 42.2141C49.2121 43.1312 48.7753 43.5587 48.2883 43.5587H48.1602C47.3733 43.558 46.6004 43.7781 45.9199 44.1964C44.6289 44.8167 43.5872 45.9012 42.9801 47.2573C42.6065 48.5412 41.1462 49.8453 40.3695 49.8453C40.2666 49.8453 40.0442 49.8271 39.7571 49.8006C39.0448 49.7191 38.3279 49.6897 37.6118 49.7126C37.7502 50.0772 37.9389 50.4183 38.1714 50.7247C38.1714 50.7247 40.3695 52.8544 40.3695 54.0363C40.3695 54.8578 39.3691 56.5349 38.9389 57.218C38.8316 57.3881 38.6595 57.4999 38.4677 57.524C38.4418 57.5273 38.4158 57.529 38.3898 57.5289Z" fill="white" fill-opacity="0.2"/>
<path d="M58.7005 44.9961C58.3604 44.9758 58.0285 44.8776 57.7277 44.7083C57.3707 44.5288 56.206 43.8645 56.206 42.8601C56.206 42.617 56.2126 42.3012 56.2199 41.9653C56.2324 41.3785 56.2496 40.5906 56.2199 40.2337L56.1882 40.2092C55.7017 39.8563 55.4515 39.2377 55.5461 38.6215C55.5596 38.4185 55.656 38.2318 55.8101 38.1102C55.9309 38.0138 58.8113 35.7744 61.7802 37.3453C61.8029 37.3573 61.8249 37.3706 61.8462 37.3852C62.2709 37.7851 62.6126 38.2738 62.8499 38.8206C63.0215 39.1314 63.199 39.4534 63.3376 39.6511C63.4893 39.8691 63.5379 40.1488 63.4695 40.4097C63.3013 41.0691 62.485 41.535 60.5977 42.3942C60.3139 42.5241 59.9602 42.6841 59.8777 42.7378L59.8374 42.7644C59.7402 43.0325 59.6849 43.3156 59.6738 43.6026C59.6952 44.0436 59.5466 44.4749 59.262 44.7977C59.103 44.9323 58.9039 45.0026 58.7005 44.9961ZM56.9036 39.0183C56.9303 39.0475 56.9597 39.074 56.9913 39.0972C57.2752 39.296 57.4668 39.6122 57.5192 39.9682C57.5636 40.6425 57.5702 41.3189 57.539 41.9939C57.5318 42.318 57.5252 42.6226 57.5252 42.8566C57.7522 43.1312 58.038 43.3443 58.3587 43.4782V43.4517C58.4246 42.823 58.5085 41.9611 59.1552 41.5657C59.4509 41.3917 59.7576 41.2396 60.0731 41.1103C60.7465 40.8211 61.4016 40.486 62.0342 40.1072C61.928 39.927 61.8185 39.7293 61.7043 39.5254C61.5319 39.1901 61.3372 38.8682 61.1216 38.5622C59.3735 37.6799 57.5958 38.5845 56.9036 39.0183Z" fill="white"/>
<path d="M58.7005 44.9961C58.3604 44.9758 58.0285 44.8776 57.7277 44.7083C57.3707 44.5288 56.206 43.8645 56.206 42.8601C56.206 42.617 56.2126 42.3012 56.2199 41.9653C56.2324 41.3785 56.2496 40.5906 56.2199 40.2337L56.1882 40.2092C55.7017 39.8563 55.4515 39.2377 55.5461 38.6215C55.5596 38.4185 55.656 38.2318 55.8101 38.1102C55.9309 38.0138 58.8113 35.7744 61.7802 37.3453C61.8029 37.3573 61.8249 37.3706 61.8462 37.3852C62.2709 37.7851 62.6126 38.2738 62.8499 38.8206C63.0215 39.1314 63.199 39.4534 63.3376 39.6511C63.4893 39.8691 63.5379 40.1488 63.4695 40.4097C63.3013 41.0691 62.485 41.535 60.5977 42.3942C60.3139 42.5241 59.9602 42.6841 59.8777 42.7378L59.8374 42.7644C59.7402 43.0325 59.6849 43.3156 59.6738 43.6026C59.6952 44.0436 59.5466 44.4749 59.262 44.7977C59.103 44.9323 58.9039 45.0026 58.7005 44.9961ZM56.9036 39.0183C56.9303 39.0475 56.9597 39.074 56.9913 39.0972C57.2752 39.296 57.4668 39.6122 57.5192 39.9682C57.5636 40.6425 57.5702 41.3189 57.539 41.9939C57.5318 42.318 57.5252 42.6226 57.5252 42.8566C57.7522 43.1312 58.038 43.3443 58.3587 43.4782V43.4517C58.4246 42.823 58.5085 41.9611 59.1552 41.5657C59.4509 41.3917 59.7576 41.2396 60.0731 41.1103C60.7465 40.8211 61.4016 40.486 62.0342 40.1072C61.928 39.927 61.8185 39.7293 61.7043 39.5254C61.5319 39.1901 61.3372 38.8682 61.1216 38.5622C59.3735 37.6799 57.5958 38.5845 56.9036 39.0183Z" fill="white" fill-opacity="0.2"/>
<path d="M49.6071 67.3073C49.5106 67.3077 49.4152 67.2853 49.3279 67.2417C48.4245 66.796 47.2909 66.1303 47.0243 65.4954C46.9063 65.3074 46.7722 65.1313 46.6237 64.9694C46.1259 64.4947 45.784 63.8644 45.6477 63.17C45.4978 62.2758 45.2868 61.3943 45.0162 60.5325C45.0096 60.5087 45.003 60.4822 44.9984 60.4577C44.9468 60.1262 44.8309 59.8097 44.6579 59.528C44.6183 59.512 44.5146 59.4638 44.3939 59.4058C43.2721 58.8784 42.3483 58.372 42.3483 57.5282V57.3612C42.3357 55.2413 42.5152 53.7535 43.4337 53.3798C43.5228 53.3441 43.6172 53.3001 43.7182 53.254C44.8589 52.5769 46.2657 52.6538 47.3344 53.4517C47.5013 53.5747 47.6798 53.6791 47.8669 53.7632C48.2042 53.9094 48.3656 54.3174 48.2275 54.6744C48.0929 55.0222 47.7224 55.1949 47.3892 55.0652C47.1122 54.9452 46.8483 54.7939 46.6019 54.614C45.9046 54.0825 44.9725 54.0513 44.2448 54.5351C44.1425 54.5819 44.0468 54.6273 43.9517 54.6657C43.8508 54.8096 43.6562 55.3481 43.6681 57.3501V57.4032C44.0622 57.6948 44.4866 57.9376 44.9331 58.1268C45.0763 58.1967 45.197 58.2525 45.2834 58.2972C45.9275 58.6388 46.1974 59.674 46.2885 60.1455C46.5851 61.0982 46.812 62.0737 46.9675 63.0632C46.9847 63.3 47.3601 63.7435 47.6089 64.0411C47.857 64.3036 48.0672 64.6035 48.2326 64.931C48.6169 65.2673 49.0408 65.5495 49.4936 65.7706C49.7437 65.5219 50.0545 65.2041 50.267 64.9547V63.1163C50.267 62.7305 50.5625 62.4178 50.9269 62.4178C51.2914 62.4178 51.5868 62.7305 51.5868 63.1163V65.2118C51.5868 65.368 51.5373 65.5198 51.4462 65.6428C51.0107 66.1701 50.5431 66.6669 50.0466 67.1299C49.9256 67.2442 49.7692 67.3073 49.6071 67.3073Z" fill="white"/>
<path d="M49.6071 67.3073C49.5106 67.3077 49.4152 67.2853 49.3279 67.2417C48.4245 66.796 47.2909 66.1303 47.0243 65.4954C46.9063 65.3074 46.7722 65.1313 46.6237 64.9694C46.1259 64.4947 45.784 63.8644 45.6477 63.17C45.4978 62.2758 45.2868 61.3943 45.0162 60.5325C45.0096 60.5087 45.003 60.4822 44.9984 60.4577C44.9468 60.1262 44.8309 59.8097 44.6579 59.528C44.6183 59.512 44.5146 59.4638 44.3939 59.4058C43.2721 58.8784 42.3483 58.372 42.3483 57.5282V57.3612C42.3357 55.2413 42.5152 53.7535 43.4337 53.3798C43.5228 53.3441 43.6172 53.3001 43.7182 53.254C44.8589 52.5769 46.2657 52.6538 47.3344 53.4517C47.5013 53.5747 47.6798 53.6791 47.8669 53.7632C48.2042 53.9094 48.3656 54.3174 48.2275 54.6744C48.0929 55.0222 47.7224 55.1949 47.3892 55.0652C47.1122 54.9452 46.8483 54.7939 46.6019 54.614C45.9046 54.0825 44.9725 54.0513 44.2448 54.5351C44.1425 54.5819 44.0468 54.6273 43.9517 54.6657C43.8508 54.8096 43.6562 55.3481 43.6681 57.3501V57.4032C44.0622 57.6948 44.4866 57.9376 44.9331 58.1268C45.0763 58.1967 45.197 58.2525 45.2834 58.2972C45.9275 58.6388 46.1974 59.674 46.2885 60.1455C46.5851 61.0982 46.812 62.0737 46.9675 63.0632C46.9847 63.3 47.3601 63.7435 47.6089 64.0411C47.857 64.3036 48.0672 64.6035 48.2326 64.931C48.6169 65.2673 49.0408 65.5495 49.4936 65.7706C49.7437 65.5219 50.0545 65.2041 50.267 64.9547V63.1163C50.267 62.7305 50.5625 62.4178 50.9269 62.4178C51.2914 62.4178 51.5868 62.7305 51.5868 63.1163V65.2118C51.5868 65.368 51.5373 65.5198 51.4462 65.6428C51.0107 66.1701 50.5431 66.6669 50.0466 67.1299C49.9256 67.2442 49.7692 67.3073 49.6071 67.3073Z" fill="white" fill-opacity="0.2"/>
<path d="M57.5262 63.1167C53.1528 63.1167 49.6074 59.3639 49.6074 54.7346C49.6074 50.1053 53.1528 46.3525 57.5262 46.3525C61.8996 46.3525 65.4449 50.1053 65.4449 54.7346C65.4402 59.3619 61.8976 63.1117 57.5262 63.1167ZM57.5262 47.7495C53.8817 47.7495 50.9272 50.8769 50.9272 54.7346C50.9272 58.5924 53.8817 61.7197 57.5262 61.7197C61.1707 61.7197 64.1251 58.5924 64.1251 54.7346C64.1211 50.8786 61.169 47.7538 57.5262 47.7495Z" fill="white"/>
<path d="M57.5262 63.1167C53.1528 63.1167 49.6074 59.3639 49.6074 54.7346C49.6074 50.1053 53.1528 46.3525 57.5262 46.3525C61.8996 46.3525 65.4449 50.1053 65.4449 54.7346C65.4402 59.3619 61.8976 63.1117 57.5262 63.1167ZM57.5262 47.7495C53.8817 47.7495 50.9272 50.8769 50.9272 54.7346C50.9272 58.5924 53.8817 61.7197 57.5262 61.7197C61.1707 61.7197 64.1251 58.5924 64.1251 54.7346C64.1211 50.8786 61.169 47.7538 57.5262 47.7495Z" fill="white" fill-opacity="0.2"/>
<path d="M63.2721 59.8286L62.3389 60.8164L64.3187 62.9121L65.252 61.9243L63.2721 59.8286Z" fill="white"/>
<path d="M63.2721 59.8286L62.3389 60.8164L64.3187 62.9121L65.252 61.9243L63.2721 59.8286Z" fill="white" fill-opacity="0.2"/>
<path d="M70.0637 70.101C69.8887 70.1009 69.7208 70.0273 69.5971 69.8963L63.6581 63.6097C63.4004 63.3369 63.4004 62.8948 63.6581 62.622L64.9779 61.225C65.2355 60.9523 65.6533 60.9523 65.911 61.225L71.85 67.5116C72.1076 67.7844 72.1076 68.2265 71.85 68.4993L70.5302 69.8963C70.4065 70.0273 70.2387 70.1009 70.0637 70.101ZM65.0577 63.1159L70.0637 68.4147L70.4504 68.0054L65.4444 62.7066L65.0577 63.1159Z" fill="white"/>
<path d="M70.0637 70.101C69.8887 70.1009 69.7208 70.0273 69.5971 69.8963L63.6581 63.6097C63.4004 63.3369 63.4004 62.8948 63.6581 62.622L64.9779 61.225C65.2355 60.9523 65.6533 60.9523 65.911 61.225L71.85 67.5116C72.1076 67.7844 72.1076 68.2265 71.85 68.4993L70.5302 69.8963C70.4065 70.0273 70.2387 70.1009 70.0637 70.101ZM65.0577 63.1159L70.0637 68.4147L70.4504 68.0054L65.4444 62.7066L65.0577 63.1159Z" fill="white" fill-opacity="0.2"/>
</svg>
