<svg width="100" height="100" viewBox="0 0 100 100" fill="none" xmlns="http://www.w3.org/2000/svg">
<path d="M46.0552 2.23591C48.5022 0.848953 51.4978 0.848953 53.9448 2.23591L71.75 12.3279L89.3925 22.7017C91.8172 24.1273 93.315 26.7216 93.3373 29.5343L93.5 50L93.3373 70.4657C93.315 73.2784 91.8172 75.8727 89.3925 77.2983L71.75 87.6721L53.9448 97.7641C51.4978 99.151 48.5022 99.151 46.0552 97.7641L28.25 87.6721L10.6075 77.2983C8.18285 75.8727 6.68505 73.2784 6.66269 70.4657L6.5 50L6.66269 29.5343C6.68505 26.7216 8.18285 24.1273 10.6075 22.7017L28.25 12.3279L46.0552 2.23591Z" fill="#2D9659"/>
<path d="M49.437 57.2242C49.437 56.4724 49.2566 55.3984 50.0796 55.3984C50.9139 55.3984 50.7335 56.4724 50.7335 57.2242C51.3423 57.2242 52.2894 57.0572 52.2894 57.9164C52.2894 58.2864 51.9962 58.5966 51.6355 58.5966H49.1777V59.7781H51.6355C51.9962 59.7781 52.2894 60.0884 52.2894 60.4703C52.2894 63.8833 52.5712 63.7043 50.7335 63.7043C50.7335 64.4681 50.9139 65.5302 50.0796 65.5302C49.2566 65.5302 49.437 64.4681 49.437 63.7043C48.8282 63.7043 47.8811 63.8714 47.8811 63.0241C47.8811 62.6422 48.1742 62.3319 48.535 62.3319H50.9928V61.1505H48.535C48.1742 61.1505 47.8811 60.8402 47.8811 60.4703C47.8811 57.0572 47.5993 57.2242 49.437 57.2242ZM69.7305 44.3476H62.6729C62.3121 44.3476 62.0302 44.0374 62.0302 43.6555V33.6907H59.1554C58.6029 33.6907 58.2985 33.0105 58.648 32.5689L65.7057 23.6305C65.9537 23.3202 66.4497 23.3202 66.6977 23.6305L73.7554 32.5689C74.1049 33.0105 73.8005 33.6907 73.248 33.6907H70.3731V43.6555C70.3731 44.0374 70.08 44.3476 69.7305 44.3476ZM63.3268 42.9753H69.0766V33.0105C69.0766 32.6286 69.3697 32.3183 69.7305 32.3183H71.8613L66.2017 25.1461L60.5421 32.3183H62.6729C63.0336 32.3183 63.3268 32.6286 63.3268 33.0105V42.9753ZM33.9688 44.3476C33.7771 44.3476 33.5967 44.2522 33.4727 44.097L26.415 35.1586C26.0655 34.717 26.3699 34.0368 26.9224 34.0368H29.7973V24.072C29.7973 23.6902 30.0792 23.3799 30.44 23.3799H37.4863C37.8471 23.3799 38.1402 23.6902 38.1402 24.072V34.0368H41.0151C41.5675 34.0368 41.872 34.717 41.5112 35.1586L34.4648 44.097C34.3408 44.2522 34.1604 44.3476 33.9688 44.3476ZM28.3091 35.4092L33.9688 42.5814L39.6284 35.4092H37.4976C37.1368 35.4092 36.8437 35.0989 36.8437 34.717V24.7642H31.0939V34.717C31.0939 35.0989 30.8007 35.4092 30.44 35.4092H28.3091ZM73.8682 74.23H26.3023C25.9415 74.23 25.6484 73.9197 25.6484 73.5378V47.3908C25.6484 47.0089 25.9415 46.6986 26.3023 46.6986H73.8682C74.2289 46.6986 74.5108 47.0089 74.5108 47.3908V73.5378C74.5108 73.9197 74.2289 74.23 73.8682 74.23ZM26.9562 72.8457H73.2143V48.0829H26.9562V72.8457ZM64.9954 70.8646H35.1751C34.8143 70.8646 34.5325 70.5544 34.5325 70.1725C34.5325 67.4516 32.4242 65.2319 29.8537 65.2319C29.4929 65.2319 29.1998 64.9216 29.1998 64.5397V56.3889C29.1998 56.007 29.4929 55.7087 29.8537 55.7087C32.4242 55.7087 34.5325 53.477 34.5325 50.7561C34.5325 50.3742 34.8143 50.064 35.1751 50.064H64.9954C65.3561 50.064 65.638 50.3742 65.638 50.7561C65.638 53.477 67.735 55.7087 70.3168 55.7087C70.6776 55.7087 70.9707 56.007 70.9707 56.3889V64.5397C70.9707 64.9216 70.6776 65.2319 70.3168 65.2319C67.735 65.2319 65.638 67.4516 65.638 70.1844C65.638 70.5544 65.3449 70.8646 64.9954 70.8646ZM35.7952 69.4922H64.3752C64.6797 66.5446 66.8895 64.2056 69.6742 63.8833V57.0453C66.8895 56.723 64.6797 54.384 64.3752 51.4363H35.7952C35.4908 54.384 33.281 56.723 30.4963 57.0453V63.8833C33.281 64.2056 35.4908 66.5446 35.7952 69.4922ZM50.0796 67.8692C46.2238 67.8692 43.0896 64.5516 43.0896 60.4703C43.0896 56.3889 46.2238 53.0593 50.0796 53.0593C53.9354 53.0593 57.0809 56.3889 57.0809 60.4703C57.0809 64.5517 53.9354 67.8692 50.0796 67.8692ZM50.0796 54.4437C46.9454 54.4437 44.3862 57.1407 44.3862 60.4703C44.3862 63.7879 46.9454 66.4968 50.0796 66.4968C53.2251 66.4968 55.773 63.7879 55.773 60.4703C55.773 57.1407 53.2251 54.4437 50.0796 54.4437ZM64.5782 61.1505H60.6999C59.843 61.1505 59.843 59.7781 60.6999 59.7781H64.5782C65.4351 59.7781 65.4351 61.1505 64.5782 61.1505ZM39.4706 61.1505H35.5923C34.7354 61.1505 34.7354 59.7781 35.5923 59.7781H39.4706C40.3274 59.7781 40.3274 61.1505 39.4706 61.1505Z" fill="white"/>
<path d="M49.437 57.2242C49.437 56.4724 49.2566 55.3984 50.0796 55.3984C50.9139 55.3984 50.7335 56.4724 50.7335 57.2242C51.3423 57.2242 52.2894 57.0572 52.2894 57.9164C52.2894 58.2864 51.9962 58.5966 51.6355 58.5966H49.1777V59.7781H51.6355C51.9962 59.7781 52.2894 60.0884 52.2894 60.4703C52.2894 63.8833 52.5712 63.7043 50.7335 63.7043C50.7335 64.4681 50.9139 65.5302 50.0796 65.5302C49.2566 65.5302 49.437 64.4681 49.437 63.7043C48.8282 63.7043 47.8811 63.8714 47.8811 63.0241C47.8811 62.6422 48.1742 62.3319 48.535 62.3319H50.9928V61.1505H48.535C48.1742 61.1505 47.8811 60.8402 47.8811 60.4703C47.8811 57.0572 47.5993 57.2242 49.437 57.2242ZM69.7305 44.3476H62.6729C62.3121 44.3476 62.0302 44.0374 62.0302 43.6555V33.6907H59.1554C58.6029 33.6907 58.2985 33.0105 58.648 32.5689L65.7057 23.6305C65.9537 23.3202 66.4497 23.3202 66.6977 23.6305L73.7554 32.5689C74.1049 33.0105 73.8005 33.6907 73.248 33.6907H70.3731V43.6555C70.3731 44.0374 70.08 44.3476 69.7305 44.3476ZM63.3268 42.9753H69.0766V33.0105C69.0766 32.6286 69.3697 32.3183 69.7305 32.3183H71.8613L66.2017 25.1461L60.5421 32.3183H62.6729C63.0336 32.3183 63.3268 32.6286 63.3268 33.0105V42.9753ZM33.9688 44.3476C33.7771 44.3476 33.5967 44.2522 33.4727 44.097L26.415 35.1586C26.0655 34.717 26.3699 34.0368 26.9224 34.0368H29.7973V24.072C29.7973 23.6902 30.0792 23.3799 30.44 23.3799H37.4863C37.8471 23.3799 38.1402 23.6902 38.1402 24.072V34.0368H41.0151C41.5675 34.0368 41.872 34.717 41.5112 35.1586L34.4648 44.097C34.3408 44.2522 34.1604 44.3476 33.9688 44.3476ZM28.3091 35.4092L33.9688 42.5814L39.6284 35.4092H37.4976C37.1368 35.4092 36.8437 35.0989 36.8437 34.717V24.7642H31.0939V34.717C31.0939 35.0989 30.8007 35.4092 30.44 35.4092H28.3091ZM73.8682 74.23H26.3023C25.9415 74.23 25.6484 73.9197 25.6484 73.5378V47.3908C25.6484 47.0089 25.9415 46.6986 26.3023 46.6986H73.8682C74.2289 46.6986 74.5108 47.0089 74.5108 47.3908V73.5378C74.5108 73.9197 74.2289 74.23 73.8682 74.23ZM26.9562 72.8457H73.2143V48.0829H26.9562V72.8457ZM64.9954 70.8646H35.1751C34.8143 70.8646 34.5325 70.5544 34.5325 70.1725C34.5325 67.4516 32.4242 65.2319 29.8537 65.2319C29.4929 65.2319 29.1998 64.9216 29.1998 64.5397V56.3889C29.1998 56.007 29.4929 55.7087 29.8537 55.7087C32.4242 55.7087 34.5325 53.477 34.5325 50.7561C34.5325 50.3742 34.8143 50.064 35.1751 50.064H64.9954C65.3561 50.064 65.638 50.3742 65.638 50.7561C65.638 53.477 67.735 55.7087 70.3168 55.7087C70.6776 55.7087 70.9707 56.007 70.9707 56.3889V64.5397C70.9707 64.9216 70.6776 65.2319 70.3168 65.2319C67.735 65.2319 65.638 67.4516 65.638 70.1844C65.638 70.5544 65.3449 70.8646 64.9954 70.8646ZM35.7952 69.4922H64.3752C64.6797 66.5446 66.8895 64.2056 69.6742 63.8833V57.0453C66.8895 56.723 64.6797 54.384 64.3752 51.4363H35.7952C35.4908 54.384 33.281 56.723 30.4963 57.0453V63.8833C33.281 64.2056 35.4908 66.5446 35.7952 69.4922ZM50.0796 67.8692C46.2238 67.8692 43.0896 64.5516 43.0896 60.4703C43.0896 56.3889 46.2238 53.0593 50.0796 53.0593C53.9354 53.0593 57.0809 56.3889 57.0809 60.4703C57.0809 64.5517 53.9354 67.8692 50.0796 67.8692ZM50.0796 54.4437C46.9454 54.4437 44.3862 57.1407 44.3862 60.4703C44.3862 63.7879 46.9454 66.4968 50.0796 66.4968C53.2251 66.4968 55.773 63.7879 55.773 60.4703C55.773 57.1407 53.2251 54.4437 50.0796 54.4437ZM64.5782 61.1505H60.6999C59.843 61.1505 59.843 59.7781 60.6999 59.7781H64.5782C65.4351 59.7781 65.4351 61.1505 64.5782 61.1505ZM39.4706 61.1505H35.5923C34.7354 61.1505 34.7354 59.7781 35.5923 59.7781H39.4706C40.3274 59.7781 40.3274 61.1505 39.4706 61.1505Z" fill="white" fill-opacity="0.2"/>
</svg>
