<svg width="100" height="100" viewBox="0 0 100 100" fill="none" xmlns="http://www.w3.org/2000/svg">
<path d="M46.0552 2.23591C48.5022 0.848953 51.4978 0.848953 53.9448 2.23591L71.75 12.3279L89.3925 22.7017C91.8172 24.1273 93.315 26.7216 93.3373 29.5343L93.5 50L93.3373 70.4657C93.315 73.2784 91.8172 75.8727 89.3925 77.2983L71.75 87.6721L53.9448 97.7641C51.4978 99.151 48.5022 99.151 46.0552 97.7641L28.25 87.6721L10.6075 77.2983C8.18285 75.8727 6.68505 73.2784 6.66269 70.4657L6.5 50L6.66269 29.5343C6.68505 26.7216 8.18285 24.1273 10.6075 22.7017L28.25 12.3279L46.0552 2.23591Z" fill="#FF9D47"/>
<path d="M52.6529 41.6017H43.3288C42.6166 41.6017 42.6166 40.461 43.3288 40.461H52.6529C53.3651 40.461 53.3651 41.6017 52.6529 41.6017ZM51.4722 64.6044H34.5108C34.2203 64.6044 33.9766 64.3565 33.9766 64.039V28.6769C33.9766 28.3595 34.2203 28.1016 34.5108 28.1016H61.471C61.7708 28.1016 62.0051 28.3595 62.0051 28.6769V44.885C63.6357 45.0536 64.7977 45.9364 64.8445 45.986C67.4122 48.0293 66.9999 51.0448 66.3814 52.4633C66.2502 53.1179 66.9342 55.7267 64.8445 57.8197L65.9316 59.8234C69.1739 59.9821 71.751 62.452 71.751 65.4575V70.5262C71.751 70.8437 71.5073 71.1016 71.2168 71.1016H51.9407C51.6409 71.1016 51.3972 70.8437 51.3972 70.5262C51.3972 69.445 51.341 65.4178 51.4722 64.6044ZM60.9275 44.885V29.2522H35.0543V63.4637H51.7908C52.5967 61.4799 54.5927 60.0317 57.0011 59.8333L58.0975 57.8197C56.0358 55.7565 56.7011 53.4254 56.5606 52.4137C56.1108 50.8663 55.9796 47.6524 58.491 45.8471C59.2501 45.3016 60.0747 44.9841 60.9275 44.885ZM54.9582 49.6065H38.6433C37.9311 49.6065 37.9311 48.4559 38.6433 48.4559H54.9582C55.6704 48.4559 55.6704 49.6065 54.9582 49.6065ZM53.7493 53.6734H38.6433C37.9311 53.6734 37.9311 52.5327 38.6433 52.5327H53.7493C54.4615 52.5327 54.4615 53.6734 53.7493 53.6734ZM52.6623 57.7403H38.6433C37.9311 57.7403 37.9311 56.5996 38.6433 56.5996H52.6623C53.3745 56.5996 53.3745 57.7403 52.6623 57.7403ZM50.4882 61.8171H38.6433C37.9311 61.8171 37.9311 60.6665 38.6433 60.6665H50.4882C51.2004 60.6665 51.2004 61.8171 50.4882 61.8171ZM41.3235 47.3945C40.9205 47.3945 40.6487 46.9283 40.8455 46.5514L41.7826 44.7362C41.0423 44.7362 40.1239 44.9147 40.1239 44.1608V31.4741C40.1239 31.1567 40.3675 30.8988 40.658 30.8988H55.3236C55.6235 30.8988 55.8578 31.1567 55.8578 31.4741V44.1608C55.8578 44.4783 55.6235 44.7362 55.3236 44.7362H46.4774C46.1588 44.8155 41.7077 47.3945 41.3235 47.3945ZM41.2016 43.5855H42.7009C43.1039 43.5855 43.3663 44.0517 43.1695 44.4386L42.626 45.49C43.1133 45.2321 46.0651 43.5855 46.3462 43.5855H54.7801V32.0494H41.2016V43.5855ZM57.9287 60.4185C59.2126 63.186 63.7294 63.186 65.0132 60.4185L63.973 58.514C62.4268 59.4861 60.5058 59.4861 58.9689 58.514L57.9287 60.4185ZM52.4842 69.9509H55.7828V64.4557C55.7828 63.7018 56.8605 63.7018 56.8605 64.4557V69.9509H66.2877V64.4557C66.2877 63.7018 67.3747 63.7018 67.3747 64.4557V69.9509H70.6733V65.4575C70.6733 63.0868 68.5929 61.1327 65.9597 60.974C64.2636 64.5251 58.6972 64.535 56.9823 60.9839C54.4709 61.2418 52.4842 63.186 52.4842 65.4575V69.9509ZM63.7763 57.2741C63.8044 57.2543 63.8325 57.2245 63.8606 57.2047C64.7414 56.4607 65.3038 55.32 65.3038 54.0404V52.3641C65.1445 50.0926 64.5353 48.932 63.4951 48.932C62.633 48.932 61.649 49.6462 61.3398 49.914C60.8244 50.3703 60.3933 49.5172 59.2875 49.5172C57.404 49.5172 57.6383 52.989 57.6383 54.0404C57.6383 57.3733 61.2555 59.2877 63.7763 57.2741ZM63.4951 47.7913C64.2354 47.7913 65.0975 48.1087 65.6879 49.2693C65.1444 46.5316 61.6678 44.9544 59.1001 46.7994C58.1537 47.4739 57.7039 48.3765 57.5071 49.2494C58.3973 48.1385 59.6624 48.1881 60.9275 48.8031C61.4148 48.446 62.4362 47.7913 63.4951 47.7913ZM52.6529 35.174H43.3288C42.6166 35.174 42.6166 34.0333 43.3288 34.0333H52.6529C53.3651 34.0333 53.3651 35.174 52.6529 35.174ZM52.6529 38.3878H43.3288C42.6166 38.3878 42.6166 37.2471 43.3288 37.2471H52.6529C53.3651 37.2471 53.3651 38.3878 52.6529 38.3878Z" fill="white"/>
<path d="M52.6529 41.6017H43.3288C42.6166 41.6017 42.6166 40.461 43.3288 40.461H52.6529C53.3651 40.461 53.3651 41.6017 52.6529 41.6017ZM51.4722 64.6044H34.5108C34.2203 64.6044 33.9766 64.3565 33.9766 64.039V28.6769C33.9766 28.3595 34.2203 28.1016 34.5108 28.1016H61.471C61.7708 28.1016 62.0051 28.3595 62.0051 28.6769V44.885C63.6357 45.0536 64.7977 45.9364 64.8445 45.986C67.4122 48.0293 66.9999 51.0448 66.3814 52.4633C66.2502 53.1179 66.9342 55.7267 64.8445 57.8197L65.9316 59.8234C69.1739 59.9821 71.751 62.452 71.751 65.4575V70.5262C71.751 70.8437 71.5073 71.1016 71.2168 71.1016H51.9407C51.6409 71.1016 51.3972 70.8437 51.3972 70.5262C51.3972 69.445 51.341 65.4178 51.4722 64.6044ZM60.9275 44.885V29.2522H35.0543V63.4637H51.7908C52.5967 61.4799 54.5927 60.0317 57.0011 59.8333L58.0975 57.8197C56.0358 55.7565 56.7011 53.4254 56.5606 52.4137C56.1108 50.8663 55.9796 47.6524 58.491 45.8471C59.2501 45.3016 60.0747 44.9841 60.9275 44.885ZM54.9582 49.6065H38.6433C37.9311 49.6065 37.9311 48.4559 38.6433 48.4559H54.9582C55.6704 48.4559 55.6704 49.6065 54.9582 49.6065ZM53.7493 53.6734H38.6433C37.9311 53.6734 37.9311 52.5327 38.6433 52.5327H53.7493C54.4615 52.5327 54.4615 53.6734 53.7493 53.6734ZM52.6623 57.7403H38.6433C37.9311 57.7403 37.9311 56.5996 38.6433 56.5996H52.6623C53.3745 56.5996 53.3745 57.7403 52.6623 57.7403ZM50.4882 61.8171H38.6433C37.9311 61.8171 37.9311 60.6665 38.6433 60.6665H50.4882C51.2004 60.6665 51.2004 61.8171 50.4882 61.8171ZM41.3235 47.3945C40.9205 47.3945 40.6487 46.9283 40.8455 46.5514L41.7826 44.7362C41.0423 44.7362 40.1239 44.9147 40.1239 44.1608V31.4741C40.1239 31.1567 40.3675 30.8988 40.658 30.8988H55.3236C55.6235 30.8988 55.8578 31.1567 55.8578 31.4741V44.1608C55.8578 44.4783 55.6235 44.7362 55.3236 44.7362H46.4774C46.1588 44.8155 41.7077 47.3945 41.3235 47.3945ZM41.2016 43.5855H42.7009C43.1039 43.5855 43.3663 44.0517 43.1695 44.4386L42.626 45.49C43.1133 45.2321 46.0651 43.5855 46.3462 43.5855H54.7801V32.0494H41.2016V43.5855ZM57.9287 60.4185C59.2126 63.186 63.7294 63.186 65.0132 60.4185L63.973 58.514C62.4268 59.4861 60.5058 59.4861 58.9689 58.514L57.9287 60.4185ZM52.4842 69.9509H55.7828V64.4557C55.7828 63.7018 56.8605 63.7018 56.8605 64.4557V69.9509H66.2877V64.4557C66.2877 63.7018 67.3747 63.7018 67.3747 64.4557V69.9509H70.6733V65.4575C70.6733 63.0868 68.5929 61.1327 65.9597 60.974C64.2636 64.5251 58.6972 64.535 56.9823 60.9839C54.4709 61.2418 52.4842 63.186 52.4842 65.4575V69.9509ZM63.7763 57.2741C63.8044 57.2543 63.8325 57.2245 63.8606 57.2047C64.7414 56.4607 65.3038 55.32 65.3038 54.0404V52.3641C65.1445 50.0926 64.5353 48.932 63.4951 48.932C62.633 48.932 61.649 49.6462 61.3398 49.914C60.8244 50.3703 60.3933 49.5172 59.2875 49.5172C57.404 49.5172 57.6383 52.989 57.6383 54.0404C57.6383 57.3733 61.2555 59.2877 63.7763 57.2741ZM63.4951 47.7913C64.2354 47.7913 65.0975 48.1087 65.6879 49.2693C65.1444 46.5316 61.6678 44.9544 59.1001 46.7994C58.1537 47.4739 57.7039 48.3765 57.5071 49.2494C58.3973 48.1385 59.6624 48.1881 60.9275 48.8031C61.4148 48.446 62.4362 47.7913 63.4951 47.7913ZM52.6529 35.174H43.3288C42.6166 35.174 42.6166 34.0333 43.3288 34.0333H52.6529C53.3651 34.0333 53.3651 35.174 52.6529 35.174ZM52.6529 38.3878H43.3288C42.6166 38.3878 42.6166 37.2471 43.3288 37.2471H52.6529C53.3651 37.2471 53.3651 38.3878 52.6529 38.3878Z" fill="white" fill-opacity="0.2"/>
</svg>
