<svg width="24" height="24" viewBox="0 0 24 24" fill="none" xmlns="http://www.w3.org/2000/svg">
<path d="M3.91075 9.38266C4.28004 8.24053 4.88839 7.19213 5.69109 6.30364C5.82683 6.15339 6.03978 6.09984 6.23044 6.16802L8.14873 6.85392C8.6688 7.03977 9.24107 6.76883 9.42692 6.24875C9.4452 6.19762 9.45927 6.14507 9.469 6.09173L9.83446 4.08573C9.8708 3.88627 10.024 3.7285 10.2223 3.6863C10.8025 3.5628 11.3973 3.5 12 3.5C12.6023 3.5 13.1968 3.56273 13.7767 3.68607C13.9749 3.72824 14.1281 3.88591 14.1645 4.08529L14.531 6.09165C14.6301 6.63497 15.1509 6.9951 15.6942 6.89601C15.7476 6.88627 15.8002 6.87219 15.8512 6.85395L17.7696 6.16802C17.9602 6.09984 18.1732 6.15339 18.3089 6.30364C19.1116 7.19213 19.72 8.24053 20.0893 9.38266C20.1516 9.57534 20.0915 9.78658 19.9371 9.91764L18.3823 11.2377C17.9613 11.5952 17.9098 12.2263 18.2673 12.6473C18.3024 12.6887 18.3409 12.7271 18.3823 12.7623L19.9371 14.0824C20.0915 14.2134 20.1516 14.4247 20.0893 14.6173C19.72 15.7595 19.1116 16.8079 18.3089 17.6964C18.1732 17.8466 17.9602 17.9002 17.7696 17.832L15.8513 17.1461C15.3312 16.9602 14.759 17.2312 14.5731 17.7512C14.5548 17.8024 14.5408 17.8549 14.531 17.9085L14.1645 19.9147C14.1281 20.1141 13.9749 20.2718 13.7767 20.3139C13.1968 20.4373 12.6023 20.5 12 20.5C11.3973 20.5 10.8025 20.4372 10.2223 20.3137C10.024 20.2715 9.8708 20.1137 9.83446 19.9143L9.46902 17.9084C9.36993 17.365 8.84916 17.0049 8.30583 17.104C8.25241 17.1137 8.19987 17.1278 8.14881 17.1461L6.23044 17.832C6.03978 17.9002 5.82683 17.8466 5.69109 17.6964C4.88839 16.8079 4.28004 15.7595 3.91075 14.6173C3.84845 14.4247 3.90852 14.2134 4.06289 14.0824L5.61773 12.7623C6.03872 12.4048 6.09021 11.7737 5.73274 11.3527C5.69759 11.3113 5.65913 11.2729 5.61775 11.2377L4.06289 9.91764C3.90852 9.78658 3.84845 9.57534 3.91075 9.38266ZM4.9713 9.37709L6.26499 10.4755C6.34778 10.5458 6.42471 10.6227 6.49501 10.7055C7.20995 11.5475 7.10697 12.8096 6.26497 13.5246L4.9713 14.6229C5.26335 15.4051 5.6848 16.1322 6.21623 16.7751L7.81221 16.2044C7.91449 16.1679 8.01958 16.1397 8.12643 16.1202C9.21307 15.922 10.2546 16.6423 10.4528 17.729L10.7568 19.3975C11.1646 19.4655 11.58 19.5 12 19.5C12.4197 19.5 12.8348 19.4656 13.2424 19.3976L13.5472 17.7289C13.5667 17.6221 13.5949 17.517 13.6314 17.4147C14.0031 16.3746 15.1477 15.8327 16.1879 16.2044L17.7838 16.7751C18.3152 16.1322 18.7367 15.4051 19.0287 14.6229L17.735 13.5245C17.6522 13.4542 17.5753 13.3773 17.505 13.2945C16.7901 12.4525 16.8931 11.1904 17.7351 10.4754L19.0287 9.37709C18.7367 8.59486 18.3152 7.86783 17.7838 7.22494L16.1878 7.79559C16.0855 7.83214 15.9804 7.8603 15.8736 7.87979C14.787 8.07796 13.7454 7.3577 13.5473 6.27119L13.2424 4.60235C12.8348 4.53443 12.4197 4.5 12 4.5C11.58 4.5 11.1646 4.53448 10.7568 4.60249L10.4528 6.27105C10.4333 6.37791 10.4051 6.48299 10.3686 6.58527C9.99689 7.62542 8.85236 8.1673 7.81213 7.79556L6.21623 7.22494C5.6848 7.86783 5.26335 8.59486 4.9713 9.37709ZM9.50001 12C9.50001 10.6193 10.6193 9.5 12 9.5C13.3807 9.5 14.5 10.6193 14.5 12C14.5 13.3807 13.3807 14.5 12 14.5C10.6193 14.5 9.50001 13.3807 9.50001 12ZM10.5 12C10.5 12.8284 11.1716 13.5 12 13.5C12.8284 13.5 13.5 12.8284 13.5 12C13.5 11.1716 12.8284 10.5 12 10.5C11.1716 10.5 10.5 11.1716 10.5 12Z" fill="#616161"/>
</svg>
