<svg width="48" height="48" viewBox="0 0 48 48" fill="none" xmlns="http://www.w3.org/2000/svg">
<rect width="48" height="48" rx="24" fill="url(#paint0_linear_9_1988)"/>
<path d="M24 14C29.5228 14 34 18.4772 34 24C34 29.5228 29.5228 34 24 34C18.4772 34 14 29.5228 14 24C14 18.4772 18.4772 14 24 14ZM24 15.5C19.3056 15.5 15.5 19.3056 15.5 24C15.5 28.6944 19.3056 32.5 24 32.5C28.6944 32.5 32.5 28.6944 32.5 24C32.5 19.3056 28.6944 15.5 24 15.5ZM22.75 25.4393L27.2197 20.9697C27.5126 20.6768 27.9874 20.6768 28.2803 20.9697C28.5466 21.2359 28.5708 21.6526 28.3529 21.9462L28.2803 22.0303L23.2803 27.0303C23.0141 27.2966 22.5974 27.3208 22.3038 27.1029L22.2197 27.0303L19.7197 24.5303C19.4268 24.2374 19.4268 23.7626 19.7197 23.4697C19.9859 23.2034 20.4026 23.1792 20.6962 23.3971L20.7803 23.4697L22.75 25.4393L27.2197 20.9697L22.75 25.4393Z" fill="white"/>
<defs>
<linearGradient id="paint0_linear_9_1988" x1="24" y1="0" x2="24" y2="48" gradientUnits="userSpaceOnUse">
<stop stop-color="#FF5600"/>
<stop offset="1" stop-color="#F3C100"/>
</linearGradient>
</defs>
</svg>
