<svg width="32" height="32" viewBox="0 0 32 32" fill="none" xmlns="http://www.w3.org/2000/svg">
<rect x="0.5" y="0.5" width="30.168" height="30.168" rx="15.084" stroke="#00BEE8"/>
<path d="M23.9994 14.584C23.9994 18.45 20.8654 21.584 16.9994 21.584V20.584C20.3131 20.584 22.9994 17.8977 22.9994 14.584C22.9994 11.2703 20.3131 8.58398 16.9994 8.58398C14.0264 8.58398 11.5585 10.7463 11.0824 13.584H10.0703C10.5555 10.1917 13.473 7.58398 16.9994 7.58398C20.8654 7.58398 23.9994 10.718 23.9994 14.584ZM15.9994 14.3479C16.371 14.6804 16.6591 15.1042 16.8287 15.584H19.4994C19.7756 15.584 19.9994 15.3601 19.9994 15.084C19.9994 14.8078 19.7756 14.584 19.4994 14.584H16.9994V11.084C16.9994 10.8078 16.7756 10.584 16.4994 10.584C16.2233 10.584 15.9994 10.8078 15.9994 11.084V14.3479ZM8 16.584C8 15.4794 8.89543 14.584 10 14.584H14C15.1046 14.584 16 15.4794 16 16.584V21.584C16 22.6886 15.1046 23.584 14 23.584H10C8.89543 23.584 8 22.6886 8 21.584V16.584ZM13.5 16.584H10.5C10.2239 16.584 10 16.8078 10 17.084C10 17.3601 10.2239 17.584 10.5 17.584H13.5C13.7761 17.584 14 17.3601 14 17.084C14 16.8078 13.7761 16.584 13.5 16.584ZM13.5 18.584H10.5C10.2239 18.584 10 18.8078 10 19.084C10 19.3601 10.2239 19.584 10.5 19.584H13.5C13.7761 19.584 14 19.3601 14 19.084C14 18.8078 13.7761 18.584 13.5 18.584ZM13.5 20.584H10.5C10.2239 20.584 10 20.8078 10 21.084C10 21.3601 10.2239 21.584 10.5 21.584H13.5C13.7761 21.584 14 21.3601 14 21.084C14 20.8078 13.7761 20.584 13.5 20.584Z" fill="#00BEE8"/>
</svg>
