<svg width="28" height="28" viewBox="0 0 28 28" fill="none" xmlns="http://www.w3.org/2000/svg">
<path d="M20.25 4C21.7688 4 23 5.23122 23 6.75V19L16 26H7.75C6.23122 26 5 24.7688 5 23.25V6.75C5 5.23122 6.23122 4 7.75 4H20.25Z" fill="url(#paint0_linear_9_2470)"/>
<path d="M20.25 4C21.7688 4 23 5.23122 23 6.75V19L16 26H7.75C6.23122 26 5 24.7688 5 23.25V6.75C5 5.23122 6.23122 4 7.75 4H20.25Z" fill="url(#paint1_radial_9_2470)" fill-opacity="0.4"/>
<path d="M20.25 4C21.7688 4 23 5.23122 23 6.75V19L16 26H7.75C6.23122 26 5 24.7688 5 23.25V6.75C5 5.23122 6.23122 4 7.75 4H20.25Z" fill="url(#paint2_radial_9_2470)" fill-opacity="0.4"/>
<path d="M20.25 4C21.7688 4 23 5.23122 23 6.75V19L16 26H7.75C6.23122 26 5 24.7688 5 23.25V6.75C5 5.23122 6.23122 4 7.75 4H20.25Z" fill="url(#paint3_radial_9_2470)" fill-opacity="0.4"/>
<path d="M23.0996 14.6699C23.9922 13.7773 25.4394 13.7773 26.332 14.6699C27.2246 15.5626 27.2246 17.0098 26.332 17.9024L25.3486 18.8848C24.6825 18.6591 24.0201 18.2545 23.4463 17.6807C22.8176 17.052 22.39 16.3177 22.1807 15.5879L23.0996 14.6699Z" fill="url(#paint4_linear_9_2470)"/>
<path d="M16.25 20C16.6642 20 17 20.3358 17 20.75C17 21.1642 16.6642 21.5 16.25 21.5H9.5C9.08579 21.5 8.75 21.1642 8.75 20.75C8.75 20.3358 9.08579 20 9.5 20H16.25ZM14.25 15C14.6642 15 15 15.3358 15 15.75C15 16.1642 14.6642 16.5 14.25 16.5H9.5C9.08579 16.5 8.75 16.1642 8.75 15.75C8.75 15.3358 9.08579 15 9.5 15H14.25ZM18.75 10C19.1642 10 19.5 10.3358 19.5 10.75C19.5 11.1642 19.1642 11.5 18.75 11.5H9.5C9.08579 11.5 8.75 11.1642 8.75 10.75C8.75 10.3358 9.08579 10 9.5 10H18.75Z" fill="url(#paint5_linear_9_2470)" fill-opacity="0.9"/>
<path d="M22.0645 15.707C22.3779 16.3998 22.8505 17.0898 23.4697 17.709C24.0185 18.2577 24.6228 18.6912 25.2354 19.001L18.4326 25.8047C18.3274 25.9099 18.2129 26.0041 18.0928 26.0898L14.9141 22.9111C14.9998 22.791 15.0951 22.6774 15.2002 22.5723L22.0645 15.707Z" fill="url(#paint6_linear_9_2470)"/>
<path d="M22.1836 15.5903C22.3933 16.319 22.8196 17.0525 23.4473 17.6802C24.022 18.2549 24.6863 18.6588 25.3535 18.8843L23.9072 20.3306C23.1823 20.1197 22.4526 19.6953 21.8281 19.0708C21.2503 18.4929 20.8438 17.8247 20.6191 17.1538L22.1836 15.5903Z" fill="url(#paint7_linear_9_2470)"/>
<rect x="9.5" y="2" width="9" height="4" rx="2" fill="url(#paint8_linear_9_2470)"/>
<path d="M15.6569 22.1123C15.8522 22.882 16.29 23.6642 16.9538 24.3281C17.495 24.8693 18.1162 25.2581 18.7438 25.4902L18.4303 25.8047C18.0862 26.1488 17.6544 26.3927 17.1823 26.5107L15.3522 26.9688C14.5562 27.1678 13.8351 26.4464 14.0339 25.6504L14.4919 23.8193C14.6099 23.3473 14.8539 22.9164 15.1979 22.5723L15.6569 22.1123ZM19.0007 18.793C18.9942 18.7913 18.9876 18.7897 18.9811 18.7881L19.0007 18.7695V18.793Z" fill="url(#paint9_linear_9_2470)"/>
<defs>
<linearGradient id="paint0_linear_9_2470" x1="5" y1="4.4" x2="24.306" y2="24.7618" gradientUnits="userSpaceOnUse">
<stop stop-color="#36DFF1"/>
<stop offset="1" stop-color="#0094F0"/>
</linearGradient>
<radialGradient id="paint1_radial_9_2470" cx="0" cy="0" r="1" gradientUnits="userSpaceOnUse" gradientTransform="translate(14 2.77778) scale(7.3125 6.65892)">
<stop stop-color="#0A1852"/>
<stop offset="1" stop-color="#0A1852" stop-opacity="0"/>
</radialGradient>
<radialGradient id="paint2_radial_9_2470" cx="0" cy="0" r="1" gradientUnits="userSpaceOnUse" gradientTransform="translate(14 2.77778) scale(7.3125 7.51167)">
<stop stop-color="#0A1852"/>
<stop offset="1" stop-color="#0A1852" stop-opacity="0"/>
</radialGradient>
<radialGradient id="paint3_radial_9_2470" cx="0" cy="0" r="1" gradientTransform="matrix(-8.4375 8.55556 -3.5296 -4.10853 20.1875 19.8889)" gradientUnits="userSpaceOnUse">
<stop stop-color="#0A1852"/>
<stop offset="1" stop-color="#0A1852" stop-opacity="0"/>
</radialGradient>
<linearGradient id="paint4_linear_9_2470" x1="25.9931" y1="15.0166" x2="24.194" y2="16.6864" gradientUnits="userSpaceOnUse">
<stop stop-color="#F97DBD"/>
<stop offset="1" stop-color="#DD3CE2"/>
</linearGradient>
<linearGradient id="paint5_linear_9_2470" x1="15.4687" y1="21.5" x2="6.86419" y2="11.6468" gradientUnits="userSpaceOnUse">
<stop stop-color="#9DEAFF"/>
<stop offset="1" stop-color="white"/>
</linearGradient>
<linearGradient id="paint6_linear_9_2470" x1="18.1417" y1="16.9067" x2="24.1054" y2="22.8766" gradientUnits="userSpaceOnUse">
<stop stop-color="#FFA43D"/>
<stop offset="1" stop-color="#FB5937"/>
</linearGradient>
<linearGradient id="paint7_linear_9_2470" x1="20.1426" y1="21.9137" x2="16.5226" y2="20.4121" gradientUnits="userSpaceOnUse">
<stop stop-color="#FF921F"/>
<stop offset="1" stop-color="#FFE994"/>
</linearGradient>
<linearGradient id="paint8_linear_9_2470" x1="14" y1="2" x2="14" y2="6" gradientUnits="userSpaceOnUse">
<stop stop-color="#FFE06B"/>
<stop offset="1" stop-color="#FAB500"/>
</linearGradient>
<linearGradient id="paint9_linear_9_2470" x1="13.2304" y1="23.2359" x2="16.9928" y2="27.0854" gradientUnits="userSpaceOnUse">
<stop offset="0.255" stop-color="#FFD394"/>
<stop offset="1" stop-color="#FF921F"/>
</linearGradient>
</defs>
</svg>
