<svg width="20" height="20" viewBox="0 0 20 20" fill="none" xmlns="http://www.w3.org/2000/svg">
<path d="M3 5.24941C3 4.55938 3.55917 4 4.24895 4H4.74852C5.4383 4 5.99747 4.55938 5.99747 5.24941V14.745C5.99747 15.435 5.4383 15.9944 4.74852 15.9944H4.24895C3.55917 15.9944 3 15.435 3 14.745V5.24941ZM4.24895 4.99953C4.11099 4.99953 3.99916 5.11141 3.99916 5.24941V14.745C3.99916 14.883 4.11099 14.9948 4.24895 14.9948H4.74852C4.88648 14.9948 4.99831 14.883 4.99831 14.745V5.24941C4.99831 5.11141 4.88648 4.99953 4.74852 4.99953H4.24895ZM6.99663 5.24941C6.99663 4.55938 7.5558 4 8.24557 4H8.74515C9.43492 4 9.9941 4.55938 9.9941 5.24941V14.745C9.9941 15.435 9.43492 15.9944 8.74515 15.9944H8.24557C7.5558 15.9944 6.99663 15.435 6.99663 14.745V5.24941ZM8.24557 4.99953C8.10762 4.99953 7.99578 5.11141 7.99578 5.24941V14.745C7.99578 14.883 8.10762 14.9948 8.24557 14.9948H8.74515C8.88311 14.9948 8.99494 14.883 8.99494 14.745V5.24941C8.99494 5.11141 8.88311 4.99953 8.74515 4.99953H8.24557ZM13.9723 6.77682C13.7231 6.15733 13.0311 5.84331 12.4011 6.06385L11.8189 6.26764C11.1466 6.50297 10.8068 7.25222 11.0727 7.91326L14.0098 15.2166C14.2589 15.8361 14.9509 16.1502 15.581 15.9296L16.1632 15.7258C16.8355 15.4904 17.1752 14.7412 16.9093 14.0802L13.9723 6.77682ZM12.7311 7.00729C12.8571 6.96318 12.9955 7.02598 13.0453 7.14988L15.9824 14.4532C16.0356 14.5854 15.9676 14.7353 15.8332 14.7823L15.251 14.9862C15.1249 15.0303 14.9865 14.9675 14.9367 14.8436L11.9996 7.5402C11.9465 7.40799 12.0144 7.25815 12.1489 7.21108L12.7311 7.00729Z" fill="#242424"/>
</svg>
