<svg width="20" height="20" viewBox="0 0 20 20" fill="none" xmlns="http://www.w3.org/2000/svg">
<path d="M4.24897 4C3.55918 4 3 4.55938 3 5.2494V14.7448C3 15.4349 3.55918 15.9942 4.24897 15.9942H4.74855C5.43834 15.9942 5.99752 15.4349 5.99752 14.7448V5.2494C5.99752 4.55938 5.43834 4 4.74855 4H4.24897ZM8.24566 4C7.55588 4 6.9967 4.55938 6.9967 5.2494V14.7448C6.9967 15.4349 7.55588 15.9942 8.24566 15.9942H8.74525C9.43504 15.9942 9.99422 15.4349 9.99422 14.7448V5.2494C9.99422 4.55938 9.43504 4 8.74525 4H8.24566ZM13.9722 6.77692C13.7231 6.15743 13.031 5.84341 12.401 6.06395L11.8188 6.26774C11.1465 6.50307 10.8067 7.2523 11.0726 7.91334L14.0097 15.2166C14.2588 15.8361 14.9509 16.1502 15.581 15.9296L16.1632 15.7258C16.8355 15.4904 17.1752 14.7412 16.9093 14.0802L13.9722 6.77692Z" fill="#242424"/>
<path d="M4.24897 4C3.55918 4 3 4.55938 3 5.2494V14.7448C3 15.4349 3.55918 15.9942 4.24897 15.9942H4.74855C5.43834 15.9942 5.99752 15.4349 5.99752 14.7448V5.2494C5.99752 4.55938 5.43834 4 4.74855 4H4.24897ZM8.24566 4C7.55588 4 6.9967 4.55938 6.9967 5.2494V14.7448C6.9967 15.4349 7.55588 15.9942 8.24566 15.9942H8.74525C9.43504 15.9942 9.99422 15.4349 9.99422 14.7448V5.2494C9.99422 4.55938 9.43504 4 8.74525 4H8.24566ZM13.9722 6.77692C13.7231 6.15743 13.031 5.84341 12.401 6.06395L11.8188 6.26774C11.1465 6.50307 10.8067 7.2523 11.0726 7.91334L14.0097 15.2166C14.2588 15.8361 14.9509 16.1502 15.581 15.9296L16.1632 15.7258C16.8355 15.4904 17.1752 14.7412 16.9093 14.0802L13.9722 6.77692Z" fill="url(#paint0_radial_7_5494)"/>
<defs>
<radialGradient id="paint0_radial_7_5494" cx="0" cy="0" r="1" gradientTransform="matrix(15.75 15 -23.2489 16.0823 2.25 1.92308)" gradientUnits="userSpaceOnUse">
<stop offset="0.0661714" stop-color="#8C48FF"/>
<stop offset="0.5" stop-color="#F2598A"/>
<stop offset="0.895833" stop-color="#FFB152"/>
</radialGradient>
</defs>
</svg>
