<svg width="24" height="24" viewBox="0 0 24 24" fill="none" xmlns="http://www.w3.org/2000/svg">
<path d="M15.8911 3.04776C17.2885 1.65015 19.5543 1.65009 20.9519 3.04761C22.3493 4.44501 22.3493 6.71064 20.952 8.10812L20.0606 8.99966C21.3252 10.2693 21.3236 12.3236 20.0559 13.5912L18.2725 15.3746C17.9796 15.6675 17.5048 15.6675 17.2119 15.3746C16.919 15.0817 16.919 14.6069 17.2119 14.314L18.9953 12.5305C19.6771 11.8487 19.6787 10.7442 19 10.0604L9.00191 20.0596C8.59546 20.4661 8.08418 20.7518 7.52498 20.885L2.92373 21.9805C2.67037 22.0408 2.40385 21.9654 2.21968 21.7812C2.03552 21.5971 1.96009 21.3306 2.02041 21.0772L3.116 16.4757C3.2491 15.9167 3.5347 15.4056 3.94103 14.9992L15.8911 3.04776Z" fill="#616161"/>
</svg>
