<svg width="100" height="100" viewBox="0 0 100 100" fill="none" xmlns="http://www.w3.org/2000/svg">
<path d="M46.0552 2.23591C48.5022 0.848953 51.4978 0.848953 53.9448 2.23591L71.75 12.3279L89.3925 22.7017C91.8172 24.1273 93.315 26.7216 93.3373 29.5343L93.5 50L93.3373 70.4657C93.315 73.2784 91.8172 75.8727 89.3925 77.2983L71.75 87.6721L53.9448 97.7641C51.4978 99.151 48.5022 99.151 46.0552 97.7641L28.25 87.6721L10.6075 77.2983C8.18285 75.8727 6.68505 73.2784 6.66269 70.4657L6.5 50L6.66269 29.5343C6.68505 26.7216 8.18285 24.1273 10.6075 22.7017L28.25 12.3279L46.0552 2.23591Z" fill="#A7B2A9"/>
<path d="M44.4264 42.9279V38.1849C44.4264 37.3194 45.6802 37.3194 45.6802 38.1849V42.9279H53.8022V38.1849C53.8022 37.3194 55.056 37.3194 55.056 38.1849V42.9279H57.7162V39.0735C57.7162 37.0655 55.9609 35.4153 53.7369 35.2307C52.1342 38.3811 47.1738 38.3926 45.5603 35.2537C43.4343 35.5076 41.7662 37.1578 41.7662 39.0735V42.9279H44.4264ZM65.1732 46.9899H34.3092C33.9713 46.9899 33.6878 46.6899 33.6878 46.3206V43.5972C33.6878 43.2279 33.9713 42.9279 34.3092 42.9279H40.5125V39.0735C40.5125 36.3847 42.7039 34.1805 45.5712 33.9151L46.4542 32.288C44.6554 30.3954 45.255 28.4797 45.1132 27.4527C44.7099 26.0332 44.6008 23.0905 46.9121 21.4519C48.9617 19.9863 51.4365 20.5286 52.7447 21.5672C55.0887 23.4483 54.7398 26.1948 54.1729 27.5104C54.0312 28.2605 54.6745 30.3492 52.8429 32.288L53.715 33.892C56.6477 34.0766 58.9699 36.3385 58.9699 39.0735V42.9279H65.1732C65.5111 42.9279 65.7946 43.2279 65.7946 43.5972V46.3206C65.7946 46.6899 65.5111 46.9899 65.1732 46.9899ZM34.9415 45.6628H64.5409V44.2665H34.9415V45.6628ZM58.0323 70.5547H28.6401C28.2912 70.5547 28.0078 70.2547 28.0078 69.8854V65.5232C28.0078 62.9267 30.1228 60.7918 32.892 60.5264L33.7314 58.98C32.0088 57.1567 32.5867 55.3334 32.445 54.3294C32.0634 52.9446 31.9544 50.1058 34.1893 48.5017C36.1735 47.0823 38.5719 47.6246 39.8366 48.6286C42.1151 50.4404 41.7663 53.0946 41.232 54.3871C41.0794 55.1141 41.7009 57.1106 39.9456 58.98L40.7742 60.5033C41.69 60.561 42.5622 60.8264 43.3253 61.288C44.0231 60.8726 44.8298 60.6072 45.702 60.5264L46.5414 58.98C44.8189 57.1567 45.3967 55.3334 45.255 54.3179C44.8734 52.9331 44.7644 50.1058 46.9993 48.5017C48.9835 47.0823 51.382 47.6246 52.6575 48.6286C54.9252 50.4404 54.5763 53.0946 54.0421 54.3871C53.8894 55.1141 54.5218 57.1106 52.7556 58.98L53.5842 60.5033C54.5218 60.5726 55.4048 60.8495 56.1462 61.288C56.8657 60.8726 57.6725 60.6072 58.512 60.5264L59.3514 58.98C57.6289 57.1567 58.2067 55.3334 58.065 54.3294C57.6834 52.9446 57.5744 50.1058 59.8094 48.5017C61.7935 47.0823 64.192 47.6246 65.4676 48.6286C67.7352 50.4404 67.3972 53.0946 66.8521 54.3756C66.7104 55.1141 67.3318 57.1106 65.5657 58.98L66.4051 60.5033C69.2288 60.688 71.4746 62.869 71.4746 65.5232V69.8854C71.4746 70.2547 71.1912 70.5547 70.8423 70.5547H58.0323ZM40.8941 64.6924C41.0686 63.7461 41.5264 62.8806 42.1915 62.1882C41.7554 62.0035 41.2866 61.8881 40.796 61.842C39.237 64.877 34.4619 64.8885 32.8811 61.865C30.8533 62.1189 29.2615 63.6884 29.2615 65.5232V69.216H31.7799V64.6577C31.7799 63.8038 33.0337 63.8038 33.0337 64.6577V69.216H40.8178C40.8178 68.489 40.7415 65.6963 40.8723 64.8078L40.8941 64.6924ZM46.7812 61.1957C47.8606 63.3422 51.4365 63.3422 52.5158 61.1957L51.7418 59.7878C50.4771 60.5149 48.8199 60.5149 47.5553 59.7878L46.7812 61.1957ZM58.6101 64.8539C58.7409 65.7194 58.6646 68.2236 58.6646 69.216H66.4487V64.6577C66.4487 63.8038 67.7025 63.8038 67.7025 64.6577V69.216H70.2209V65.5232C70.2209 63.6076 68.5529 62.0266 66.427 61.842C64.8571 64.877 60.0819 64.8885 58.512 61.865C58.0868 61.9112 57.6725 62.0266 57.28 62.1882C58.0105 62.9383 58.4575 63.8499 58.6101 64.8539ZM42.0824 69.216H44.5899V64.6577C44.5899 63.8038 45.8437 63.8038 45.8437 64.6577V69.216H53.6278V64.6577C53.6278 63.8038 54.8925 63.8038 54.8925 64.6577V69.216H57.4C57.4 68.189 57.509 65.4079 57.2691 64.5885C56.7894 62.9729 55.1868 61.9805 53.606 61.842C52.047 64.877 47.2719 64.8885 45.702 61.865C43.6633 62.1189 42.0824 63.6884 42.0824 65.5232V69.216ZM51.5237 58.3569C51.5456 58.3223 51.5782 58.2992 51.6109 58.2761C52.832 57.3414 52.832 55.7142 52.7774 54.2602C52.6575 52.4138 52.1888 51.479 51.3929 51.479C50.2155 51.479 49.6049 52.7369 48.9399 52.3561C46.3234 50.902 46.5196 54.2486 46.5196 55.7027C46.5196 58.4261 49.4741 59.9725 51.5237 58.3569ZM59.6022 61.1957C60.6706 63.3422 64.2465 63.3422 65.3258 61.1957L64.5518 59.7878C63.2871 60.5149 61.6409 60.5149 60.3654 59.7878L59.6022 61.1957ZM64.3338 58.3569C64.3665 58.3223 64.3883 58.2992 64.421 58.2761C65.6529 57.3414 65.642 55.7258 65.5984 54.2717C65.4676 52.4253 64.9988 51.479 64.2029 51.479C63.0364 51.479 62.4258 52.7369 61.7499 52.3561C59.1334 50.902 59.3296 54.2717 59.3296 55.7027C59.3296 58.4261 62.2951 59.9725 64.3338 58.3569ZM33.9712 61.1957C35.0505 63.3422 38.6264 63.3422 39.6949 61.1957L38.9317 59.7878C37.6671 60.5149 36.0099 60.5149 34.7453 59.7878L33.9712 61.1957ZM38.7136 58.3569C38.7354 58.3223 38.7682 58.2992 38.8009 58.2761C40.022 57.3414 40.0219 55.7257 39.9674 54.2602C39.8475 52.4138 39.3788 51.479 38.572 51.479C37.3946 51.479 36.8058 52.7369 36.1299 52.3561C33.5134 50.902 33.6987 54.2486 33.6987 55.7027C33.6987 58.4261 36.664 59.9725 38.7136 58.3569ZM36.8494 48.9518C35.5957 48.9518 34.2656 49.8172 33.775 51.0059C34.3855 50.5789 35.3013 50.5096 36.3588 50.9943C37.2201 50.3712 38.7573 49.6903 39.9021 50.602C39.4333 49.8403 38.4521 48.9518 36.8494 48.9518ZM62.4695 48.9518C61.2266 48.9518 59.8966 49.8172 59.406 51.0059C60.0165 50.5789 60.9322 50.5096 61.9788 50.9943C62.8183 50.3943 64.41 49.7018 65.522 50.602C65.0641 49.8403 64.0721 48.9518 62.4695 48.9518ZM46.6504 34.5844C47.7733 36.8463 51.5237 36.8463 52.6357 34.5844L51.8289 33.0842C50.5098 33.8574 48.7872 33.8574 47.4681 33.0842L46.6504 34.5844ZM51.6 31.6532L51.6981 31.584C52.9737 30.6031 52.9737 28.9183 52.9192 27.395C52.7884 25.4678 52.2978 24.4869 51.4474 24.4869C50.0519 24.4869 49.6594 25.814 48.929 25.3985C46.1816 23.8753 46.3779 27.3719 46.3779 28.8836C46.3779 31.734 49.4741 33.3496 51.6 31.6532ZM49.6595 48.9518C48.4166 48.9518 47.0756 49.8172 46.585 51.0059C47.1956 50.5789 48.1113 50.5096 49.1688 50.9943C50.0301 50.3712 51.5782 49.6903 52.7121 50.602C52.2542 49.8403 51.2621 48.9518 49.6595 48.9518ZM49.6595 21.8673C48.3185 21.8673 46.9121 22.8136 46.4215 24.0945C47.2064 23.4944 48.2204 23.5983 49.1471 24.0368C50.0737 23.3675 51.7418 22.6405 52.9192 23.7137C52.4395 22.8482 51.3711 21.8673 49.6595 21.8673Z" fill="white"/>
<path d="M44.4264 42.9279V38.1849C44.4264 37.3194 45.6802 37.3194 45.6802 38.1849V42.9279H53.8022V38.1849C53.8022 37.3194 55.056 37.3194 55.056 38.1849V42.9279H57.7162V39.0735C57.7162 37.0655 55.9609 35.4153 53.7369 35.2307C52.1342 38.3811 47.1738 38.3926 45.5603 35.2537C43.4343 35.5076 41.7662 37.1578 41.7662 39.0735V42.9279H44.4264ZM65.1732 46.9899H34.3092C33.9713 46.9899 33.6878 46.6899 33.6878 46.3206V43.5972C33.6878 43.2279 33.9713 42.9279 34.3092 42.9279H40.5125V39.0735C40.5125 36.3847 42.7039 34.1805 45.5712 33.9151L46.4542 32.288C44.6554 30.3954 45.255 28.4797 45.1132 27.4527C44.7099 26.0332 44.6008 23.0905 46.9121 21.4519C48.9617 19.9863 51.4365 20.5286 52.7447 21.5672C55.0887 23.4483 54.7398 26.1948 54.1729 27.5104C54.0312 28.2605 54.6745 30.3492 52.8429 32.288L53.715 33.892C56.6477 34.0766 58.9699 36.3385 58.9699 39.0735V42.9279H65.1732C65.5111 42.9279 65.7946 43.2279 65.7946 43.5972V46.3206C65.7946 46.6899 65.5111 46.9899 65.1732 46.9899ZM34.9415 45.6628H64.5409V44.2665H34.9415V45.6628ZM58.0323 70.5547H28.6401C28.2912 70.5547 28.0078 70.2547 28.0078 69.8854V65.5232C28.0078 62.9267 30.1228 60.7918 32.892 60.5264L33.7314 58.98C32.0088 57.1567 32.5867 55.3334 32.445 54.3294C32.0634 52.9446 31.9544 50.1058 34.1893 48.5017C36.1735 47.0823 38.5719 47.6246 39.8366 48.6286C42.1151 50.4404 41.7663 53.0946 41.232 54.3871C41.0794 55.1141 41.7009 57.1106 39.9456 58.98L40.7742 60.5033C41.69 60.561 42.5622 60.8264 43.3253 61.288C44.0231 60.8726 44.8298 60.6072 45.702 60.5264L46.5414 58.98C44.8189 57.1567 45.3967 55.3334 45.255 54.3179C44.8734 52.9331 44.7644 50.1058 46.9993 48.5017C48.9835 47.0823 51.382 47.6246 52.6575 48.6286C54.9252 50.4404 54.5763 53.0946 54.0421 54.3871C53.8894 55.1141 54.5218 57.1106 52.7556 58.98L53.5842 60.5033C54.5218 60.5726 55.4048 60.8495 56.1462 61.288C56.8657 60.8726 57.6725 60.6072 58.512 60.5264L59.3514 58.98C57.6289 57.1567 58.2067 55.3334 58.065 54.3294C57.6834 52.9446 57.5744 50.1058 59.8094 48.5017C61.7935 47.0823 64.192 47.6246 65.4676 48.6286C67.7352 50.4404 67.3972 53.0946 66.8521 54.3756C66.7104 55.1141 67.3318 57.1106 65.5657 58.98L66.4051 60.5033C69.2288 60.688 71.4746 62.869 71.4746 65.5232V69.8854C71.4746 70.2547 71.1912 70.5547 70.8423 70.5547H58.0323ZM40.8941 64.6924C41.0686 63.7461 41.5264 62.8806 42.1915 62.1882C41.7554 62.0035 41.2866 61.8881 40.796 61.842C39.237 64.877 34.4619 64.8885 32.8811 61.865C30.8533 62.1189 29.2615 63.6884 29.2615 65.5232V69.216H31.7799V64.6577C31.7799 63.8038 33.0337 63.8038 33.0337 64.6577V69.216H40.8178C40.8178 68.489 40.7415 65.6963 40.8723 64.8078L40.8941 64.6924ZM46.7812 61.1957C47.8606 63.3422 51.4365 63.3422 52.5158 61.1957L51.7418 59.7878C50.4771 60.5149 48.8199 60.5149 47.5553 59.7878L46.7812 61.1957ZM58.6101 64.8539C58.7409 65.7194 58.6646 68.2236 58.6646 69.216H66.4487V64.6577C66.4487 63.8038 67.7025 63.8038 67.7025 64.6577V69.216H70.2209V65.5232C70.2209 63.6076 68.5529 62.0266 66.427 61.842C64.8571 64.877 60.0819 64.8885 58.512 61.865C58.0868 61.9112 57.6725 62.0266 57.28 62.1882C58.0105 62.9383 58.4575 63.8499 58.6101 64.8539ZM42.0824 69.216H44.5899V64.6577C44.5899 63.8038 45.8437 63.8038 45.8437 64.6577V69.216H53.6278V64.6577C53.6278 63.8038 54.8925 63.8038 54.8925 64.6577V69.216H57.4C57.4 68.189 57.509 65.4079 57.2691 64.5885C56.7894 62.9729 55.1868 61.9805 53.606 61.842C52.047 64.877 47.2719 64.8885 45.702 61.865C43.6633 62.1189 42.0824 63.6884 42.0824 65.5232V69.216ZM51.5237 58.3569C51.5456 58.3223 51.5782 58.2992 51.6109 58.2761C52.832 57.3414 52.832 55.7142 52.7774 54.2602C52.6575 52.4138 52.1888 51.479 51.3929 51.479C50.2155 51.479 49.6049 52.7369 48.9399 52.3561C46.3234 50.902 46.5196 54.2486 46.5196 55.7027C46.5196 58.4261 49.4741 59.9725 51.5237 58.3569ZM59.6022 61.1957C60.6706 63.3422 64.2465 63.3422 65.3258 61.1957L64.5518 59.7878C63.2871 60.5149 61.6409 60.5149 60.3654 59.7878L59.6022 61.1957ZM64.3338 58.3569C64.3665 58.3223 64.3883 58.2992 64.421 58.2761C65.6529 57.3414 65.642 55.7258 65.5984 54.2717C65.4676 52.4253 64.9988 51.479 64.2029 51.479C63.0364 51.479 62.4258 52.7369 61.7499 52.3561C59.1334 50.902 59.3296 54.2717 59.3296 55.7027C59.3296 58.4261 62.2951 59.9725 64.3338 58.3569ZM33.9712 61.1957C35.0505 63.3422 38.6264 63.3422 39.6949 61.1957L38.9317 59.7878C37.6671 60.5149 36.0099 60.5149 34.7453 59.7878L33.9712 61.1957ZM38.7136 58.3569C38.7354 58.3223 38.7682 58.2992 38.8009 58.2761C40.022 57.3414 40.0219 55.7257 39.9674 54.2602C39.8475 52.4138 39.3788 51.479 38.572 51.479C37.3946 51.479 36.8058 52.7369 36.1299 52.3561C33.5134 50.902 33.6987 54.2486 33.6987 55.7027C33.6987 58.4261 36.664 59.9725 38.7136 58.3569ZM36.8494 48.9518C35.5957 48.9518 34.2656 49.8172 33.775 51.0059C34.3855 50.5789 35.3013 50.5096 36.3588 50.9943C37.2201 50.3712 38.7573 49.6903 39.9021 50.602C39.4333 49.8403 38.4521 48.9518 36.8494 48.9518ZM62.4695 48.9518C61.2266 48.9518 59.8966 49.8172 59.406 51.0059C60.0165 50.5789 60.9322 50.5096 61.9788 50.9943C62.8183 50.3943 64.41 49.7018 65.522 50.602C65.0641 49.8403 64.0721 48.9518 62.4695 48.9518ZM46.6504 34.5844C47.7733 36.8463 51.5237 36.8463 52.6357 34.5844L51.8289 33.0842C50.5098 33.8574 48.7872 33.8574 47.4681 33.0842L46.6504 34.5844ZM51.6 31.6532L51.6981 31.584C52.9737 30.6031 52.9737 28.9183 52.9192 27.395C52.7884 25.4678 52.2978 24.4869 51.4474 24.4869C50.0519 24.4869 49.6594 25.814 48.929 25.3985C46.1816 23.8753 46.3779 27.3719 46.3779 28.8836C46.3779 31.734 49.4741 33.3496 51.6 31.6532ZM49.6595 48.9518C48.4166 48.9518 47.0756 49.8172 46.585 51.0059C47.1956 50.5789 48.1113 50.5096 49.1688 50.9943C50.0301 50.3712 51.5782 49.6903 52.7121 50.602C52.2542 49.8403 51.2621 48.9518 49.6595 48.9518ZM49.6595 21.8673C48.3185 21.8673 46.9121 22.8136 46.4215 24.0945C47.2064 23.4944 48.2204 23.5983 49.1471 24.0368C50.0737 23.3675 51.7418 22.6405 52.9192 23.7137C52.4395 22.8482 51.3711 21.8673 49.6595 21.8673Z" fill="white" fill-opacity="0.2"/>
</svg>
