<svg width="100" height="100" viewBox="0 0 100 100" fill="none" xmlns="http://www.w3.org/2000/svg">
<path d="M46.0552 2.23591C48.5022 0.848953 51.4978 0.848953 53.9448 2.23591L71.75 12.3279L89.3925 22.7017C91.8172 24.1273 93.315 26.7216 93.3373 29.5343L93.5 50L93.3373 70.4657C93.315 73.2784 91.8172 75.8727 89.3925 77.2983L71.75 87.6721L53.9448 97.7641C51.4978 99.151 48.5022 99.151 46.0552 97.7641L28.25 87.6721L10.6075 77.2983C8.18285 75.8727 6.68505 73.2784 6.66269 70.4657L6.5 50L6.66269 29.5343C6.68505 26.7216 8.18285 24.1273 10.6075 22.7017L28.25 12.3279L46.0552 2.23591Z" fill="#C64545"/>
<path d="M41.0349 46.4924C40.5691 46.4924 40.1914 46.0927 40.1914 45.5995C40.1914 29.0923 49.6244 25.2717 50.0251 25.1172C50.4625 24.9476 50.947 25.1854 51.1073 25.6485C51.2675 26.1115 51.0429 26.6244 50.6054 26.794C50.2486 26.9387 41.8784 30.4083 41.8784 45.5995C41.8784 46.0927 41.5008 46.4924 41.0349 46.4924Z" fill="white"/>
<path d="M41.0349 46.4924C40.5691 46.4924 40.1914 46.0927 40.1914 45.5995C40.1914 29.0923 49.6244 25.2717 50.0251 25.1172C50.4625 24.9476 50.947 25.1854 51.1073 25.6485C51.2675 26.1115 51.0429 26.6244 50.6054 26.794C50.2486 26.9387 41.8784 30.4083 41.8784 45.5995C41.8784 46.0927 41.5008 46.4924 41.0349 46.4924Z" fill="white" fill-opacity="0.2"/>
<path d="M76.4627 46.4922C76.2802 46.4922 76.1026 46.4296 75.9566 46.3136C71.1397 42.9802 64.9156 42.9802 60.0986 46.3136C59.8244 46.5307 59.4534 46.5508 59.1597 46.3645C56.4454 44.7799 53.4124 43.9054 50.3138 43.8136C47.2155 43.9058 44.1828 44.7807 41.4688 46.3654C41.1743 46.5502 40.8039 46.5297 40.5292 46.3136C35.7122 42.9802 29.4881 42.9802 24.6711 46.3136C24.2985 46.6096 23.7698 46.5299 23.4902 46.1355C23.3339 45.915 23.2825 45.6305 23.351 45.3645C23.4059 45.161 28.8304 25.0635 50.3138 25.0635C71.7972 25.0635 77.2219 45.161 77.2767 45.3645C77.3992 45.8403 77.1342 46.3311 76.6847 46.4608C76.6124 46.4817 76.5377 46.4922 76.4627 46.4922ZM50.3138 42.0279C53.5356 42.1015 56.6972 42.9662 59.5494 44.5538C62.1018 42.9015 65.0357 42.0274 68.0276 42.0279C70.4023 42.031 72.748 42.5793 74.903 43.635C72.9199 38.6207 66.5329 26.8492 50.3138 26.8492C34.0948 26.8492 27.7077 38.6207 25.7246 43.635C27.8796 42.5793 30.2255 42.031 32.6001 42.0279C35.592 42.0274 38.5259 42.9015 41.0782 44.5538C43.9305 42.9662 47.0921 42.1015 50.3138 42.0279Z" fill="white"/>
<path d="M76.4627 46.4922C76.2802 46.4922 76.1026 46.4296 75.9566 46.3136C71.1397 42.9802 64.9156 42.9802 60.0986 46.3136C59.8244 46.5307 59.4534 46.5508 59.1597 46.3645C56.4454 44.7799 53.4124 43.9054 50.3138 43.8136C47.2155 43.9058 44.1828 44.7807 41.4688 46.3654C41.1743 46.5502 40.8039 46.5297 40.5292 46.3136C35.7122 42.9802 29.4881 42.9802 24.6711 46.3136C24.2985 46.6096 23.7698 46.5299 23.4902 46.1355C23.3339 45.915 23.2825 45.6305 23.351 45.3645C23.4059 45.161 28.8304 25.0635 50.3138 25.0635C71.7972 25.0635 77.2219 45.161 77.2767 45.3645C77.3992 45.8403 77.1342 46.3311 76.6847 46.4608C76.6124 46.4817 76.5377 46.4922 76.4627 46.4922ZM50.3138 42.0279C53.5356 42.1015 56.6972 42.9662 59.5494 44.5538C62.1018 42.9015 65.0357 42.0274 68.0276 42.0279C70.4023 42.031 72.748 42.5793 74.903 43.635C72.9199 38.6207 66.5329 26.8492 50.3138 26.8492C34.0948 26.8492 27.7077 38.6207 25.7246 43.635C27.8796 42.5793 30.2255 42.031 32.6001 42.0279C35.592 42.0274 38.5259 42.9015 41.0782 44.5538C43.9305 42.9662 47.0921 42.1015 50.3138 42.0279Z" fill="white" fill-opacity="0.2"/>
<path d="M59.5932 46.4927C59.1274 46.4927 58.7497 46.093 58.7497 45.5999C58.7497 30.3319 50.1139 26.8301 50.0262 26.7961C49.5883 26.6275 49.3625 26.115 49.5218 25.6515C49.6811 25.1879 50.1652 24.9489 50.6031 25.1175C51.0038 25.272 60.4368 29.0926 60.4368 45.5999C60.4368 46.093 60.0591 46.4927 59.5932 46.4927Z" fill="white"/>
<path d="M59.5932 46.4927C59.1274 46.4927 58.7497 46.093 58.7497 45.5999C58.7497 30.3319 50.1139 26.8301 50.0262 26.7961C49.5883 26.6275 49.3625 26.115 49.5218 25.6515C49.6811 25.1879 50.1652 24.9489 50.6031 25.1175C51.0038 25.272 60.4368 29.0926 60.4368 45.5999C60.4368 46.093 60.0591 46.4927 59.5932 46.4927Z" fill="white" fill-opacity="0.2"/>
<path d="M50.3142 26.8498C49.8484 26.8498 49.4707 26.45 49.4707 25.9569V24.1712C49.4707 23.6781 49.8484 23.2783 50.3142 23.2783C50.7801 23.2783 51.1577 23.6781 51.1577 24.1712V25.9569C51.1577 26.45 50.7801 26.8498 50.3142 26.8498Z" fill="white"/>
<path d="M50.3142 26.8498C49.8484 26.8498 49.4707 26.45 49.4707 25.9569V24.1712C49.4707 23.6781 49.8484 23.2783 50.3142 23.2783C50.7801 23.2783 51.1577 23.6781 51.1577 24.1712V25.9569C51.1577 26.45 50.7801 26.8498 50.3142 26.8498Z" fill="white" fill-opacity="0.2"/>
<path d="M65.2444 73.2779H35.3841C33.8468 73.2802 32.5988 71.9629 32.5967 70.3356C32.5959 69.7512 32.7594 69.1798 33.0662 68.694L46.9841 46.5893C48.2085 44.646 50.6894 44.1212 52.5253 45.4172C52.9639 45.7268 53.3402 46.1252 53.6327 46.5893L67.5506 68.6931C68.4055 70.0456 68.0626 71.8756 66.7849 72.7804C66.3289 73.1033 65.793 73.2764 65.2444 73.2779ZM50.3143 46.492C49.5422 46.4912 48.8211 46.8998 48.3937 47.5804L34.4757 69.6842C34.1379 70.2163 34.2716 70.9374 34.7743 71.295C34.9546 71.4232 35.1669 71.4919 35.3841 71.4922H65.2444C65.85 71.495 66.3431 70.9776 66.3457 70.3365C66.3467 70.1039 66.2815 69.8763 66.1588 69.6833L52.2409 47.5804C51.8123 46.898 51.0884 46.4891 50.3143 46.492Z" fill="white"/>
<path d="M65.2444 73.2779H35.3841C33.8468 73.2802 32.5988 71.9629 32.5967 70.3356C32.5959 69.7512 32.7594 69.1798 33.0662 68.694L46.9841 46.5893C48.2085 44.646 50.6894 44.1212 52.5253 45.4172C52.9639 45.7268 53.3402 46.1252 53.6327 46.5893L67.5506 68.6931C68.4055 70.0456 68.0626 71.8756 66.7849 72.7804C66.3289 73.1033 65.793 73.2764 65.2444 73.2779ZM50.3143 46.492C49.5422 46.4912 48.8211 46.8998 48.3937 47.5804L34.4757 69.6842C34.1379 70.2163 34.2716 70.9374 34.7743 71.295C34.9546 71.4232 35.1669 71.4919 35.3841 71.4922H65.2444C65.85 71.495 66.3431 70.9776 66.3457 70.3365C66.3467 70.1039 66.2815 69.8763 66.1588 69.6833L52.2409 47.5804C51.8123 46.898 51.0884 46.4891 50.3143 46.492Z" fill="white" fill-opacity="0.2"/>
<path d="M52.0008 63.4566H48.6267C48.1609 63.4566 47.7832 63.0568 47.7832 62.5637V53.6351C47.7832 53.1419 48.1609 52.7422 48.6267 52.7422H52.0008C52.4666 52.7422 52.8443 53.1419 52.8443 53.6351V62.5637C52.8443 63.0568 52.4666 63.4566 52.0008 63.4566ZM49.4702 61.6708H51.1573V54.5279H49.4702V61.6708Z" fill="white"/>
<path d="M52.0008 63.4566H48.6267C48.1609 63.4566 47.7832 63.0568 47.7832 62.5637V53.6351C47.7832 53.1419 48.1609 52.7422 48.6267 52.7422H52.0008C52.4666 52.7422 52.8443 53.1419 52.8443 53.6351V62.5637C52.8443 63.0568 52.4666 63.4566 52.0008 63.4566ZM49.4702 61.6708H51.1573V54.5279H49.4702V61.6708Z" fill="white" fill-opacity="0.2"/>
<path d="M50.3138 69.7077C48.9162 69.7077 47.7832 68.5085 47.7832 67.0292C47.7832 65.5498 48.9162 64.3506 50.3138 64.3506C51.7113 64.3506 52.8443 65.5498 52.8443 67.0292C52.8443 68.5085 51.7113 69.7077 50.3138 69.7077ZM50.3138 66.1363C49.8479 66.1363 49.4702 66.5361 49.4702 67.0292C49.4702 67.5223 49.8479 67.922 50.3138 67.922C50.7796 67.922 51.1573 67.5223 51.1573 67.0292C51.1573 66.5361 50.7796 66.1363 50.3138 66.1363Z" fill="white"/>
<path d="M50.3138 69.7077C48.9162 69.7077 47.7832 68.5085 47.7832 67.0292C47.7832 65.5498 48.9162 64.3506 50.3138 64.3506C51.7113 64.3506 52.8443 65.5498 52.8443 67.0292C52.8443 68.5085 51.7113 69.7077 50.3138 69.7077ZM50.3138 66.1363C49.8479 66.1363 49.4702 66.5361 49.4702 67.0292C49.4702 67.5223 49.8479 67.922 50.3138 67.922C50.7796 67.922 51.1573 67.5223 51.1573 67.0292C51.1573 66.5361 50.7796 66.1363 50.3138 66.1363Z" fill="white" fill-opacity="0.2"/>
</svg>
