<svg width="100" height="100" viewBox="0 0 100 100" fill="none" xmlns="http://www.w3.org/2000/svg">
<path d="M46.0552 2.23591C48.5022 0.848953 51.4978 0.848953 53.9448 2.23591L71.75 12.3279L89.3925 22.7017C91.8172 24.1273 93.315 26.7216 93.3373 29.5343L93.5 50L93.3373 70.4657C93.315 73.2784 91.8172 75.8727 89.3925 77.2983L71.75 87.6721L53.9448 97.7641C51.4978 99.151 48.5022 99.151 46.0552 97.7641L28.25 87.6721L10.6075 77.2983C8.18285 75.8727 6.68505 73.2784 6.66269 70.4657L6.5 50L6.66269 29.5343C6.68505 26.7216 8.18285 24.1273 10.6075 22.7017L28.25 12.3279L46.0552 2.23591Z" fill="#F4B000"/>
<path d="M68.9057 71.1014H29.7332C29.3326 71.1014 29.0078 70.7576 29.0078 70.3335V62.6549C29.0078 62.2308 29.3326 61.8871 29.7332 61.8871H42.0653V54.9763C42.0653 54.5523 42.3901 54.2085 42.7907 54.2085H55.1227V45.762C55.1227 45.3379 55.4475 44.9941 55.8482 44.9941H68.9057C69.3063 44.9941 69.6311 45.3379 69.6311 45.762V70.3335C69.6311 70.7576 69.3063 71.1014 68.9057 71.1014ZM30.4586 69.5657H68.1802V46.5299H56.5736V54.9763C56.5736 55.4004 56.2488 55.7442 55.8482 55.7442H43.5161V62.6549C43.5161 63.079 43.1913 63.4228 42.7907 63.4228H30.4586V69.5657Z" fill="white"/>
<path d="M68.9057 71.1014H29.7332C29.3326 71.1014 29.0078 70.7576 29.0078 70.3335V62.6549C29.0078 62.2308 29.3326 61.8871 29.7332 61.8871H42.0653V54.9763C42.0653 54.5523 42.3901 54.2085 42.7907 54.2085H55.1227V45.762C55.1227 45.3379 55.4475 44.9941 55.8482 44.9941H68.9057C69.3063 44.9941 69.6311 45.3379 69.6311 45.762V70.3335C69.6311 70.7576 69.3063 71.1014 68.9057 71.1014ZM30.4586 69.5657H68.1802V46.5299H56.5736V54.9763C56.5736 55.4004 56.2488 55.7442 55.8482 55.7442H43.5161V62.6549C43.5161 63.079 43.1913 63.4228 42.7907 63.4228H30.4586V69.5657Z" fill="white" fill-opacity="0.2"/>
<path d="M61.6514 36.5479H63.1022V45.7622H61.6514V36.5479Z" fill="white"/>
<path d="M61.6514 36.5479H63.1022V45.7622H61.6514V36.5479Z" fill="white" fill-opacity="0.2"/>
<path d="M68.9055 38.8517C64.3855 38.8517 62.0707 37.2553 61.9742 37.187C61.7725 37.0445 61.6513 36.8048 61.6514 36.5481V28.8695C61.6513 28.4455 61.9761 28.1016 62.3767 28.1016C62.52 28.1015 62.6602 28.1465 62.7794 28.2307C62.7968 28.2429 64.8635 29.6374 68.9055 29.6374C72.9476 29.6374 74.3788 28.9525 74.3926 28.9463C74.7569 28.7639 75.192 28.9287 75.3643 29.3144C75.4094 29.4154 75.4333 29.5256 75.4343 29.6374V37.316C75.4344 37.607 75.2791 37.8731 75.0331 38.0032C74.8692 38.09 73.3023 38.8517 68.9055 38.8517ZM63.1022 36.0959C64.9241 36.9636 66.9087 37.3808 68.9055 37.316C70.6136 37.3761 72.3215 37.193 73.9835 36.7716V30.6832C72.314 31.0508 70.6103 31.2151 68.9055 31.1731C66.9238 31.2127 64.9534 30.8477 63.1022 30.0981V36.0959Z" fill="white"/>
<path d="M68.9055 38.8517C64.3855 38.8517 62.0707 37.2553 61.9742 37.187C61.7725 37.0445 61.6513 36.8048 61.6514 36.5481V28.8695C61.6513 28.4455 61.9761 28.1016 62.3767 28.1016C62.52 28.1015 62.6602 28.1465 62.7794 28.2307C62.7968 28.2429 64.8635 29.6374 68.9055 29.6374C72.9476 29.6374 74.3788 28.9525 74.3926 28.9463C74.7569 28.7639 75.192 28.9287 75.3643 29.3144C75.4094 29.4154 75.4333 29.5256 75.4343 29.6374V37.316C75.4344 37.607 75.2791 37.8731 75.0331 38.0032C74.8692 38.09 73.3023 38.8517 68.9055 38.8517ZM63.1022 36.0959C64.9241 36.9636 66.9087 37.3808 68.9055 37.316C70.6136 37.3761 72.3215 37.193 73.9835 36.7716V30.6832C72.314 31.0508 70.6103 31.2151 68.9055 31.1731C66.9238 31.2127 64.9534 30.8477 63.1022 30.0981V36.0959Z" fill="white" fill-opacity="0.2"/>
<path d="M33.36 53.4414C32.9594 53.4413 32.6347 53.0975 32.6348 52.6734C32.6348 52.4698 32.7112 52.2746 32.8472 52.1307L43.003 41.3806C43.2862 41.0809 43.7454 41.0809 44.0287 41.3806L48.5937 46.2128L58.2367 36.0056C58.5249 35.711 58.9841 35.7194 59.2624 36.0244C59.534 36.322 59.534 36.7938 59.2624 37.0914L49.1066 47.8414C48.8233 48.1412 48.3642 48.1412 48.0809 47.8414L43.5158 43.0093L33.8729 53.2164C33.7369 53.3604 33.5524 53.4414 33.36 53.4414Z" fill="white"/>
<path d="M33.36 53.4414C32.9594 53.4413 32.6347 53.0975 32.6348 52.6734C32.6348 52.4698 32.7112 52.2746 32.8472 52.1307L43.003 41.3806C43.2862 41.0809 43.7454 41.0809 44.0287 41.3806L48.5937 46.2128L58.2367 36.0056C58.5249 35.711 58.9841 35.7194 59.2624 36.0244C59.534 36.322 59.534 36.7938 59.2624 37.0914L49.1066 47.8414C48.8233 48.1412 48.3642 48.1412 48.0809 47.8414L43.5158 43.0093L33.8729 53.2164C33.7369 53.3604 33.5524 53.4414 33.36 53.4414Z" fill="white" fill-opacity="0.2"/>
<path d="M58.7498 41.1553C58.3492 41.1553 58.0244 40.8115 58.0244 40.3874V36.5481C58.0244 36.1241 58.3492 35.7803 58.7498 35.7803C59.1505 35.7803 59.4753 36.1241 59.4753 36.5481V40.3874C59.4753 40.8115 59.1505 41.1553 58.7498 41.1553Z" fill="white"/>
<path d="M58.7498 41.1553C58.3492 41.1553 58.0244 40.8115 58.0244 40.3874V36.5481C58.0244 36.1241 58.3492 35.7803 58.7498 35.7803C59.1505 35.7803 59.4753 36.1241 59.4753 36.5481V40.3874C59.4753 40.8115 59.1505 41.1553 58.7498 41.1553Z" fill="white" fill-opacity="0.2"/>
<path d="M58.75 37.316H55.1229C54.7222 37.316 54.3975 36.9722 54.3975 36.5481C54.3975 36.1241 54.7222 35.7803 55.1229 35.7803H58.75C59.1506 35.7803 59.4754 36.1241 59.4754 36.5481C59.4754 36.9722 59.1506 37.316 58.75 37.316Z" fill="white"/>
<path d="M58.75 37.316H55.1229C54.7222 37.316 54.3975 36.9722 54.3975 36.5481C54.3975 36.1241 54.7222 35.7803 55.1229 35.7803H58.75C59.1506 35.7803 59.4754 36.1241 59.4754 36.5481C59.4754 36.9722 59.1506 37.316 58.75 37.316Z" fill="white" fill-opacity="0.2"/>
</svg>
