<svg width="16" height="19" viewBox="0 0 16 19" fill="none" xmlns="http://www.w3.org/2000/svg">
<rect x="2" y="2" width="14" height="17" rx="1" fill="#AF495B"/>
<path d="M0 1C0 0.447715 0.447715 0 1 0H13C13.5523 0 14 0.447715 14 1V13L10 17H1C0.447716 17 0 16.5523 0 16V1Z" fill="#DC7285"/>
<path d="M14 13H11C10.4477 13 10 13.4477 10 14V17L14 13Z" fill="#EFB1BC"/>
<rect x="2" y="3" width="10" height="1.74167" rx="0.870833" fill="#FEFEFE"/>
<rect x="2" y="6.84961" width="10" height="1.74167" rx="0.870833" fill="#FEFEFE"/>
<rect x="2" y="10.5" width="6" height="1.74167" rx="0.870833" fill="#FEFEFE"/>
</svg>
