<svg width="20" height="20" viewBox="0 0 20 20" fill="none" xmlns="http://www.w3.org/2000/svg">
<path d="M9.5 2.99919C9.77607 2.99919 9.99988 3.22315 10 3.49919C10 3.77533 9.77614 3.99919 9.5 3.99919H6C4.89551 3.99919 4.00012 4.89472 4 5.99919V13.9992C4 15.1038 4.89543 15.9992 6 15.9992H14C15.1046 15.9992 16 15.1038 16 13.9992V12.4992C16.0001 12.2232 16.2239 11.9992 16.5 11.9992C16.7761 11.9992 16.9999 12.2232 17 12.4992V13.9992C17 15.656 15.6569 16.9992 14 16.9992H6C4.34315 16.9992 3 15.656 3 13.9992V5.99919C3.00012 4.34244 4.34322 2.99919 6 2.99919H9.5ZM13.2969 2.04216C13.4771 1.96209 13.6883 1.99522 13.835 2.12712L18.835 6.62712C18.9402 6.72189 18.9999 6.85755 19 6.99919C19 7.14086 18.9402 7.27645 18.835 7.37126L13.835 11.8713C13.6883 12.0033 13.4772 12.0364 13.2969 11.9562C13.1165 11.8759 13 11.6966 13 11.4992V9.33904C11.5991 9.46724 10.3347 10.1186 9.2998 10.9474C8.28552 11.7598 7.52484 12.7154 7.10547 13.4318L6.94727 13.7228C6.84356 13.9302 6.61045 14.0388 6.38477 13.9855C6.15932 13.9321 6 13.7309 6 13.4992C6.00003 11.4509 6.38155 9.21491 7.51855 7.47575C8.60929 5.80766 10.3673 4.64233 13 4.51189V2.49919L13.0049 2.42595C13.0297 2.25847 13.1392 2.1124 13.2969 2.04216ZM14 4.99919C14 5.27533 13.7761 5.49919 13.5 5.49919C10.9125 5.49919 9.3231 6.54453 8.35645 8.02263C7.67097 9.071 7.28309 10.3622 7.11035 11.7062C7.54278 11.1863 8.06932 10.6521 8.6748 10.1672C9.94307 9.15142 11.6004 8.31462 13.5 8.31462C13.776 8.31462 13.9998 8.53864 14 8.81462V10.3752L17.751 6.99919L14 3.62224V4.99919Z" fill="#242424"/>
</svg>
