<svg width="16" height="17" viewBox="0 0 16 17" fill="none" xmlns="http://www.w3.org/2000/svg">
<path d="M12.8935 6.23813C13.579 6.95612 14 7.92889 14 8.99999C14 11.1422 12.316 12.8911 10.1996 12.9951L10 13L6.707 12.9993L7.85525 14.1481C8.02882 14.3217 8.0481 14.5911 7.91311 14.786L7.85525 14.8552C7.68169 15.0288 7.41226 15.0481 7.21739 14.9131L7.14815 14.8552L5.14645 12.8535C4.97288 12.68 4.9536 12.4106 5.08859 12.2157L5.14645 12.1464L7.14815 10.1447C7.34341 9.94948 7.65999 9.94948 7.85525 10.1447C8.02882 10.3183 8.0481 10.5877 7.91311 10.7826L7.85525 10.8518L6.707 11.9993L10 12C11.5977 12 12.9037 10.7511 12.9949 9.17626L13 8.99999C13 8.17803 12.6694 7.43327 12.134 6.89142C12.0522 6.80329 12 6.68218 12 6.54889C12 6.27275 12.2239 6.04889 12.5 6.04889C12.6227 6.04889 12.7351 6.09311 12.8221 6.16648L12.8935 6.23813ZM8.78431 3.08688L8.85355 3.14474L10.8553 5.14644L10.9131 5.21569C11.0312 5.3862 11.0312 5.61379 10.9131 5.7843L10.8553 5.85354L8.85355 7.85525L8.78431 7.9131C8.6138 8.03122 8.3862 8.03122 8.21569 7.9131L8.14645 7.85525L8.08859 7.786C7.97047 7.61549 7.97047 7.3879 8.08859 7.21739L8.14645 7.14814L9.294 5.99929L6 5.99999C4.40232 5.99999 3.09634 7.24891 3.00509 8.82372L3 8.99999C3 9.81954 3.32863 10.5623 3.8613 11.1038C3.94745 11.1922 4 11.3137 4 11.4475C4 11.7236 3.77614 11.9475 3.5 11.9475C3.36244 11.9475 3.23785 11.8919 3.14745 11.802C2.4379 11.0825 2 10.0924 2 8.99999C2 6.8578 3.68397 5.10891 5.80036 5.00489L6 4.99999L9.294 4.99929L8.14645 3.85184L8.08859 3.7826C7.9536 3.58773 7.97288 3.3183 8.14645 3.14474C8.32001 2.97117 8.58944 2.95189 8.78431 3.08688Z" fill="#858585"/>
</svg>
