<svg width="20" height="20" viewBox="0 0 20 20" fill="none" xmlns="http://www.w3.org/2000/svg">
<path d="M9.36405 18.5257C9.74616 18.7437 10.21 18.7313 10.5906 18.5107C12.8215 17.2178 16.6 14.3246 18.0952 10.5802C20.3178 5.64334 15.0992 1.70239 11.4925 4.53686C11.1342 4.81848 10.688 5.13885 10.3651 5.44565C10.1914 5.61066 9.88811 5.62751 9.70934 5.46805C9.28066 5.08571 8.64538 4.61238 8.23186 4.33261C5.15706 2.25231 -0.43762 4.9945 1.94887 10.847C2.81331 13.4445 6.89615 17.1175 9.36405 18.5257Z" fill="#FF2C3B"/>
<path d="M9.36405 18.5257C9.74616 18.7437 10.21 18.7313 10.5906 18.5107C12.8215 17.2178 16.6 14.3246 18.0952 10.5802C20.3178 5.64334 15.0992 1.70239 11.4925 4.53686C11.1342 4.81848 10.688 5.13885 10.3651 5.44565C10.1914 5.61066 9.88811 5.62751 9.70934 5.46805C9.28066 5.08571 8.64538 4.61238 8.23186 4.33261C5.15706 2.25231 -0.43762 4.9945 1.94887 10.847C2.81331 13.4445 6.89615 17.1175 9.36405 18.5257Z" fill="url(#paint0_radial_57_6455)"/>
<path d="M9.36405 18.5257C9.74616 18.7437 10.21 18.7313 10.5906 18.5107C12.8215 17.2178 16.6 14.3246 18.0952 10.5802C20.3178 5.64334 15.0992 1.70239 11.4925 4.53686C11.1342 4.81848 10.688 5.13885 10.3651 5.44565C10.1914 5.61066 9.88811 5.62751 9.70934 5.46805C9.28066 5.08571 8.64538 4.61238 8.23186 4.33261C5.15706 2.25231 -0.43762 4.9945 1.94887 10.847C2.81331 13.4445 6.89615 17.1175 9.36405 18.5257Z" fill="url(#paint1_radial_57_6455)"/>
<path d="M9.36405 18.5257C9.74616 18.7437 10.21 18.7313 10.5906 18.5107C12.8215 17.2178 16.6 14.3246 18.0952 10.5802C20.3178 5.64334 15.0992 1.70239 11.4925 4.53686C11.1342 4.81848 10.688 5.13885 10.3651 5.44565C10.1914 5.61066 9.88811 5.62751 9.70934 5.46805C9.28066 5.08571 8.64538 4.61238 8.23186 4.33261C5.15706 2.25231 -0.43762 4.9945 1.94887 10.847C2.81331 13.4445 6.89615 17.1175 9.36405 18.5257Z" fill="url(#paint2_radial_57_6455)"/>
<path d="M9.36405 18.5257C9.74616 18.7437 10.21 18.7313 10.5906 18.5107C12.8215 17.2178 16.6 14.3246 18.0952 10.5802C20.3178 5.64334 15.0992 1.70239 11.4925 4.53686C11.1342 4.81848 10.688 5.13885 10.3651 5.44565C10.1914 5.61066 9.88811 5.62751 9.70934 5.46805C9.28066 5.08571 8.64538 4.61238 8.23186 4.33261C5.15706 2.25231 -0.43762 4.9945 1.94887 10.847C2.81331 13.4445 6.89615 17.1175 9.36405 18.5257Z" fill="url(#paint3_radial_57_6455)"/>
<path d="M9.36405 18.5257C9.74616 18.7437 10.21 18.7313 10.5906 18.5107C12.8215 17.2178 16.6 14.3246 18.0952 10.5802C20.3178 5.64334 15.0992 1.70239 11.4925 4.53686C11.1342 4.81848 10.688 5.13885 10.3651 5.44565C10.1914 5.61066 9.88811 5.62751 9.70934 5.46805C9.28066 5.08571 8.64538 4.61238 8.23186 4.33261C5.15706 2.25231 -0.43762 4.9945 1.94887 10.847C2.81331 13.4445 6.89615 17.1175 9.36405 18.5257Z" fill="url(#paint4_linear_57_6455)"/>
<path d="M9.36405 18.5257C9.74616 18.7437 10.21 18.7313 10.5906 18.5107C12.8215 17.2178 16.6 14.3246 18.0952 10.5802C20.3178 5.64334 15.0992 1.70239 11.4925 4.53686C11.1342 4.81848 10.688 5.13885 10.3651 5.44565C10.1914 5.61066 9.88811 5.62751 9.70934 5.46805C9.28066 5.08571 8.64538 4.61238 8.23186 4.33261C5.15706 2.25231 -0.43762 4.9945 1.94887 10.847C2.81331 13.4445 6.89615 17.1175 9.36405 18.5257Z" fill="url(#paint5_radial_57_6455)"/>
<path d="M9.36405 18.5257C9.74616 18.7437 10.21 18.7313 10.5906 18.5107C12.8215 17.2178 16.6 14.3246 18.0952 10.5802C20.3178 5.64334 15.0992 1.70239 11.4925 4.53686C11.1342 4.81848 10.688 5.13885 10.3651 5.44565C10.1914 5.61066 9.88811 5.62751 9.70934 5.46805C9.28066 5.08571 8.64538 4.61238 8.23186 4.33261C5.15706 2.25231 -0.43762 4.9945 1.94887 10.847C2.81331 13.4445 6.89615 17.1175 9.36405 18.5257Z" fill="url(#paint6_radial_57_6455)"/>
<path d="M9.36405 18.5257C9.74616 18.7437 10.21 18.7313 10.5906 18.5107C12.8215 17.2178 16.6 14.3246 18.0952 10.5802C20.3178 5.64334 15.0992 1.70239 11.4925 4.53686C11.1342 4.81848 10.688 5.13885 10.3651 5.44565C10.1914 5.61066 9.88811 5.62751 9.70934 5.46805C9.28066 5.08571 8.64538 4.61238 8.23186 4.33261C5.15706 2.25231 -0.43762 4.9945 1.94887 10.847C2.81331 13.4445 6.89615 17.1175 9.36405 18.5257Z" fill="url(#paint7_radial_57_6455)"/>
<path d="M9.36405 18.5257C9.74616 18.7437 10.21 18.7313 10.5906 18.5107C12.8215 17.2178 16.6 14.3246 18.0952 10.5802C20.3178 5.64334 15.0992 1.70239 11.4925 4.53686C11.1342 4.81848 10.688 5.13885 10.3651 5.44565C10.1914 5.61066 9.88811 5.62751 9.70934 5.46805C9.28066 5.08571 8.64538 4.61238 8.23186 4.33261C5.15706 2.25231 -0.43762 4.9945 1.94887 10.847C2.81331 13.4445 6.89615 17.1175 9.36405 18.5257Z" fill="url(#paint8_radial_57_6455)"/>
<path d="M9.36405 18.5257C9.74616 18.7437 10.21 18.7313 10.5906 18.5107C12.8215 17.2178 16.6 14.3246 18.0952 10.5802C20.3178 5.64334 15.0992 1.70239 11.4925 4.53686C11.1342 4.81848 10.688 5.13885 10.3651 5.44565C10.1914 5.61066 9.88811 5.62751 9.70934 5.46805C9.28066 5.08571 8.64538 4.61238 8.23186 4.33261C5.15706 2.25231 -0.43762 4.9945 1.94887 10.847C2.81331 13.4445 6.89615 17.1175 9.36405 18.5257Z" fill="url(#paint9_radial_57_6455)"/>
<path d="M9.36405 18.5257C9.74616 18.7437 10.21 18.7313 10.5906 18.5107C12.8215 17.2178 16.6 14.3246 18.0952 10.5802C20.3178 5.64334 15.0992 1.70239 11.4925 4.53686C11.1342 4.81848 10.688 5.13885 10.3651 5.44565C10.1914 5.61066 9.88811 5.62751 9.70934 5.46805C9.28066 5.08571 8.64538 4.61238 8.23186 4.33261C5.15706 2.25231 -0.43762 4.9945 1.94887 10.847C2.81331 13.4445 6.89615 17.1175 9.36405 18.5257Z" fill="url(#paint10_radial_57_6455)"/>
<path d="M9.36405 18.5257C9.74616 18.7437 10.21 18.7313 10.5906 18.5107C12.8215 17.2178 16.6 14.3246 18.0952 10.5802C20.3178 5.64334 15.0992 1.70239 11.4925 4.53686C11.1342 4.81848 10.688 5.13885 10.3651 5.44565C10.1914 5.61066 9.88811 5.62751 9.70934 5.46805C9.28066 5.08571 8.64538 4.61238 8.23186 4.33261C5.15706 2.25231 -0.43762 4.9945 1.94887 10.847C2.81331 13.4445 6.89615 17.1175 9.36405 18.5257Z" fill="url(#paint11_linear_57_6455)"/>
<path d="M9.36405 18.5257C9.74616 18.7437 10.21 18.7313 10.5906 18.5107C12.8215 17.2178 16.6 14.3246 18.0952 10.5802C20.3178 5.64334 15.0992 1.70239 11.4925 4.53686C11.1342 4.81848 10.688 5.13885 10.3651 5.44565C10.1914 5.61066 9.88811 5.62751 9.70934 5.46805C9.28066 5.08571 8.64538 4.61238 8.23186 4.33261C5.15706 2.25231 -0.43762 4.9945 1.94887 10.847C2.81331 13.4445 6.89615 17.1175 9.36405 18.5257Z" fill="url(#paint12_linear_57_6455)"/>
<path d="M9.36405 18.5257C9.74616 18.7437 10.21 18.7313 10.5906 18.5107C12.8215 17.2178 16.6 14.3246 18.0952 10.5802C20.3178 5.64334 15.0992 1.70239 11.4925 4.53686C11.1342 4.81848 10.688 5.13885 10.3651 5.44565C10.1914 5.61066 9.88811 5.62751 9.70934 5.46805C9.28066 5.08571 8.64538 4.61238 8.23186 4.33261C5.15706 2.25231 -0.43762 4.9945 1.94887 10.847C2.81331 13.4445 6.89615 17.1175 9.36405 18.5257Z" fill="url(#paint13_linear_57_6455)"/>
<path d="M9.36405 18.5257C9.74616 18.7437 10.21 18.7313 10.5906 18.5107C12.8215 17.2178 16.6 14.3246 18.0952 10.5802C20.3178 5.64334 15.0992 1.70239 11.4925 4.53686C11.1342 4.81848 10.688 5.13885 10.3651 5.44565C10.1914 5.61066 9.88811 5.62751 9.70934 5.46805C9.28066 5.08571 8.64538 4.61238 8.23186 4.33261C5.15706 2.25231 -0.43762 4.9945 1.94887 10.847C2.81331 13.4445 6.89615 17.1175 9.36405 18.5257Z" fill="url(#paint14_radial_57_6455)"/>
<path d="M9.36405 18.5257C9.74616 18.7437 10.21 18.7313 10.5906 18.5107C12.8215 17.2178 16.6 14.3246 18.0952 10.5802C20.3178 5.64334 15.0992 1.70239 11.4925 4.53686C11.1342 4.81848 10.688 5.13885 10.3651 5.44565C10.1914 5.61066 9.88811 5.62751 9.70934 5.46805C9.28066 5.08571 8.64538 4.61238 8.23186 4.33261C5.15706 2.25231 -0.43762 4.9945 1.94887 10.847C2.81331 13.4445 6.89615 17.1175 9.36405 18.5257Z" fill="url(#paint15_radial_57_6455)"/>
<path d="M9.36405 18.5257C9.74616 18.7437 10.21 18.7313 10.5906 18.5107C12.8215 17.2178 16.6 14.3246 18.0952 10.5802C20.3178 5.64334 15.0992 1.70239 11.4925 4.53686C11.1342 4.81848 10.688 5.13885 10.3651 5.44565C10.1914 5.61066 9.88811 5.62751 9.70934 5.46805C9.28066 5.08571 8.64538 4.61238 8.23186 4.33261C5.15706 2.25231 -0.43762 4.9945 1.94887 10.847C2.81331 13.4445 6.89615 17.1175 9.36405 18.5257Z" fill="url(#paint16_radial_57_6455)"/>
<defs>
<radialGradient id="paint0_radial_57_6455" cx="0" cy="0" r="1" gradientUnits="userSpaceOnUse" gradientTransform="translate(22.4296 12.1405) rotate(166.261) scale(21.7372)">
<stop offset="0.46875" stop-color="#B91D43" stop-opacity="0"/>
<stop offset="0.625" stop-color="#B91D43"/>
</radialGradient>
<radialGradient id="paint1_radial_57_6455" cx="0" cy="0" r="1" gradientUnits="userSpaceOnUse" gradientTransform="translate(19.7974 6.54715) rotate(43.4926) scale(17.6879 18.2142)">
<stop offset="0.436191" stop-color="#FF2C64" stop-opacity="0"/>
<stop offset="0.579111" stop-color="#FF2839"/>
<stop offset="0.820977" stop-color="#FF2839"/>
</radialGradient>
<radialGradient id="paint2_radial_57_6455" cx="0" cy="0" r="1" gradientUnits="userSpaceOnUse" gradientTransform="translate(17.4942 5.23106) rotate(130.697) scale(9.75874 3.02102)">
<stop offset="0.241492" stop-color="#FF6975"/>
<stop offset="1" stop-color="#FF6975" stop-opacity="0"/>
</radialGradient>
<radialGradient id="paint3_radial_57_6455" cx="0" cy="0" r="1" gradientUnits="userSpaceOnUse" gradientTransform="translate(6.96546 4.90203) rotate(74.876) scale(12.6106 4.77496)">
<stop stop-color="#FF8E9D"/>
<stop offset="0.829857" stop-color="#FF8191" stop-opacity="0"/>
</radialGradient>
<linearGradient id="paint4_linear_57_6455" x1="15.8491" y1="8.19226" x2="8.28156" y2="8.85031" gradientUnits="userSpaceOnUse">
<stop offset="0.592259" stop-color="#FF2F48" stop-opacity="0"/>
<stop offset="0.728317" stop-color="#FF2F48"/>
<stop offset="0.889416" stop-color="#FF2F48" stop-opacity="0"/>
</linearGradient>
<radialGradient id="paint5_radial_57_6455" cx="0" cy="0" r="1" gradientUnits="userSpaceOnUse" gradientTransform="translate(7.29449 16.0888) rotate(114.057) scale(60.534 47.5959)">
<stop offset="0.213872" stop-color="#FF4750" stop-opacity="0"/>
<stop offset="0.280316" stop-color="#FF4750"/>
</radialGradient>
<radialGradient id="paint6_radial_57_6455" cx="0" cy="0" r="1" gradientUnits="userSpaceOnUse" gradientTransform="translate(6.63644 3.25691) rotate(75.0686) scale(5.10781)">
<stop offset="0.226211" stop-color="#FF4851"/>
<stop offset="1" stop-color="#FF4851" stop-opacity="0"/>
</radialGradient>
<radialGradient id="paint7_radial_57_6455" cx="0" cy="0" r="1" gradientUnits="userSpaceOnUse" gradientTransform="translate(5.19348 9.50486) rotate(36.0274) scale(4.25046)">
<stop offset="0.226211" stop-color="#FF4851"/>
<stop offset="1" stop-color="#FF4851" stop-opacity="0"/>
</radialGradient>
<radialGradient id="paint8_radial_57_6455" cx="0" cy="0" r="1" gradientUnits="userSpaceOnUse" gradientTransform="translate(8.28156 3.25691) rotate(93.8141) scale(4.9463)">
<stop offset="0.226211" stop-color="#FF4851"/>
<stop offset="0.631601" stop-color="#FF4851" stop-opacity="0"/>
</radialGradient>
<radialGradient id="paint9_radial_57_6455" cx="0" cy="0" r="1" gradientUnits="userSpaceOnUse" gradientTransform="translate(19.7974 6.54715) rotate(45.6161) scale(21.6381 22.2821)">
<stop offset="0.605375" stop-color="#D32750" stop-opacity="0"/>
<stop offset="0.760922" stop-color="#D32750"/>
</radialGradient>
<radialGradient id="paint10_radial_57_6455" cx="0" cy="0" r="1" gradientUnits="userSpaceOnUse" gradientTransform="translate(16.8362 12.7986) rotate(26.9802) scale(20.3064 12.6602)">
<stop offset="0.734432" stop-color="#C03D60" stop-opacity="0"/>
<stop offset="0.785127" stop-color="#C03D60"/>
</radialGradient>
<linearGradient id="paint11_linear_57_6455" x1="10.506" y1="19.1924" x2="10.8185" y2="5.75486" gradientUnits="userSpaceOnUse">
<stop stop-color="#FB31AD"/>
<stop offset="0.792966" stop-color="#FB31AD" stop-opacity="0"/>
</linearGradient>
<linearGradient id="paint12_linear_57_6455" x1="5.32035" y1="20.0371" x2="10.5847" y2="13.4566" gradientUnits="userSpaceOnUse">
<stop offset="0.389423" stop-color="#CF55BC"/>
<stop offset="0.508449" stop-color="#CF55BC" stop-opacity="0"/>
</linearGradient>
<linearGradient id="paint13_linear_57_6455" x1="14.881" y1="19.1924" x2="10.5847" y2="13.4566" gradientUnits="userSpaceOnUse">
<stop offset="0.389423" stop-color="#CF55BC"/>
<stop offset="0.508449" stop-color="#CF55BC" stop-opacity="0"/>
</linearGradient>
<radialGradient id="paint14_radial_57_6455" cx="0" cy="0" r="1" gradientUnits="userSpaceOnUse" gradientTransform="translate(10.2557 19.3791) rotate(-86.8202) scale(5.93155 6.77994)">
<stop offset="0.0975182" stop-color="#CF55BC"/>
<stop offset="0.250164" stop-color="#CF55BC" stop-opacity="0"/>
</radialGradient>
<radialGradient id="paint15_radial_57_6455" cx="0" cy="0" r="1" gradientUnits="userSpaceOnUse" gradientTransform="translate(6.13098 17.9424) rotate(127.569) scale(5.12538 15.1071)">
<stop stop-color="#B51D85"/>
<stop offset="0.547667" stop-color="#B51D85" stop-opacity="0"/>
</radialGradient>
<radialGradient id="paint16_radial_57_6455" cx="0" cy="0" r="1" gradientUnits="userSpaceOnUse" gradientTransform="translate(3.00598 16.3799) rotate(154.654) scale(6.56994 19.3649)">
<stop stop-color="#B51D85"/>
<stop offset="0.547667" stop-color="#B51D85" stop-opacity="0"/>
</radialGradient>
</defs>
</svg>
