<svg width="48" height="48" viewBox="0 0 48 48" fill="none" xmlns="http://www.w3.org/2000/svg">
<rect width="48" height="48" rx="24" fill="url(#paint0_linear_9_1980)"/>
<path d="M24 14C29.4292 14 33.8479 18.3267 33.9962 23.7201L34 24L33.9997 25.5254C33.9864 27.7227 32.2007 29.5 30 29.5C28.5544 29.5 27.288 28.7332 26.5852 27.5841C25.7852 28.4184 24.7033 28.9333 23.5 28.9333C20.9849 28.9333 19 26.6838 19 23.9667C19 21.2496 20.9849 19 23.5 19C24.4366 19 25.2997 19.312 26.0141 19.8439C26.087 19.3658 26.5008 19 27 19C27.5128 19 27.9355 19.386 27.9933 19.8834L28 20V25.5C28 26.6046 28.8954 27.5 30 27.5C31.0544 27.5 31.9182 26.6841 31.9945 25.6493L32.0003 25.4748L32 24C32 19.5817 28.4183 16 24 16C19.5817 16 16 19.5817 16 24C16 28.4183 19.5817 32 24 32C24.9215 32 25.8203 31.8446 26.6695 31.5441C27.1901 31.3598 27.7616 31.6326 27.9458 32.1532C28.13 32.6739 27.8573 33.2453 27.3367 33.4295C26.2739 33.8056 25.1495 34 24 34C18.4772 34 14 29.5228 14 24C14 18.4772 18.4772 14 24 14ZM23.6492 21.0053L23.5 21C22.1491 21 21 22.3023 21 23.9667C21 25.631 22.1491 26.9333 23.5 26.9333C24.8009 26.9333 25.9146 25.7257 25.9953 24.1501L25.9998 23.9293C25.9834 22.3443 24.9245 21.0963 23.6492 21.0053L23.5 21L23.6492 21.0053Z" fill="white"/>
<defs>
<linearGradient id="paint0_linear_9_1980" x1="24" y1="0" x2="24" y2="48" gradientUnits="userSpaceOnUse">
<stop stop-color="#FF5600"/>
<stop offset="1" stop-color="#F3C100"/>
</linearGradient>
</defs>
</svg>
