<svg width="48" height="48" viewBox="0 0 48 48" fill="none" xmlns="http://www.w3.org/2000/svg">
<rect width="48" height="48" rx="24" fill="url(#paint0_linear_9_1971)"/>
<path d="M17.3324 30.0264C15.5453 30.0264 14.0967 28.5778 14.0967 26.7907V18.3282C14.0967 16.5412 15.5453 15.0925 17.3324 15.0925H30.7729C32.5599 15.0925 34.0085 16.5412 34.0085 18.3282V26.7907C34.0085 28.5778 32.5599 30.0264 30.7729 30.0264H25.0606L20.0689 33.7606C19.5185 34.1722 18.7386 34.0598 18.327 33.5094C18.166 33.2942 18.0791 33.0327 18.0791 32.7642L18.0783 30.0264H17.3324ZM24.5639 28.533H30.7729C31.7351 28.533 32.5151 27.753 32.5151 26.7907V18.3282C32.5151 17.366 31.7351 16.5859 30.7729 16.5859H17.3324C16.3701 16.5859 15.5901 17.366 15.5901 18.3282V26.7907C15.5901 27.753 16.3701 28.533 17.3324 28.533H19.5712L19.5714 29.2795L19.5723 32.2671L24.5639 28.533Z" fill="white"/>
<defs>
<linearGradient id="paint0_linear_9_1971" x1="24" y1="0" x2="24" y2="48" gradientUnits="userSpaceOnUse">
<stop stop-color="#FF5600"/>
<stop offset="1" stop-color="#F3C100"/>
</linearGradient>
</defs>
</svg>
