<svg preserveAspectRatio="none" width="100%" height="100%" overflow="visible" style="display: block;" viewBox="0 0 14 13.6006" fill="none" xmlns="http://www.w3.org/2000/svg">
<path id="Shape" d="M12.9728 6.32303C12.9907 6.49543 13 6.67679 13 6.86771C13 8.16476 12.548 9.03625 12.11 9.58224C11.8889 9.85789 11.6688 10.0534 11.507 10.1782C11.4263 10.2405 11.3607 10.2847 11.3176 10.3121C11.2961 10.3258 11.2802 10.3353 11.271 10.3406L11.2621 10.3457C11.1007 10.433 11 10.6019 11 10.7855V12.1006C11 12.3767 10.7761 12.6006 10.5 12.6006H10C10 12.0483 9.55228 11.6006 9 11.6006H7C6.44772 11.6006 6 12.0483 6 12.6006H5.5C5.22386 12.6006 5 12.3767 5 12.1006V11.4978C5 11.2492 4.8173 11.0384 4.57128 11.0029C4.56781 11.0023 4.56088 11.0011 4.55077 10.9992C4.53053 10.9953 4.49765 10.9884 4.45425 10.9774C4.36726 10.9555 4.23928 10.9178 4.08686 10.8563C3.78107 10.7329 3.38553 10.5173 3.02262 10.1494C2.57952 9.70028 2.3087 9.10741 2.16379 8.69651C2.01965 8.28778 1.69162 7.91783 1.22323 7.78543C1.09117 7.7481 1 7.62758 1 7.49035V6.6964C1 6.56692 1.08582 6.45313 1.21031 6.41753C1.69455 6.27908 2.01878 5.8861 2.15551 5.47268C2.26778 5.1332 2.46624 4.69609 2.78838 4.36953C3.1017 4.05192 3.44857 3.80941 3.721 3.64535C3.85622 3.56393 3.97055 3.50335 4.04958 3.46379C4.08903 3.44404 4.11949 3.42963 4.13913 3.42056L4.16019 3.41099L4.16441 3.40914C4.3478 3.33017 4.46667 3.14963 4.46667 2.9499V1.27591C4.67582 1.45293 4.91328 1.63693 5.16613 1.80241C5.48377 2.0103 5.85362 2.20772 6.24123 2.31197C6.35488 1.98482 6.51063 1.67278 6.7049 1.38455L6.69908 1.38396C6.42016 1.35568 6.07821 1.20422 5.71375 0.965684C5.35833 0.733073 5.02604 0.447447 4.77328 0.208653C4.52561 -0.0253407 4.19445 -0.0421013 3.94747 0.0581326C3.69841 0.159209 3.46667 0.408725 3.46667 0.762209V2.63977C3.39011 2.68085 3.3018 2.73048 3.20512 2.78869C2.88611 2.9808 2.46587 3.27253 2.07648 3.66725C1.60048 4.14978 1.34075 4.75149 1.20608 5.15868C1.15091 5.32551 1.03877 5.42651 0.935408 5.45606C0.381707 5.61437 0 6.12051 0 6.6964V7.49035C0 8.07511 0.388514 8.58866 0.951218 8.74772C1.05732 8.77771 1.16631 8.8748 1.22072 9.02909C1.38694 9.50043 1.71862 10.2515 2.31072 10.8517C2.79156 11.3392 3.31269 11.6222 3.71263 11.7836C3.81698 11.8257 3.91366 11.8598 4 11.8872V12.1006C4 12.929 4.67157 13.6006 5.5 13.6006H6C6.55228 13.6006 7 13.1529 7 12.6006H9C9 13.1529 9.44771 13.6006 10 13.6006H10.5C11.3284 13.6006 12 12.929 12 12.1006V11.0575C12.0365 11.0315 12.076 11.0023 12.118 10.9699C12.3312 10.8053 12.6111 10.5556 12.89 10.208C13.452 9.50738 14 8.41997 14 6.86771C14 6.2177 13.9075 5.63553 13.7309 5.11607C13.5533 5.55755 13.2975 5.96736 12.9728 6.32303ZM12.7914 2.47541C13.317 3.74403 12.9077 5.16671 11.8808 5.9777C11.4645 6.30645 10.8928 6.28122 10.4027 6.07828L8.01367 5.08894C7.5236 4.886 7.10141 4.49962 7.03943 3.97282C6.88651 2.67323 7.60292 1.37776 8.87153 0.852155C10.4022 0.217975 12.1572 0.944731 12.7914 2.47541ZM11.261 5.19291C11.9461 4.65191 12.2174 3.70258 11.8675 2.85817C11.4447 1.83772 10.2747 1.35322 9.2543 1.776C8.40988 2.12585 7.93057 2.98902 8.03258 3.85596C8.03479 3.87482 8.04358 3.91245 8.09851 3.97155C8.15821 4.03579 8.25873 4.10807 8.39628 4.16503L10.7853 5.15437C10.9229 5.21133 11.045 5.23127 11.1327 5.22805C11.2133 5.22508 11.2461 5.20468 11.261 5.19291ZM4.75 6.10059C5.16421 6.10059 5.5 5.7648 5.5 5.35059C5.5 4.93637 5.16421 4.60059 4.75 4.60059C4.33579 4.60059 4 4.93637 4 5.35059C4 5.7648 4.33579 6.10059 4.75 6.10059Z" fill="var(--fill-0, #00BEE8)"/>
</svg>
