<svg width="32" height="32" viewBox="0 0 32 32" fill="none" xmlns="http://www.w3.org/2000/svg">
<rect x="0.5" y="0.5" width="30.168" height="30.168" rx="15.084" stroke="#00BEE8"/>
<path d="M16.3638 12.93C16.9975 12.2963 18.024 12.3014 18.6566 12.934C19.2891 13.5665 19.2943 14.593 18.6606 15.2267C18.0268 15.8605 17.0003 15.8553 16.3678 15.2228C15.7352 14.5902 15.7301 13.5637 16.3638 12.93ZM17.9495 13.6411C17.7041 13.3957 17.3107 13.3972 17.0709 13.6371C16.8311 13.8769 16.8295 14.2703 17.0749 14.5157C17.3203 14.761 17.7136 14.7595 17.9534 14.5196C18.1933 14.2798 18.1949 13.8865 17.9495 13.6411ZM21.7779 11.0846C21.587 10.4784 21.1121 10.0035 20.5059 9.81264C18.7853 9.27089 16.9063 9.73108 15.6308 11.0066L15.002 11.6354C14.1344 11.2621 13.0898 11.4297 12.3812 12.1382L11.5957 12.9237C11.4005 13.119 11.4005 13.4355 11.5957 13.6308L12.4457 14.4807C12.3151 14.9793 12.4452 15.532 12.836 15.9227L13.0028 16.0895L12.2304 16.5514C12.0981 16.6304 12.0097 16.7661 11.9907 16.919C11.9718 17.072 12.0244 17.2251 12.1334 17.3341L14.2564 19.4571C14.3654 19.566 14.5184 19.6186 14.6713 19.5997C14.8242 19.5808 14.9599 19.4925 15.039 19.3603L15.5012 18.588L15.6678 18.7545C16.0585 19.1452 16.6111 19.2753 17.1096 19.1449L17.9597 19.9949C18.1549 20.1902 18.4715 20.1902 18.6668 19.9949L19.4523 19.2095C20.1608 18.5009 20.3284 17.4562 19.955 16.5886L20.5839 15.9597C21.8594 14.6842 22.3196 12.8052 21.7779 11.0846ZM20.2056 10.7665C20.5003 10.8593 20.7312 11.0902 20.824 11.3849C21.2538 12.7499 20.8887 14.2407 19.8768 15.2526L17.082 18.0474C16.8867 18.2427 16.5702 18.2427 16.3749 18.0474L13.5431 15.2156C13.3478 15.0203 13.3478 14.7038 13.5431 14.5085L16.3379 11.7137C17.3498 10.7018 18.8406 10.3367 20.2056 10.7665ZM19.1424 17.4012C19.1789 17.7948 19.0465 18.201 18.7452 18.5023L18.3132 18.9343L17.9613 18.5823L19.1424 17.4012ZM13.0883 12.8453C13.3896 12.544 13.7958 12.4116 14.1893 12.448L13.0083 13.6291L12.6564 13.2772L13.0883 12.8453ZM14.7722 17.8589L14.5102 18.2966L13.294 17.0805L13.7319 16.8187L14.7722 17.8589ZM12.8489 19.4487C13.0442 19.2535 13.0442 18.9369 12.8489 18.7416C12.6537 18.5464 12.3371 18.5464 12.1418 18.7416L10.8216 20.0619C10.6263 20.2571 10.6263 20.5737 10.8216 20.769C11.0168 20.9643 11.3334 20.9643 11.5287 20.769L12.8489 19.4487ZM11.7873 17.6802C11.9825 17.8755 11.9825 18.1921 11.7873 18.3873L11.2579 18.9168C11.0626 19.112 10.746 19.112 10.5507 18.9168C10.3555 18.7215 10.3555 18.4049 10.5507 18.2097L11.0802 17.6802C11.2754 17.485 11.592 17.485 11.7873 17.6802ZM13.9103 20.5103C14.1056 20.315 14.1056 19.9984 13.9103 19.8032C13.7151 19.6079 13.3985 19.6079 13.2032 19.8032L12.6738 20.3326C12.4785 20.5279 12.4785 20.8444 12.6738 21.0397C12.8691 21.235 13.1856 21.235 13.3809 21.0397L13.9103 20.5103Z" fill="#00BEE8"/>
</svg>
