<svg width="32" height="32" viewBox="0 0 32 32" fill="none" xmlns="http://www.w3.org/2000/svg">
<rect x="0.5" y="0.5" width="30.168" height="30.168" rx="15.084" stroke="#00BEE8"/>
<path d="M9.33798 9.54498C9.49536 8.94594 10.0412 8.58398 10.6149 8.58398C10.9686 8.58398 11.2913 8.71653 11.5361 8.93466C11.7968 8.7158 12.133 8.58398 12.5 8.58398C12.867 8.58398 13.2032 8.7158 13.4639 8.93466C13.7087 8.71653 14.0314 8.58398 14.3851 8.58398C14.9588 8.58398 15.5046 8.94594 15.662 9.54498C15.8124 10.1173 16 11.0389 16 12.084C16 13.3149 15.3641 14.3971 14.4053 15.0204C14.1339 15.1968 14 15.425 14 15.6204V16.0162C14 16.04 14.0014 16.0604 14.0043 16.082C14.0378 16.3302 14.1609 17.2509 14.2758 18.2059C14.3886 19.1433 14.5 20.1649 14.5 20.584C14.5 21.6886 13.6046 22.584 12.5 22.584C11.3954 22.584 10.5 21.6886 10.5 20.584C10.5 20.1649 10.6114 19.1433 10.7242 18.2059C10.8391 17.2509 10.9622 16.3302 10.9957 16.082C10.9986 16.0604 11 16.04 11 16.0162V15.6204C11 15.425 10.8661 15.1968 10.5947 15.0204C9.63587 14.3971 9 13.3149 9 12.084C9 11.0389 9.18764 10.1173 9.33798 9.54498ZM14 12.584C14 12.8601 13.7761 13.084 13.5 13.084C13.2239 13.084 13 12.8601 13 12.584V10.084C13 9.80784 12.7761 9.58398 12.5 9.58398C12.2239 9.58398 12 9.80784 12 10.084V12.584C12 12.8601 11.7761 13.084 11.5 13.084C11.2239 13.084 11 12.8601 11 12.584V9.96906C11 9.75639 10.8276 9.58398 10.6149 9.58398C10.4492 9.58398 10.3357 9.68295 10.3052 9.79907C10.1683 10.3199 10 11.152 10 12.084C10 12.9624 10.4526 13.7353 11.1397 14.1819C11.579 14.4675 12 14.9683 12 15.6204V16.0162C12 16.0827 11.9959 16.1478 11.9867 16.2157C11.9535 16.4621 11.8311 17.3773 11.717 18.3254C11.6008 19.291 11.5 20.2398 11.5 20.584C11.5 21.1363 11.9477 21.584 12.5 21.584C13.0523 21.584 13.5 21.1363 13.5 20.584C13.5 20.2398 13.3992 19.291 13.283 18.3254C13.1689 17.3773 13.0465 16.4621 13.0133 16.2157C13.0041 16.1478 13 16.0827 13 16.0162V15.6204C13 14.9683 13.421 14.4675 13.8603 14.1819C14.5474 13.7353 15 12.9624 15 12.084C15 11.152 14.8317 10.3199 14.6948 9.79907C14.6643 9.68295 14.5508 9.58398 14.3851 9.58398C14.1724 9.58398 14 9.75639 14 9.96906V12.584ZM17 13.084C17 10.5987 19.0147 8.58398 21.5 8.58398C21.7761 8.58398 22 8.80784 22 9.08398V15.0574L22.0187 15.2338C22.0324 15.3634 22.052 15.5494 22.0754 15.7752C22.1224 16.2266 22.185 16.8375 22.2476 17.4744C22.3711 18.7302 22.5 20.1383 22.5 20.584C22.5 21.6886 21.6046 22.584 20.5 22.584C19.3954 22.584 18.5 21.6886 18.5 20.584C18.5 20.1383 18.6289 18.7302 18.7524 17.4744C18.815 16.8375 18.8776 16.2266 18.9246 15.7752L18.9445 15.584H18C17.4477 15.584 17 15.1363 17 14.584V13.084ZM19.9972 15.1372L19.9757 15.3389C19.9621 15.468 19.9426 15.6534 19.9192 15.8786C19.8724 16.3289 19.81 16.9377 19.7476 17.5722C19.6211 18.8594 19.5 20.2012 19.5 20.584C19.5 21.1363 19.9477 21.584 20.5 21.584C21.0523 21.584 21.5 21.1363 21.5 20.584C21.5 20.2012 21.3789 18.8594 21.2524 17.5722C21.19 16.9377 21.1276 16.3289 21.0808 15.8786C21.0574 15.6534 21.0379 15.468 21.0243 15.3389L21.0029 15.138C21.001 15.1203 21 15.1018 21 15.084V9.61943C19.3039 9.86204 18 11.3207 18 13.084V14.584H19.5C19.6419 14.584 19.7771 14.6443 19.8719 14.7498C19.9667 14.8553 20.0123 14.9962 19.9972 15.1372Z" fill="#00BEE8"/>
</svg>
