<svg preserveAspectRatio="none" width="100%" height="100%" overflow="visible" style="display: block;" viewBox="0 0 13.5 14" fill="none" xmlns="http://www.w3.org/2000/svg">
<path id="Shape" d="M0.337983 0.960997C0.495359 0.361955 1.04125 0 1.61493 0C1.96859 0 2.29129 0.132549 2.53607 0.350679C2.79675 0.131812 3.13298 0 3.5 0C3.86702 0 4.20325 0.131812 4.46393 0.350679C4.70871 0.132549 5.03141 0 5.38507 0C5.95875 0 6.50464 0.361955 6.66202 0.960997C6.81236 1.53328 7 2.45489 7 3.49999C7 4.73096 6.36413 5.81313 5.40528 6.43638C5.1339 6.61277 5 6.84097 5 7.03646V7.43222C5 7.45598 5.00137 7.47639 5.00429 7.49802C5.03776 7.74617 5.16094 8.66687 5.27583 9.62194C5.38859 10.5593 5.5 11.5809 5.5 12C5.5 13.1046 4.60457 14 3.5 14C2.39543 14 1.5 13.1046 1.5 12C1.5 11.5809 1.61141 10.5593 1.72417 9.62194C1.83906 8.66687 1.96224 7.74617 1.99571 7.49802C1.99863 7.47639 2 7.45598 2 7.43222V7.03646C2 6.84098 1.8661 6.61277 1.59472 6.43638C0.635873 5.81313 0 4.73096 0 3.49999C0 2.45489 0.187636 1.53328 0.337983 0.960997ZM5 4C5 4.27614 4.77614 4.5 4.5 4.5C4.22386 4.5 4 4.27614 4 4V1.5C4 1.22386 3.77614 1 3.5 1C3.22386 1 3 1.22386 3 1.5V4C3 4.27614 2.77614 4.5 2.5 4.5C2.22386 4.5 2 4.27614 2 4V1.38507C2 1.1724 1.8276 1 1.61493 1C1.44918 1 1.33567 1.09897 1.30516 1.21509C1.16833 1.73591 1 2.56802 1 3.49999C1 4.37838 1.45262 5.15133 2.1397 5.59793C2.57902 5.88348 3 6.38431 3 7.03646V7.43222C3 7.49873 2.99588 7.56386 2.98674 7.63169C2.95349 7.87815 2.83106 8.79336 2.71701 9.74137C2.60085 10.7071 2.5 11.6558 2.5 12C2.5 12.5523 2.94772 13 3.5 13C4.05228 13 4.5 12.5523 4.5 12C4.5 11.6558 4.39915 10.7071 4.28299 9.74137C4.16894 8.79336 4.04651 7.87815 4.01326 7.63169C4.00412 7.56386 4 7.49873 4 7.43222V7.03646C4 6.38431 4.42098 5.88348 4.8603 5.59793C5.54738 5.15133 6 4.37838 6 3.49999C6 2.56802 5.83167 1.73591 5.69484 1.21509C5.66433 1.09897 5.55082 1 5.38507 1C5.1724 1 5 1.1724 5 1.38507V4ZM8 4.5C8 2.01472 10.0147 0 12.5 0C12.7761 0 13 0.223858 13 0.5V6.4734L13.0187 6.6498C13.0324 6.7794 13.052 6.9654 13.0754 7.19118C13.1224 7.64266 13.185 8.25348 13.2476 8.89042C13.3711 10.1462 13.5 11.5544 13.5 12C13.5 13.1046 12.6046 14 11.5 14C10.3954 14 9.5 13.1046 9.5 12C9.5 11.5544 9.62894 10.1462 9.7524 8.89042C9.81502 8.25348 9.87762 7.64266 9.92455 7.19118L9.94448 7H9C8.44771 7 8 6.55228 8 6V4.5ZM10.9972 6.55326L10.9757 6.7549C10.9621 6.88402 10.9426 7.06945 10.9192 7.29458C10.8724 7.7449 10.81 8.35376 10.7476 8.98826C10.6211 10.2754 10.5 11.6172 10.5 12C10.5 12.5523 10.9477 13 11.5 13C12.0523 13 12.5 12.5523 12.5 12C12.5 11.6172 12.3789 10.2754 12.2524 8.98826C12.19 8.35376 12.1276 7.7449 12.0808 7.29458C12.0574 7.06945 12.0379 6.88402 12.0243 6.7549L12.0029 6.55403C12.001 6.53635 12 6.51778 12 6.5V1.03544C10.3039 1.27806 9 2.73676 9 4.5V6H10.5C10.6419 6 10.7771 6.06027 10.8719 6.16579C10.9667 6.27131 11.0123 6.41219 10.9972 6.55326Z" fill="var(--fill-0, #00BEE8)"/>
</svg>
