<svg width="32" height="32" viewBox="0 0 32 32" fill="none" xmlns="http://www.w3.org/2000/svg">
<rect x="0.5" y="0.5" width="30.168" height="30.168" rx="15.084" stroke="#00BEE8"/>
<path d="M15.998 10.0616C16.0228 10.3366 15.8199 10.5797 15.5449 10.6045C12.997 10.8341 11 12.9761 11 15.5841C11 18.3455 13.2386 20.5841 16 20.5841C18.6079 20.5841 20.75 18.5871 20.9796 16.0392C21.0044 15.7642 21.2474 15.5613 21.5225 15.5861C21.7975 15.6109 22.0003 15.8539 21.9756 16.1289C21.6999 19.1876 19.1301 21.5841 16 21.5841C12.6863 21.5841 10 18.8978 10 15.5841C10 12.4539 12.3965 9.88412 15.4551 9.60849C15.7302 9.58371 15.9732 9.78657 15.998 10.0616ZM15.5 12.584C15.7761 12.584 16 12.8079 16 13.084V15.584H17.5C17.7761 15.584 18 15.8079 18 16.084C18 16.3602 17.7761 16.584 17.5 16.584H15.5C15.2239 16.584 15 16.3602 15 16.084V13.084C15 12.8079 15.2239 12.584 15.5 12.584ZM17.6361 9.80992C17.3704 9.73477 17.094 9.88925 17.0189 10.155C16.9437 10.4207 17.0982 10.697 17.3639 10.7722C17.9114 10.927 18.421 11.1729 18.8752 11.4928C19.101 11.6518 19.4129 11.5977 19.5719 11.3719C19.7309 11.1461 19.6767 10.8342 19.451 10.6752C18.9061 10.2915 18.2942 9.99607 17.6361 9.80992ZM20.9088 12.1331C20.7498 11.9073 20.4379 11.8531 20.2121 12.0121C19.9863 12.1711 19.9322 12.483 20.0912 12.7088C20.4111 13.1631 20.657 13.6726 20.8118 14.2201C20.887 14.4858 21.1633 14.6403 21.429 14.5651C21.6948 14.49 21.8492 14.2137 21.7741 13.9479C21.5879 13.2898 21.2925 12.6779 20.9088 12.1331Z" fill="#00BEE8"/>
</svg>
