<svg width="32" height="32" viewBox="0 0 32 32" fill="none" xmlns="http://www.w3.org/2000/svg">
<rect x="0.5" y="0.5" width="30.168" height="30.168" rx="15.084" stroke="#00BEE8"/>
<path d="M14.9999 16.4643C15.3448 16.4643 15.6244 16.7439 15.6244 17.0888C15.6244 17.4337 15.3448 17.7133 14.9999 17.7133C14.655 17.7133 14.3754 17.4337 14.3754 17.0888C14.3754 16.7439 14.655 16.4643 14.9999 16.4643ZM15 11.5874C16.031 11.5874 16.8534 12.4332 16.8534 13.5369C16.8534 14.1227 16.639 14.4446 16.1257 14.8555L15.8487 15.0698C15.6029 15.2644 15.5202 15.3702 15.5034 15.518L15.4919 15.6742C15.4495 15.9074 15.2454 16.0843 14.9999 16.0843C14.7238 16.0843 14.4999 15.8604 14.4999 15.5842C14.4999 15.0133 14.7099 14.7001 15.2157 14.2958L15.4937 14.0808C15.7822 13.8519 15.8534 13.7387 15.8534 13.5369C15.8534 12.9793 15.4723 12.5874 15 12.5874C14.5062 12.5874 14.141 12.9531 14.1465 13.5321C14.1492 13.8082 13.9275 14.0342 13.6514 14.0369C13.3752 14.0395 13.1492 13.8178 13.1466 13.5417C13.1357 12.4048 13.952 11.5874 15 11.5874ZM10 14.584C10 11.8226 12.2386 9.58398 15 9.58398C17.7614 9.58398 20 11.8226 20 14.584C20 17.3454 17.7614 19.584 15 19.584C14.2456 19.584 13.529 19.4166 12.8865 19.1165L10.5981 19.5743C10.4342 19.6071 10.2647 19.5558 10.1465 19.4376C10.0282 19.3194 9.97693 19.1499 10.0097 18.986L10.4674 16.6974C10.1674 16.0549 10 15.3384 10 14.584ZM15 10.584C12.7909 10.584 11 12.3748 11 14.584C11 15.2397 11.1574 15.8572 11.436 16.4021C11.4873 16.5025 11.5032 16.6173 11.4811 16.7278L11.1374 18.4466L12.856 18.1028C12.9666 18.0807 13.0814 18.0966 13.1817 18.1479C13.7267 18.4266 14.3442 18.584 15 18.584C17.2091 18.584 19 16.7931 19 14.584C19 12.3748 17.2091 10.584 15 10.584ZM13.8604 20.4757C14.7186 21.169 15.8108 21.5841 16.9999 21.5841C17.7544 21.5841 18.4709 21.4167 19.1134 21.1166L21.4018 21.5744C21.5658 21.6072 21.7352 21.5559 21.8535 21.4377C21.9717 21.3195 22.023 21.15 21.9902 20.9861L21.5325 18.6975C21.8325 18.055 21.9999 17.3385 21.9999 16.5841C21.9999 15.3952 21.585 14.3032 20.892 13.4451C20.9629 13.8139 21 14.1946 21 14.5841C21 14.9608 20.9653 15.3293 20.8989 15.6867C20.965 15.9752 20.9999 16.2756 20.9999 16.5841C20.9999 17.2398 20.8425 17.8573 20.5639 18.4022C20.5126 18.5026 20.4967 18.6174 20.5188 18.7279L20.8625 20.4467L19.1439 20.1029C19.0334 20.0808 18.9186 20.0967 18.8182 20.148C18.2732 20.4267 17.6557 20.5841 16.9999 20.5841C16.6914 20.5841 16.391 20.5492 16.1025 20.483C15.7451 20.5494 15.3766 20.5841 15 20.5841C14.6108 20.5841 14.2297 20.5469 13.8604 20.4757Z" fill="#00BEE8"/>
</svg>
