<svg preserveAspectRatio="none" width="100%" height="100%" overflow="visible" style="display: block;" viewBox="0 0 11.9776 11.9776" fill="none" xmlns="http://www.w3.org/2000/svg">
<path id="Shape" d="M5.99798 0.455156C6.02277 0.730184 5.8199 0.97323 5.54488 0.998014C2.997 1.22762 1 3.36968 1 5.97761C1 8.73903 3.23858 10.9776 6 10.9776C8.60793 10.9776 10.75 8.98061 10.9796 6.43273C11.0044 6.15771 11.2474 5.95484 11.5225 5.97963C11.7975 6.00441 12.0003 6.24746 11.9756 6.52249C11.6999 9.58111 9.13011 11.9776 6 11.9776C2.68629 11.9776 0 9.29132 0 5.97761C0 2.8475 2.3965 0.277677 5.45512 0.00204951C5.73015 -0.0227346 5.9732 0.180128 5.99798 0.455156ZM5.5 2.97757C5.77614 2.97757 6 3.20143 6 3.47757V5.97757H7.5C7.77614 5.97757 8 6.20143 8 6.47757C8 6.75371 7.77614 6.97757 7.5 6.97757H5.5C5.22386 6.97757 5 6.75371 5 6.47757V3.47757C5 3.20143 5.22386 2.97757 5.5 2.97757ZM7.63608 0.203476C7.37036 0.128321 7.09403 0.282804 7.01887 0.548522C6.94372 0.814241 7.0982 1.09057 7.36392 1.16573C7.9114 1.32058 8.42095 1.5665 8.8752 1.88638C9.10098 2.04537 9.41289 1.99123 9.57189 1.76545C9.73088 1.53967 9.67674 1.22775 9.45096 1.06876C8.90614 0.685096 8.29422 0.389621 7.63608 0.203476ZM10.9088 2.52661C10.7498 2.30083 10.4379 2.24669 10.2121 2.40568C9.98634 2.56468 9.9322 2.87659 10.0912 3.10237C10.4111 3.55661 10.657 4.06617 10.8118 4.61365C10.887 4.87937 11.1633 5.03385 11.429 4.9587C11.6948 4.88354 11.8492 4.60721 11.7741 4.34149C11.5879 3.68335 11.2925 3.07143 10.9088 2.52661Z" fill="var(--fill-0, #00BEE8)"/>
</svg>
