<svg preserveAspectRatio="none" width="100%" height="100%" overflow="visible" style="display: block;" viewBox="0 0 11.5971 11.597" fill="none" xmlns="http://www.w3.org/2000/svg">
<path id="Shape" d="M5.95949 3.34087C6.5932 2.70716 7.61972 2.71229 8.25228 3.34485C8.88484 3.97741 8.88996 5.00393 8.25626 5.63764C7.62255 6.27134 6.59603 6.26622 5.96347 5.63366C5.33091 5.0011 5.32578 3.97458 5.95949 3.34087ZM7.54517 4.05196C7.29979 3.80657 6.90644 3.80814 6.6666 4.04798C6.42676 4.28782 6.42519 4.68117 6.67058 4.92655C6.91596 5.17194 7.30931 5.17037 7.54915 4.93053C7.78899 4.69069 7.79056 4.29734 7.54517 4.05196ZM11.3736 1.49549C11.1827 0.889257 10.7078 0.414408 10.1016 0.223525C8.38104 -0.318222 6.50197 0.141974 5.22647 1.41747L4.59766 2.04628C3.73011 1.67295 2.68547 1.84056 1.97692 2.5491L1.19145 3.33458C0.996185 3.52984 0.996185 3.84642 1.19145 4.04168L2.04136 4.8916C1.91083 5.39018 2.04093 5.94285 2.43167 6.33359L2.59849 6.50041L1.82606 6.96225C1.6938 7.04133 1.60539 7.17698 1.58644 7.32992C1.5675 7.48285 1.62013 7.63598 1.7291 7.74495L3.85211 9.86796C3.96105 9.9769 4.11413 10.0295 4.26703 10.0106C4.41993 9.99172 4.55557 9.90338 4.6347 9.77118L5.09694 8.99886L5.26349 9.16541C5.65419 9.55611 6.20679 9.68623 6.70533 9.55576L7.55539 10.4058C7.75065 10.6011 8.06723 10.6011 8.26249 10.4058L9.04797 9.62034C9.75655 8.91177 9.92414 7.86706 9.55073 6.99949L10.1796 6.37062C11.4551 5.09511 11.9153 3.21605 11.3736 1.49549ZM9.80126 1.17736C10.096 1.27017 10.3269 1.50106 10.4197 1.79582C10.8495 3.16083 10.4844 4.65159 9.4725 5.66351L6.6777 8.45831C6.48244 8.65357 6.16586 8.65357 5.97059 8.4583L3.13878 5.62649C2.94352 5.43123 2.94352 5.11464 3.13878 4.91938L5.93358 2.12458C6.9455 1.11266 8.43626 0.747564 9.80126 1.17736ZM8.73812 7.8121C8.7746 8.20566 8.64218 8.61192 8.34086 8.91324L7.90894 9.34516L7.557 8.99322L8.73812 7.8121ZM2.68403 3.25621C2.98531 2.95493 3.3915 2.8225 3.78501 2.85893L2.60396 4.03998L2.25211 3.68813L2.68403 3.25621ZM4.36787 8.26979L4.10589 8.70752L2.88975 7.49138L3.32764 7.22956L4.36787 8.26979ZM2.44463 9.85964C2.63989 9.66437 2.63989 9.34779 2.44463 9.15253C2.24937 8.95727 1.93279 8.95727 1.73752 9.15253L0.417282 10.4728C0.222019 10.668 0.222019 10.9846 0.417282 11.1799C0.612544 11.3751 0.929126 11.3751 1.12439 11.1799L2.44463 9.85964ZM1.38299 8.09113C1.57825 8.28639 1.57825 8.60297 1.38299 8.79823L0.853553 9.32767C0.658291 9.52293 0.341709 9.52293 0.146447 9.32767C-0.0488156 9.1324 -0.0488155 8.81582 0.146447 8.62056L0.675879 8.09113C0.871142 7.89586 1.18772 7.89586 1.38299 8.09113ZM3.50603 10.9212C3.7013 10.7259 3.7013 10.4093 3.50603 10.2141C3.31077 10.0188 2.99419 10.0188 2.79893 10.2141L2.26949 10.7435C2.07423 10.9387 2.07423 11.2553 2.26949 11.4506C2.46476 11.6459 2.78134 11.6459 2.9766 11.4506L3.50603 10.9212Z" fill="var(--fill-0, #00BEE8)"/>
</svg>
