<svg width="120" height="24" viewBox="0 0 120 24" fill="none" xmlns="http://www.w3.org/2000/svg">
<path d="M56.4539 18.7885H44.3854L42.311 22.9999H35.5854L46.9625 1H53.9711L65.3482 22.9999H58.5282L56.4539 18.7885ZM54.2225 14.2314L50.4197 6.43711L46.5854 14.2314H54.2225Z" fill="#006689"/>
<path d="M63.5775 1.02832L74.6089 21.1706L85.609 1.02832H87.4003L75.4575 22.9998H73.6975L61.7232 1.02832H63.5775Z" fill="#DD006F"/>
<path d="M65.43 1L76.4614 21.1423L87.4615 1H89.2528L77.31 22.9715H75.55L63.5757 1H65.43Z" fill="#FFCC00"/>
<path d="M67.2811 1L78.3125 21.1423L89.3126 1H91.1039L79.1611 22.9715H77.4012L65.4268 1H67.2811Z" fill="#00BDD1"/>
<path d="M107.787 18.7885H95.7181L93.6438 22.9999H86.9181L98.2952 1H105.304L116.681 22.9999H109.861L107.787 18.7885ZM105.555 14.2314L101.752 6.43711L97.9181 14.2314H105.555Z" fill="#006689"/>
<path d="M32.7205 5.02285L12.6848 18.2754H33.2234V23H3.31909V18.8199L23.3862 5.77703H3.31909V1H32.7205L32.7205 5.02285Z" fill="#006689"/>
</svg>
