<svg width="20" height="20" viewBox="0 0 20 20" fill="none" xmlns="http://www.w3.org/2000/svg">
<path d="M11.5 3.00008C11.7761 3.00008 12 3.22394 12 3.50008C12 3.7762 11.7761 4.00008 11.5 4.00008H6C4.89543 4.00008 4 4.89551 4 6.00008V14.0001C4.00003 15.1046 4.89545 16.0001 6 16.0001H14C15.1046 16.0001 16 15.1046 16 14.0001V8.50008C16 8.22394 16.2239 8.00008 16.5 8.00008C16.7761 8.00008 17 8.22394 17 8.50008V14.0001C17 15.6569 15.6568 17.0001 14 17.0001H6C4.34316 17.0001 3.00003 15.6569 3 14.0001V6.00008C3 4.34323 4.34315 3.00008 6 3.00008H11.5ZM17.1465 2.14657C17.3417 1.95131 17.6583 1.95131 17.8535 2.14657C18.0488 2.34183 18.0488 2.65834 17.8535 2.8536L9.85352 10.8536L9 11.0001L9.14648 10.1466L17.1465 2.14657Z" fill="white"/>
</svg>
