<svg width="20" height="20" viewBox="0 0 20 20" fill="none" xmlns="http://www.w3.org/2000/svg">
<circle cx="9.5" cy="8.5" r="4.5" fill="url(#paint0_radial_7_5527)"/>
<circle cx="9.5" cy="8.5" r="4.5" fill="url(#paint1_radial_7_5527)" fill-opacity="0.6"/>
<circle cx="9.5" cy="8.5" r="4.5" fill="url(#paint2_radial_7_5527)" fill-opacity="0.6"/>
<rect x="9" y="8" width="8" height="8" rx="2" fill="url(#paint3_radial_7_5527)"/>
<path d="M13.9717 8C13.9898 8.1642 14 8.33096 14 8.5C14 10.9853 11.9853 13 9.5 13C9.33093 13 9.16423 12.9889 9 12.9707V10C9 8.89543 9.89543 8 11 8H13.9717Z" fill="url(#paint4_linear_7_5527)"/>
<path d="M13.9717 8C13.9898 8.1642 14 8.33096 14 8.5C14 10.9853 11.9853 13 9.5 13C9.33093 13 9.16423 12.9889 9 12.9707V10C9 8.89543 9.89543 8 11 8H13.9717Z" fill="url(#paint5_linear_7_5527)"/>
<path d="M7 11.7178C7 15.1673 5.9375 16.9687 5 16.9687C4.1875 16.9687 3 15.474 3 11.7178C3 8.51104 3.89543 8 5 8C5.98438 8 7 8.2683 7 11.7178Z" fill="url(#paint6_linear_7_5527)"/>
<path d="M7 11.7178C7 15.1673 5.9375 16.9687 5 16.9687C4.1875 16.9687 3 15.474 3 11.7178C3 8.51104 3.89543 8 5 8C5.98438 8 7 8.2683 7 11.7178Z" fill="url(#paint7_radial_7_5527)" fill-opacity="0.5"/>
<path d="M7 11.7178C7 15.1673 5.9375 16.9687 5 16.9687C4.1875 16.9687 3 15.474 3 11.7178C3 8.51104 3.89543 8 5 8C5.98438 8 7 8.2683 7 11.7178Z" fill="url(#paint8_linear_7_5527)"/>
<path d="M7 11.7178C7 15.1673 5.9375 16.9687 5 16.9687C4.1875 16.9687 3 15.474 3 11.7178C3 8.51104 3.89543 8 5 8C5.98438 8 7 8.2683 7 11.7178Z" fill="url(#paint9_radial_7_5527)" fill-opacity="0.7"/>
<path d="M3.0459 10.5769C3.24177 8.38423 4.0423 8 5.00006 8C5.86257 8 6.74907 8.20598 6.95535 10.5774C6.4015 10.8936 5.72777 11.079 5.00107 11.079C4.27398 11.079 3.59991 10.8934 3.0459 10.5769Z" fill="white" fill-opacity="0.15"/>
<path d="M5.5809 3.12516C5.74705 3.27184 5.7964 3.50986 5.70381 3.7099C5.70044 3.71908 5.6875 3.76074 5.6875 3.8125C5.6875 3.87632 5.70345 3.99635 5.85355 4.14645C5.98575 4.27865 6.06284 4.34137 6.2147 4.48817C6.34326 4.61244 6.48131 4.75807 6.60353 4.9414C6.85878 5.32428 7 5.80266 7 6.5C7 7.96994 6.02308 9 5 9C3.97692 9 3 7.96994 3 6.5C3 5.77973 3.30226 4.99289 3.68863 4.39408C3.92008 4.00387 4.24542 3.67734 4.49671 3.45654C4.64817 3.32347 4.80662 3.19838 4.97265 3.08398C5.16129 2.95822 5.41094 2.97512 5.5809 3.12516Z" fill="url(#paint10_radial_7_5527)"/>
<defs>
<radialGradient id="paint0_radial_7_5527" cx="0" cy="0" r="1" gradientTransform="matrix(2.45201 -11.9257 11.9299 2.43132 5.83591 15.2012)" gradientUnits="userSpaceOnUse">
<stop offset="0.221888" stop-color="#4E46E2"/>
<stop offset="0.577558" stop-color="#625DF6"/>
<stop offset="0.954926" stop-color="#E37DFF"/>
</radialGradient>
<radialGradient id="paint1_radial_7_5527" cx="0" cy="0" r="1" gradientUnits="userSpaceOnUse" gradientTransform="translate(3.81762 10.8632) rotate(-17.2815) scale(4.91501 6.43369)">
<stop offset="0.566147" stop-color="#251FBA"/>
<stop offset="1" stop-color="#5E51E4" stop-opacity="0"/>
</radialGradient>
<radialGradient id="paint2_radial_7_5527" cx="0" cy="0" r="1" gradientUnits="userSpaceOnUse" gradientTransform="translate(3.48125 7.52538) rotate(8.25944) scale(4.52116 4.62151)">
<stop offset="0.566147" stop-color="#251FBA"/>
<stop offset="1" stop-color="#5E51E4" stop-opacity="0"/>
</radialGradient>
<radialGradient id="paint3_radial_7_5527" cx="0" cy="0" r="1" gradientTransform="matrix(6.97813 6.38584 -8.65732 9.49317 10.0219 8.5714)" gradientUnits="userSpaceOnUse">
<stop stop-color="#C354FF"/>
<stop offset="0.157798" stop-color="#B339F0"/>
<stop offset="0.429343" stop-color="#F24A9D"/>
<stop offset="0.748908" stop-color="#FF835C"/>
<stop offset="1" stop-color="#FFC470"/>
</radialGradient>
<linearGradient id="paint4_linear_7_5527" x1="13.592" y1="13.0312" x2="9.52264" y2="7.05077" gradientUnits="userSpaceOnUse">
<stop offset="0.194812" stop-color="#6D37CD"/>
<stop offset="0.764931" stop-color="#EA71EF"/>
</linearGradient>
<linearGradient id="paint5_linear_7_5527" x1="14.4531" y1="14.4375" x2="7.96376" y2="5.36739" gradientUnits="userSpaceOnUse">
<stop offset="0.194812" stop-color="#7631FF"/>
<stop offset="0.885651" stop-color="#E63080"/>
</linearGradient>
<linearGradient id="paint6_linear_7_5527" x1="2.0625" y1="11.8072" x2="6.04992" y2="16.4987" gradientUnits="userSpaceOnUse">
<stop stop-color="#0FAFFF"/>
<stop offset="1" stop-color="#2764E7"/>
</linearGradient>
<radialGradient id="paint7_radial_7_5527" cx="0" cy="0" r="1" gradientTransform="matrix(1.51041 8.8071 -21.8292 17.5469 4.83333 7.43945)" gradientUnits="userSpaceOnUse">
<stop offset="0.5" stop-color="#DD3CE2" stop-opacity="0"/>
<stop offset="1" stop-color="#DD3CE2"/>
</radialGradient>
<linearGradient id="paint8_linear_7_5527" x1="8.5" y1="12.1082" x2="1.5" y2="12.1082" gradientUnits="userSpaceOnUse">
<stop offset="0.307407" stop-color="#0D91E1"/>
<stop offset="0.760677" stop-color="#52B471"/>
</linearGradient>
<radialGradient id="paint9_radial_7_5527" cx="0" cy="0" r="1" gradientUnits="userSpaceOnUse" gradientTransform="translate(3.83772 8) rotate(-73.0638) scale(4.61959 8.15887)">
<stop offset="0.168605" stop-color="#02888D"/>
<stop offset="0.259941" stop-color="#02888D" stop-opacity="0"/>
</radialGradient>
<radialGradient id="paint10_radial_7_5527" cx="0" cy="0" r="1" gradientTransform="matrix(-1.30083 4.37653 -4.35877 -1.3701 5.84876 4.96038)" gradientUnits="userSpaceOnUse">
<stop stop-color="#FF9532"/>
<stop offset="0.251092" stop-color="#FF835C"/>
<stop offset="1" stop-color="#F24A9D"/>
</radialGradient>
</defs>
</svg>
