<svg width="20" height="20" viewBox="0 0 20 20" fill="none" xmlns="http://www.w3.org/2000/svg">
<path d="M14 1.5C16.4853 1.5 18.5 3.51472 18.5 6V17C18.5 17.8284 17.8284 18.5 17 18.5H7C6.17157 18.5 5.5 17.8284 5.5 17V3C5.5 2.17157 6.17157 1.5 7 1.5H14Z" fill="white"/>
<path d="M14 1.5C16.4853 1.5 18.5 3.51472 18.5 6V17C18.5 17.8284 17.8284 18.5 17 18.5H7C6.17157 18.5 5.5 17.8284 5.5 17V3C5.5 2.17157 6.17157 1.5 7 1.5H14Z" stroke="#858585"/>
<path d="M11 7H15.5C15.7761 7 16 7.22386 16 7.5C16 7.77614 15.7761 8 15.5 8H11V7Z" fill="#BDBDBD"/>
<path d="M11 9H15.5C15.7761 9 16 9.22386 16 9.5C16 9.77614 15.7761 10 15.5 10H11V9Z" fill="#BDBDBD"/>
<path d="M11 11H15.5C15.7761 11 16 11.2239 16 11.5C16 11.7761 15.7761 12 15.5 12H11V11Z" fill="#BDBDBD"/>
<path d="M11 13H14.5C14.7761 13 15 13.2239 15 13.5C15 13.7761 14.7761 14 14.5 14H11V13Z" fill="#BDBDBD"/>
<path d="M1 13.1728L5.15385 7.75L10 11.2738V14.9063C10 15.5103 9.51031 16 8.90625 16H2.875C1.83947 16 1 15.1605 1 14.125V13.1728Z" fill="url(#paint0_radial_274_13679)"/>
<path d="M1 9.87019C1 9.09354 1.6296 8.46394 2.40625 8.46394H9.07692L10 7.75V11.125C10 11.7291 9.51031 12.2188 8.90625 12.2188H2.71875C1.76951 12.2188 1 12.9883 1 13.9375V9.87019Z" fill="url(#paint1_linear_274_13679)"/>
<path d="M1 9.87019C1 9.09354 1.6296 8.46394 2.40625 8.46394H9.07692L10 7.75V11.125C10 11.7291 9.51031 12.2188 8.90625 12.2188H2.71875C1.76951 12.2188 1 12.9883 1 13.9375V9.87019Z" fill="url(#paint2_radial_274_13679)" fill-opacity="0.6"/>
<path d="M1 9.87019C1 9.09354 1.6296 8.46394 2.40625 8.46394H9.07692L10 7.75V11.125C10 11.7291 9.51031 12.2188 8.90625 12.2188H2.71875C1.76951 12.2188 1 12.9883 1 13.9375V9.87019Z" fill="url(#paint3_radial_274_13679)" fill-opacity="0.1"/>
<path d="M1 6.875C1 5.83947 1.83947 5 2.875 5H8.90625C9.51031 5 10 5.48969 10 6.09375V7.6875C10 8.29156 9.51031 8.78125 8.90625 8.78125H2.71875C1.76951 8.78125 1 9.55076 1 10.5V6.875Z" fill="url(#paint4_linear_274_13679)"/>
<path d="M1 6.875C1 5.83947 1.83947 5 2.875 5H8.90625C9.51031 5 10 5.48969 10 6.09375V7.6875C10 8.29156 9.51031 8.78125 8.90625 8.78125H2.71875C1.76951 8.78125 1 9.55076 1 10.5V6.875Z" fill="url(#paint5_radial_274_13679)" fill-opacity="0.8"/>
<defs>
<radialGradient id="paint0_radial_274_13679" cx="0" cy="0" r="1" gradientUnits="userSpaceOnUse" gradientTransform="translate(9.73763 15.9998) scale(14.272 6.39356)">
<stop offset="0.180414" stop-color="#1657F4"/>
<stop offset="0.574542" stop-color="#0036C4"/>
</radialGradient>
<linearGradient id="paint1_linear_274_13679" x1="1" y1="10.8437" x2="7.8924" y2="10.8437" gradientUnits="userSpaceOnUse">
<stop stop-color="#66C0FF"/>
<stop offset="0.25606" stop-color="#0094F0"/>
</linearGradient>
<radialGradient id="paint2_radial_274_13679" cx="0" cy="0" r="1" gradientTransform="matrix(-6.06914 5.98619 -13.3404 -16.3655 10 7.95131)" gradientUnits="userSpaceOnUse">
<stop offset="0.140259" stop-color="#D471FF"/>
<stop offset="0.830508" stop-color="#509DF5" stop-opacity="0"/>
</radialGradient>
<radialGradient id="paint3_radial_274_13679" cx="0" cy="0" r="1" gradientUnits="userSpaceOnUse" gradientTransform="translate(8.68332 12.0337) rotate(90) scale(5.23558 30.4941)">
<stop offset="0.283333" stop-color="#4F006F" stop-opacity="0"/>
<stop offset="1" stop-color="#4F006F"/>
</radialGradient>
<linearGradient id="paint4_linear_274_13679" x1="1" y1="7.75" x2="9.99763" y2="7.89593" gradientUnits="userSpaceOnUse">
<stop stop-color="#9DEAFF"/>
<stop offset="0.201276" stop-color="#3BD5FF"/>
</linearGradient>
<radialGradient id="paint5_radial_274_13679" cx="0" cy="0" r="1" gradientTransform="matrix(-8.61661 2.04953 -5.39938 -20.882 10 5.17894)" gradientUnits="userSpaceOnUse">
<stop offset="0.0606583" stop-color="#E4A7FE"/>
<stop offset="0.538869" stop-color="#E4A7FE" stop-opacity="0"/>
</radialGradient>
</defs>
</svg>
