<svg width="20" height="20" viewBox="0 0 20 20" fill="none" xmlns="http://www.w3.org/2000/svg">
<path d="M10.7545 6.42628C11.535 5.64586 12.8002 5.64651 13.5806 6.42688C14.361 7.20725 14.3616 8.47252 13.5812 9.25293C12.8008 10.0333 11.5355 10.0327 10.7552 9.25232C9.97478 8.47196 9.97413 7.20669 10.7545 6.42628ZM12.8735 7.13399C12.4833 6.74377 11.8512 6.74388 11.4617 7.13338C11.0721 7.52289 11.072 8.15499 11.4623 8.54522C11.8525 8.93544 12.4846 8.93533 12.8741 8.54582C13.2636 8.15631 13.2637 7.52421 12.8735 7.13399ZM11.7486 14.5048C11.1917 14.7689 10.5058 14.6705 10.045 14.2098L9.43575 13.6005L8.70373 14.8207C8.62451 14.9527 8.48889 15.0409 8.33607 15.0597C8.18325 15.0785 8.03029 15.0259 7.92141 14.917L5.09073 12.0863C4.98182 11.9774 4.92919 11.8244 4.94804 11.6716C4.9669 11.5187 5.05514 11.3831 5.18724 11.3039L6.40769 10.5724L5.79785 9.96261C5.33711 9.50187 5.23876 8.81596 5.5028 8.25909L4.38312 7.13941C4.18786 6.94415 4.18786 6.62757 4.38312 6.43231L5.44297 5.37245C6.36599 4.44943 7.74053 4.25313 8.85561 4.78353L9.79306 3.84608C11.4493 2.18988 13.8881 1.59024 16.1235 2.2896C16.8842 2.52762 17.48 3.1234 17.718 3.88416C18.4174 6.11954 17.8177 8.55836 16.1615 10.2146L15.2242 11.1519C15.7547 12.267 15.5584 13.6417 14.6354 14.5648L13.5755 15.6246C13.3802 15.8199 13.0637 15.8199 12.8684 15.6246L11.7486 14.5048ZM15.8249 3.24398C13.9446 2.65572 11.8932 3.1601 10.5002 4.55319L9.68467 5.36868L9.68844 5.37245L8.98133 6.07956L8.97756 6.07579L6.85564 8.19772L6.8594 8.20149L6.45692 8.60397C6.31128 8.79974 6.32729 9.07784 6.50496 9.2555L10.7521 13.5027C10.9302 13.6807 11.2091 13.6964 11.4049 13.5497L11.8063 13.1484L11.8099 13.152L13.9319 11.03L13.9282 11.0264L14.6354 10.3193L14.639 10.3229L15.4544 9.50745C16.8475 8.11437 17.3519 6.063 16.7636 4.18275C16.6235 3.73487 16.2728 3.38411 15.8249 3.24398ZM12.517 13.8591L13.2219 14.564L13.9282 13.8577C14.451 13.3349 14.6242 12.5949 14.4479 11.9282L12.517 13.8591ZM8.0793 5.55984C7.41265 5.3836 6.6728 5.55684 6.15008 6.07956L5.44378 6.78586L6.14853 7.49061L8.0793 5.55984ZM8.70687 12.8716L7.13664 11.3014L6.25089 11.8323L8.17568 13.7571L8.70687 12.8716ZM5.80244 14.9122C5.9977 14.7169 5.9977 14.4003 5.80244 14.2051C5.60718 14.0098 5.29059 14.0098 5.09533 14.2051L3.32716 15.9732C3.1319 16.1685 3.1319 16.4851 3.32716 16.6804C3.52242 16.8756 3.83901 16.8756 4.03427 16.6804L5.80244 14.9122ZM4.38716 12.7898C4.58242 12.9851 4.58242 13.3016 4.38716 13.4969L3.67826 14.2058C3.483 14.4011 3.16642 14.4011 2.97115 14.2058C2.77589 14.0105 2.77589 13.694 2.97115 13.4987L3.68005 12.7898C3.87531 12.5945 4.19189 12.5945 4.38716 12.7898ZM7.21784 16.3276C7.41311 16.1323 7.41311 15.8157 7.21784 15.6205C7.02258 15.4252 6.706 15.4252 6.51074 15.6205L5.80184 16.3294C5.60658 16.5246 5.60658 16.8412 5.80184 17.0365C5.9971 17.2317 6.31369 17.2317 6.50895 17.0365L7.21784 16.3276Z" fill="#242424"/>
</svg>
