<svg width="24" height="24" viewBox="0 0 24 24" fill="none" xmlns="http://www.w3.org/2000/svg">
<path d="M7.25 6C7.25 6.69036 6.69036 7.25 6 7.25C5.30964 7.25 4.75 6.69036 4.75 6C4.75 5.30964 5.30964 4.75 6 4.75C6.69036 4.75 7.25 5.30964 7.25 6ZM19.25 18C19.25 18.6904 18.6904 19.25 18 19.25C17.3096 19.25 16.75 18.6904 16.75 18C16.75 17.3096 17.3096 16.75 18 16.75C18.6904 16.75 19.25 17.3096 19.25 18ZM18 13.25C18.6904 13.25 19.25 12.6904 19.25 12C19.25 11.3096 18.6904 10.75 18 10.75C17.3096 10.75 16.75 11.3096 16.75 12C16.75 12.6904 17.3096 13.25 18 13.25ZM19.25 6C19.25 6.69036 18.6904 7.25 18 7.25C17.3096 7.25 16.75 6.69036 16.75 6C16.75 5.30964 17.3096 4.75 18 4.75C18.6904 4.75 19.25 5.30964 19.25 6ZM12 19.25C12.6904 19.25 13.25 18.6904 13.25 18C13.25 17.3096 12.6904 16.75 12 16.75C11.3096 16.75 10.75 17.3096 10.75 18C10.75 18.6904 11.3096 19.25 12 19.25ZM13.25 12C13.25 12.6904 12.6904 13.25 12 13.25C11.3096 13.25 10.75 12.6904 10.75 12C10.75 11.3096 11.3096 10.75 12 10.75C12.6904 10.75 13.25 11.3096 13.25 12ZM12 7.25C12.6904 7.25 13.25 6.69036 13.25 6C13.25 5.30964 12.6904 4.75 12 4.75C11.3096 4.75 10.75 5.30964 10.75 6C10.75 6.69036 11.3096 7.25 12 7.25ZM7.25 18C7.25 18.6904 6.69036 19.25 6 19.25C5.30964 19.25 4.75 18.6904 4.75 18C4.75 17.3096 5.30964 16.75 6 16.75C6.69036 16.75 7.25 17.3096 7.25 18ZM6 13.25C6.69036 13.25 7.25 12.6904 7.25 12C7.25 11.3096 6.69036 10.75 6 10.75C5.30964 10.75 4.75 11.3096 4.75 12C4.75 12.6904 5.30964 13.25 6 13.25Z" fill="#3D3D3D"/>
</svg>
