<svg width="32" height="32" viewBox="0 0 32 32" fill="none" xmlns="http://www.w3.org/2000/svg">
<path d="M8 10.5C8 10.2239 8.22386 10 8.5 10H19.5C19.7761 10 20 10.2239 20 10.5C20 10.7761 19.7761 11 19.5 11H8.5C8.22386 11 8 10.7761 8 10.5ZM8 20.5C8 20.2239 8.22386 20 8.5 20H18.5C18.7761 20 19 20.2239 19 20.5C19 20.7761 18.7761 21 18.5 21H8.5C8.22386 21 8 20.7761 8 20.5ZM8.5 15C8.22386 15 8 15.2239 8 15.5C8 15.7761 8.22386 16 8.5 16H23.5C23.7761 16 24 15.7761 24 15.5C24 15.2239 23.7761 15 23.5 15H8.5Z" fill="#424242"/>
</svg>
