<svg width="20" height="20" viewBox="0 0 20 20" fill="none" xmlns="http://www.w3.org/2000/svg">
<g clip-path="url(#clip0_274_26273)">
<path d="M6 3C6 2.44772 6.44772 2 7 2H14C16.2091 2 18 3.79086 18 6V17C18 17.5523 17.5523 18 17 18H7C6.44772 18 6 17.5523 6 17V3Z" fill="white"/>
<rect x="8" y="7" width="8" height="1" rx="0.5" fill="#BDBDBD"/>
<rect x="8" y="9" width="8" height="5" rx="1" fill="#BDBDBD"/>
<path d="M6.49902 4.5C9.8125 4.5 12.499 7.18633 12.499 10.5C12.499 13.8137 9.8125 16.5 6.49902 16.5C3.18577 16.4997 0.5 13.8135 0.5 10.5C0.5 7.1865 3.18577 4.50026 6.49902 4.5Z" fill="url(#paint0_linear_274_26273)"/>
<path d="M6.49902 4.5C9.8125 4.5 12.499 7.18633 12.499 10.5C12.499 13.8137 9.8125 16.5 6.49902 16.5C3.18577 16.4997 0.5 13.8135 0.5 10.5C0.5 7.1865 3.18577 4.50026 6.49902 4.5Z" fill="url(#paint1_radial_274_26273)"/>
<path d="M6.49902 4.5C9.8125 4.5 12.499 7.18633 12.499 10.5C12.499 13.8137 9.8125 16.5 6.49902 16.5C3.18577 16.4997 0.5 13.8135 0.5 10.5C0.5 7.1865 3.18577 4.50026 6.49902 4.5Z" fill="url(#paint2_radial_274_26273)" fill-opacity="0.5"/>
<path d="M6.49902 4.5C9.8125 4.5 12.499 7.18633 12.499 10.5C12.499 13.8137 9.8125 16.5 6.49902 16.5C3.18577 16.4997 0.5 13.8135 0.5 10.5C0.5 7.1865 3.18577 4.50026 6.49902 4.5Z" stroke="white"/>
</g>
<path d="M14 1.5C16.4853 1.5 18.5 3.51472 18.5 6V17C18.5 17.8284 17.8284 18.5 17 18.5H7C6.17157 18.5 5.5 17.8284 5.5 17V3C5.5 2.17157 6.17157 1.5 7 1.5H14Z" stroke="#858585"/>
<ellipse cx="6.49951" cy="10.5" rx="5.49951" ry="5.5" fill="url(#paint3_linear_274_26273)"/>
<ellipse cx="6.49951" cy="10.5" rx="5.49951" ry="5.5" fill="url(#paint4_radial_274_26273)"/>
<ellipse cx="6.49951" cy="10.5" rx="5.49951" ry="5.5" fill="url(#paint5_radial_274_26273)" fill-opacity="0.5"/>
<path d="M6.49902 5C9.53632 5 11.999 7.46243 11.999 10.5C11.999 11.5088 11.725 12.4528 11.251 13.2656L11.377 12.9893C11.9041 11.8191 11.048 10.4943 9.76465 10.4941H7.44922C6.92198 10.4941 6.49466 10.0663 6.49512 9.53906L6.49707 7.23438C6.49803 5.94932 5.17099 5.09267 4 5.62207L3.77148 5.72461C4.57548 5.26428 5.50621 5.00004 6.49902 5Z" fill="url(#paint6_linear_274_26273)"/>
<path d="M6.49902 5C9.53632 5 11.999 7.46243 11.999 10.5C11.999 11.5088 11.725 12.4528 11.251 13.2656L11.377 12.9893C11.9041 11.8191 11.048 10.4943 9.76465 10.4941H7.44922C6.92198 10.4941 6.49466 10.0663 6.49512 9.53906L6.49707 7.23438C6.49803 5.94932 5.17099 5.09267 4 5.62207L3.77148 5.72461C4.57548 5.26428 5.50621 5.00004 6.49902 5Z" fill="url(#paint7_radial_274_26273)"/>
<path d="M6.49902 5C9.53632 5 11.999 7.46243 11.999 10.5C11.999 11.5088 11.725 12.4528 11.251 13.2656L11.377 12.9893C11.9041 11.8191 11.048 10.4943 9.76465 10.4941H7.44922C6.92198 10.4941 6.49466 10.0663 6.49512 9.53906L6.49707 7.23438C6.49803 5.94932 5.17099 5.09267 4 5.62207L3.77148 5.72461C4.57548 5.26428 5.50621 5.00004 6.49902 5Z" fill="url(#paint8_radial_274_26273)" fill-opacity="0.8"/>
<path d="M6.49902 5C9.53632 5 11.999 7.46243 11.999 10.5C11.999 11.5088 11.725 12.4528 11.251 13.2656L11.377 12.9893C11.9041 11.8191 11.048 10.4943 9.76465 10.4941H7.44922C6.92198 10.4941 6.49466 10.0663 6.49512 9.53906L6.49707 7.23438C6.49803 5.94932 5.17099 5.09267 4 5.62207L3.77148 5.72461C4.57548 5.26428 5.50621 5.00004 6.49902 5Z" fill="url(#paint9_radial_274_26273)"/>
<path d="M6.49902 5C9.53632 5 11.999 7.46243 11.999 10.5C11.999 11.5088 11.725 12.4528 11.251 13.2656L11.377 12.9893C11.9041 11.8191 11.048 10.4943 9.76465 10.4941H7.44922C6.92198 10.4941 6.49466 10.0663 6.49512 9.53906L6.49707 7.23438C6.49803 5.94932 5.17099 5.09267 4 5.62207L3.77148 5.72461C4.57548 5.26428 5.50621 5.00004 6.49902 5Z" fill="url(#paint10_radial_274_26273)"/>
<defs>
<linearGradient id="paint0_linear_274_26273" x1="5.94149" y1="4.64984" x2="-0.797092" y2="11.0963" gradientUnits="userSpaceOnUse">
<stop offset="0.0582736" stop-color="#FF7F48"/>
<stop offset="1" stop-color="#E5495B"/>
</linearGradient>
<radialGradient id="paint1_radial_274_26273" cx="0" cy="0" r="1" gradientUnits="userSpaceOnUse" gradientTransform="translate(8.67342 8.19168) rotate(135) scale(11.0426 18.5862)">
<stop offset="0.151523" stop-color="#AA1D2D"/>
<stop offset="0.380855" stop-color="#D12B18" stop-opacity="0.44"/>
<stop offset="0.601996" stop-color="#FF3C00" stop-opacity="0"/>
</radialGradient>
<radialGradient id="paint2_radial_274_26273" cx="0" cy="0" r="1" gradientUnits="userSpaceOnUse" gradientTransform="translate(-0.919605 14.9707) rotate(-25.2832) scale(10.4679 18.9641)">
<stop offset="0.4067" stop-color="#FF66FB"/>
<stop offset="1" stop-color="#EA3D01" stop-opacity="0"/>
</radialGradient>
<linearGradient id="paint3_linear_274_26273" x1="5.94149" y1="4.64984" x2="-0.797092" y2="11.0963" gradientUnits="userSpaceOnUse">
<stop offset="0.0582736" stop-color="#FF7F48"/>
<stop offset="1" stop-color="#E5495B"/>
</linearGradient>
<radialGradient id="paint4_radial_274_26273" cx="0" cy="0" r="1" gradientUnits="userSpaceOnUse" gradientTransform="translate(8.67342 8.19168) rotate(135) scale(11.0426 18.5862)">
<stop offset="0.151523" stop-color="#AA1D2D"/>
<stop offset="0.380855" stop-color="#D12B18" stop-opacity="0.44"/>
<stop offset="0.601996" stop-color="#FF3C00" stop-opacity="0"/>
</radialGradient>
<radialGradient id="paint5_radial_274_26273" cx="0" cy="0" r="1" gradientUnits="userSpaceOnUse" gradientTransform="translate(-0.919605 14.9707) rotate(-25.2832) scale(10.4679 18.9641)">
<stop offset="0.4067" stop-color="#FF66FB"/>
<stop offset="1" stop-color="#EA3D01" stop-opacity="0"/>
</radialGradient>
<linearGradient id="paint6_linear_274_26273" x1="7.55396" y1="11.7198" x2="13.4656" y2="7.34897" gradientUnits="userSpaceOnUse">
<stop offset="0.310768" stop-color="#FF6E30"/>
<stop offset="0.634576" stop-color="#FFA05C"/>
</linearGradient>
<radialGradient id="paint7_radial_274_26273" cx="0" cy="0" r="1" gradientTransform="matrix(6.93787 1.45735 -1.87079 6.52847 5.5949 11.1539)" gradientUnits="userSpaceOnUse">
<stop offset="0.78593" stop-color="#FFA05C" stop-opacity="0"/>
<stop offset="0.904889" stop-color="#FFCE84"/>
</radialGradient>
<radialGradient id="paint8_radial_274_26273" cx="0" cy="0" r="1" gradientTransform="matrix(5.98946 -3.92861 3.75047 5.74 6.70696 10.4142)" gradientUnits="userSpaceOnUse">
<stop offset="0.295239" stop-color="#FF99E9"/>
<stop offset="0.727968" stop-color="#FF99E9" stop-opacity="0"/>
</radialGradient>
<radialGradient id="paint9_radial_274_26273" cx="0" cy="0" r="1" gradientTransform="matrix(5.01331 -5.75357 5.35066 4.46482 5.90319 11.2534)" gradientUnits="userSpaceOnUse">
<stop stop-color="#FD6EF9"/>
<stop offset="0.637205" stop-color="#FF9944"/>
<stop offset="0.85186" stop-color="#FCC479"/>
</radialGradient>
<radialGradient id="paint10_radial_274_26273" cx="0" cy="0" r="1" gradientTransform="matrix(-0.566287 3.84658 -8.6809 -1.22387 5.40442 5.72644)" gradientUnits="userSpaceOnUse">
<stop offset="0.144283" stop-color="#FF8D13"/>
<stop offset="0.537266" stop-color="#FF7F29" stop-opacity="0"/>
</radialGradient>
<clipPath id="clip0_274_26273">
<path d="M6 3C6 2.44772 6.44772 2 7 2H14C16.2091 2 18 3.79086 18 6V17C18 17.5523 17.5523 18 17 18H7C6.44772 18 6 17.5523 6 17V3Z" fill="white"/>
</clipPath>
</defs>
</svg>
