<svg width="24" height="24" viewBox="0 0 24 24" fill="none" xmlns="http://www.w3.org/2000/svg">
<path d="M12 5C9.79386 5 8 6.79386 8 9C8 9.27614 8.22386 9.5 8.5 9.5C8.77614 9.5 9 9.27614 9 9C9 7.34614 10.3461 6 12 6C13.6539 6 15 7.34614 15 9C15 10.2486 14.3078 10.8633 13.4246 11.6204L13.3935 11.647C12.5328 12.3845 11.5 13.2695 11.5 15V15.5C11.5 15.7761 11.7239 16 12 16C12.2761 16 12.5 15.7761 12.5 15.5V15C12.5 13.7514 13.1922 13.1367 14.0754 12.3796L14.1065 12.353C14.9672 11.6155 16 10.7305 16 9C16 6.79386 14.2061 5 12 5ZM12 19C12.4142 19 12.75 18.6642 12.75 18.25C12.75 17.8358 12.4142 17.5 12 17.5C11.5858 17.5 11.25 17.8358 11.25 18.25C11.25 18.6642 11.5858 19 12 19Z" fill="#616161"/>
</svg>
