<svg width="24" height="24" viewBox="0 0 24 24" fill="none" xmlns="http://www.w3.org/2000/svg">
<path d="M13.0572 7.43101C14.0335 6.4547 15.6164 6.4547 16.5927 7.43101C17.569 8.40732 17.569 9.99024 16.5927 10.9665C15.6164 11.9429 14.0335 11.9429 13.0572 10.9665C12.0809 9.99024 12.0809 8.40732 13.0572 7.43101ZM15.532 8.49167C15.1415 8.10115 14.5084 8.10115 14.1178 8.49167C13.7273 8.8822 13.7273 9.51536 14.1178 9.90589C14.5084 10.2964 15.1415 10.2964 15.532 9.90589C15.9226 9.51536 15.9226 8.8822 15.532 8.49167ZM21.5086 4.3224C21.2398 3.4576 20.5625 2.78056 19.6976 2.51214L19.0355 2.30667C16.642 1.56384 14.034 2.20827 12.2618 3.98038L11.266 4.97626C9.89622 3.94762 7.94316 4.05646 6.69685 5.30277L5.45432 6.5453C5.16142 6.8382 5.16142 7.31307 5.45432 7.60596L7.04529 9.19694L6.86548 9.37675C6.18206 10.0602 6.18206 11.1682 6.86548 11.8516L7.36083 12.347L5.96527 13.1429C5.76212 13.2588 5.62465 13.4628 5.59352 13.6946C5.56238 13.9263 5.64115 14.1594 5.80651 14.3247L9.69562 18.2138C9.86086 18.3791 10.0937 18.4579 10.3253 18.4269C10.557 18.3959 10.7609 18.2588 10.877 18.0559L11.6749 16.661L12.1721 17.1582C12.8555 17.8416 13.9635 17.8416 14.6469 17.1582L14.8237 16.9814L16.4133 18.571C16.7062 18.8639 17.1811 18.8639 17.474 18.571L18.7165 17.3285C19.9623 16.0826 20.0716 14.1306 19.0442 12.7609L20.0421 11.763C21.8149 9.99018 22.4591 7.38087 21.715 4.98671L21.5086 4.3224ZM19.253 3.94473C19.6461 4.06674 19.954 4.37449 20.0762 4.76758L20.2826 5.43189C20.8613 7.29401 20.3603 9.32348 18.9815 10.7023L13.5863 16.0975C13.4886 16.1952 13.3303 16.1952 13.2327 16.0975L7.92614 10.791C7.82851 10.6933 7.82851 10.535 7.92614 10.4374L13.3225 5.04104C14.7008 3.66273 16.7293 3.16151 18.5909 3.73927L19.253 3.94473ZM17.9641 13.841C18.4166 14.6068 18.3139 15.6098 17.6558 16.2678L16.9436 16.98L15.8844 15.9207L17.9641 13.841ZM7.75751 6.36343C8.41602 5.70492 9.42005 5.60251 10.186 6.0562L8.10595 8.13628L7.04531 7.07563L7.75751 6.36343ZM10.5756 15.5618L10.0623 16.4592L7.56209 13.959L8.46047 13.4466L10.5756 15.5618ZM6.68987 18.3944C6.98276 18.1015 6.98276 17.6267 6.68987 17.3338C6.39697 17.0409 5.9221 17.0409 5.62921 17.3338L3.15433 19.8087C2.86144 20.1015 2.86144 20.5764 3.15433 20.8693C3.44723 21.1622 3.9221 21.1622 4.21499 20.8693L6.68987 18.3944ZM4.74529 15.3892C5.03818 15.6821 5.03818 16.157 4.74529 16.4499L3.68463 17.5106C3.39173 17.8035 2.91686 17.8035 2.62397 17.5106C2.33107 17.2177 2.33107 16.7428 2.62397 16.4499L3.68463 15.3892C3.97752 15.0963 4.45239 15.0963 4.74529 15.3892ZM8.63238 20.3411C8.92528 20.0482 8.92528 19.5733 8.63239 19.2804C8.33951 18.9875 7.86463 18.9875 7.57173 19.2804L6.51313 20.339C6.22023 20.6319 6.22023 21.1067 6.51312 21.3996C6.80601 21.6925 7.28088 21.6925 7.57378 21.3997L8.63238 20.3411Z" fill="white"/>
</svg>
