<svg width="16" height="16" viewBox="0 0 16 16" fill="none" xmlns="http://www.w3.org/2000/svg">
<path d="M7.5 1.99995C7.77614 1.99995 8 2.22381 8 2.49995C7.99992 2.77603 7.77609 2.99995 7.5 2.99995H4.5C3.67157 2.99995 3 3.67153 3 4.49995V11.5C3.00008 12.3283 3.67162 13 4.5 13H11.5C12.3284 13 12.9999 12.3283 13 11.5V9.49995C13 9.22381 13.2239 8.99995 13.5 8.99995C13.7761 8.99995 14 9.22381 14 9.49995V11.5C13.9999 12.8806 12.8807 14 11.5 14H4.5C3.11934 14 2.00008 12.8806 2 11.5V4.49995C2 3.11924 3.11929 1.99995 4.5 1.99995H7.5ZM10.7803 1.05073C10.9518 0.966857 11.1559 0.988272 11.3066 1.10542L15.8066 4.60542C15.9284 4.70015 16 4.84569 16 4.99995C16 5.15419 15.9284 5.29978 15.8066 5.39448L11.3066 8.89448C11.1559 9.01157 10.9517 9.033 10.7803 8.94917C10.6088 8.86529 10.5001 8.69086 10.5 8.49995V7.02534C8.26802 7.25501 6.87621 8.9983 6.10352 10.4238L5.94727 10.7236C5.84354 10.9309 5.6104 11.0395 5.38477 10.9863C5.15934 10.9329 5.00007 10.7316 5 10.5C5 8.42352 5.51823 6.55889 6.53711 5.20015C7.47545 3.94903 8.82277 3.15333 10.5 3.02144V1.49995C10.5 1.30901 10.6088 1.13465 10.7803 1.05073ZM11.5 3.49995C11.4999 3.77603 11.2761 3.99995 11 3.99995C9.41093 3.99995 8.18302 4.6731 7.33789 5.79976C6.80109 6.51552 6.41018 7.42578 6.19434 8.47944C7.22177 7.19861 8.77537 5.99995 11 5.99995C11.2761 5.99995 11.5 6.22381 11.5 6.49995V7.47749L14.6855 4.99995L11.5 2.52144V3.49995Z" fill="white"/>
</svg>
