<svg viewBox="0 0 20 20" xmlns="http://www.w3.org/2000/svg" fill="none">
  <defs>
    <!-- Shape 1: Big circle gradients -->
    <linearGradient id="s1_lg" x1="1.09375" y1="1.09375" x2="6.92708" y2="8.75" gradientUnits="userSpaceOnUse">
      <stop stop-color="#00E3DF"/><stop offset="0.410156" stop-color="#0097A8"/><stop offset="1" stop-color="#007791"/>
    </linearGradient>
    <radialGradient id="s1_r1" cx="0" cy="0" r="1" gradientUnits="userSpaceOnUse" gradientTransform="translate(5.7137 9.96036) rotate(-112.448) scale(6.71784 12.0783)">
      <stop offset="0.28573" stop-color="#003B5D"/><stop offset="0.612265" stop-color="#004A6C" stop-opacity="0.688"/><stop offset="0.968041" stop-color="#006F94" stop-opacity="0"/>
    </radialGradient>
    <radialGradient id="s1_r2" cx="0" cy="0" r="1" gradientUnits="userSpaceOnUse" gradientTransform="translate(5.86812 8.03006) rotate(-112.063) scale(5.66996 10.1818)">
      <stop offset="0.259744" stop-color="#002A42"/><stop offset="0.612265" stop-color="#004261" stop-opacity="0.688"/><stop offset="0.968041" stop-color="#006F94" stop-opacity="0"/>
    </radialGradient>
    <radialGradient id="s1_r3" cx="0" cy="0" r="1" gradientUnits="userSpaceOnUse" gradientTransform="translate(6.87188 0.463273) rotate(124.447) scale(4.74349)">
      <stop stop-color="#78EDFF"/><stop offset="1" stop-color="#2CCFCA" stop-opacity="0"/>
    </radialGradient>
    <!-- Shape 2: Medium circle gradients -->
    <linearGradient id="s2_lg" x1="0.875" y1="0.875" x2="5.54167" y2="7" gradientUnits="userSpaceOnUse">
      <stop stop-color="#00E0D9"/><stop offset="0.476427" stop-color="#009FB8"/><stop offset="0.945063" stop-color="#056475"/>
    </linearGradient>
    <radialGradient id="s2_r1" cx="0" cy="0" r="1" gradientUnits="userSpaceOnUse" gradientTransform="translate(1.49479 6.41667) rotate(-70.8012) scale(4.32381 7.79056)">
      <stop stop-color="#004A5D"/><stop offset="0.492035" stop-color="#00556C" stop-opacity="0.688"/><stop offset="0.968041" stop-color="#007A86" stop-opacity="0"/>
    </radialGradient>
    <radialGradient id="s2_r2" cx="0" cy="0" r="1" gradientUnits="userSpaceOnUse" gradientTransform="translate(5.4975 0.370618) rotate(124.447) scale(3.7948)">
      <stop stop-color="#78EDFF"/><stop offset="1" stop-color="#2CCFCA" stop-opacity="0"/>
    </radialGradient>
    <!-- Shape 3: Small circle gradients -->
    <linearGradient id="s3_lg" x1="0.9" y1="0.3" x2="3.9" y2="6.3" gradientUnits="userSpaceOnUse">
      <stop offset="0.0534989" stop-color="#75FFF6"/><stop offset="0.51144" stop-color="#00C7D1"/><stop offset="0.96002" stop-color="#0096AD"/>
    </linearGradient>
    <linearGradient id="s3_lg2" x1="5.98623" y1="6.00029" x2="4.38311" y2="3.75029" gradientUnits="userSpaceOnUse">
      <stop offset="0.259744" stop-color="#0E5A5D"/><stop offset="0.535716" stop-color="#126C6B" stop-opacity="0.688"/><stop offset="0.968041" stop-color="#1C948A" stop-opacity="0"/>
    </linearGradient>
    <!-- Shape 4: Teal square gradients -->
    <radialGradient id="s4_r1" cx="0" cy="0" r="10" gradientUnits="userSpaceOnUse" gradientTransform="matrix(0.7 0.7 -0.7 0.7 0 0)">
      <stop offset="0.0625" stop-color="#00B6BD"/><stop offset="0.47632" stop-color="#00808C"/><stop offset="0.68322" stop-color="#006574"/><stop offset="0.89013" stop-color="#00495C"/>
    </radialGradient>
    <radialGradient id="s4_r2" cx="0" cy="0" r="10" gradientUnits="userSpaceOnUse" gradientTransform="matrix(-5.5195e-8 0.49 -0.55781 -6.2834e-8 3.5 4.2)">
      <stop offset="0.56696" stop-color="rgba(30,133,129,0)"/><stop offset="0.77039" stop-color="rgba(30,168,180,0.5)"/><stop offset="0.97381" stop-color="rgb(30,203,230)"/>
    </radialGradient>
  </defs>

  <!-- Shape 1: Big circle (8.75x8.75), center=(10, 7.37) → x=5.625, y=2.995 -->
  <svg x="5.625" y="2.995" width="8.75" height="8.75" viewBox="0 0 8.75 8.75" overflow="visible">
    <path d="M4.375 8.75C6.79125 8.75 8.75 6.79125 8.75 4.375C8.75 1.95875 6.79125 0 4.375 0C1.95875 0 0 1.95875 0 4.375C0 6.79125 1.95875 8.75 4.375 8.75Z" fill="url(#s1_lg)"/>
    <path d="M4.375 8.75C6.79125 8.75 8.75 6.79125 8.75 4.375C8.75 1.95875 6.79125 0 4.375 0C1.95875 0 0 1.95875 0 4.375C0 6.79125 1.95875 8.75 4.375 8.75Z" fill="url(#s1_r1)" fill-opacity="0.2"/>
    <path d="M4.375 8.75C6.79125 8.75 8.75 6.79125 8.75 4.375C8.75 1.95875 6.79125 0 4.375 0C1.95875 0 0 1.95875 0 4.375C0 6.79125 1.95875 8.75 4.375 8.75Z" fill="url(#s1_r2)" fill-opacity="0.31"/>
    <path d="M4.375 8.75C6.79125 8.75 8.75 6.79125 8.75 4.375C8.75 1.95875 6.79125 0 4.375 0C1.95875 0 0 1.95875 0 4.375C0 6.79125 1.95875 8.75 4.375 8.75Z" fill="url(#s1_r3)" fill-opacity="0.7"/>
  </svg>

  <!-- Shape 2: Medium circle (7x7), center=(13.5, 10.88) → x=10, y=7.38 -->
  <svg x="10" y="7.38" width="7" height="7" viewBox="0 0 7 7" overflow="visible">
    <path d="M3.5 7C5.433 7 7 5.433 7 3.5C7 1.567 5.433 0 3.5 0C1.567 0 0 1.567 0 3.5C0 5.433 1.567 7 3.5 7Z" fill="url(#s2_lg)"/>
    <path d="M3.5 7C5.433 7 7 5.433 7 3.5C7 1.567 5.433 0 3.5 0C1.567 0 0 1.567 0 3.5C0 5.433 1.567 7 3.5 7Z" fill="url(#s2_r1)" fill-opacity="0.5"/>
    <path d="M3.5 7C5.433 7 7 5.433 7 3.5C7 1.567 5.433 0 3.5 0C1.567 0 0 1.567 0 3.5C0 5.433 1.567 7 3.5 7Z" fill="url(#s2_r2)" fill-opacity="0.7"/>
  </svg>

  <!-- Shape 3: Small circle (6x6), center=(10.5, 14) → x=7.5, y=11 -->
  <svg x="7.5" y="11" width="6" height="6" viewBox="0 0 6 6" overflow="visible">
    <path d="M3 6C4.65685 6 6 4.65685 6 3C6 1.34315 4.65685 0 3 0C1.34315 0 0 1.34315 0 3C0 4.65685 1.34315 6 3 6Z" fill="url(#s3_lg)"/>
    <path d="M3 6C4.65685 6 6 4.65685 6 3C6 1.34315 4.65685 0 3 0C1.34315 0 0 1.34315 0 3C0 4.65685 1.34315 6 3 6Z" fill="url(#s3_lg2)" fill-opacity="0.32"/>
  </svg>

  <!-- Shape 4: Teal square (7x7 rx=1.25), center=(6.5, 11.5) → x=3, y=8 -->
  <rect x="3" y="8" width="7" height="7" rx="1.25" fill="url(#s4_r1)"/>
  <rect x="3" y="8" width="7" height="7" rx="1.25" fill="url(#s4_r2)" fill-opacity="0.6"/>

  <!-- Shape 5: White S letter (3.774x5), center=(6.5, 11.5) → x=4.613, y=9 -->
  <svg x="4.613" y="9" width="3.774" height="5" viewBox="0 0 3.774 5" overflow="visible">
    <path d="M0 3.96761L0.949612 3.48853C1.05668 3.69771 1.19632 3.85178 1.36856 3.95074C1.54312 4.04971 1.73397 4.09919 1.94112 4.09919C2.17154 4.09919 2.34726 4.05421 2.46829 3.96424C2.58932 3.87202 2.64983 3.73369 2.64983 3.54926C2.64983 3.40531 2.59164 3.28385 2.47527 3.18489C2.3589 3.08367 2.15292 3.0072 1.85733 2.95547C1.29408 2.8565 0.88444 2.68331 0.628418 2.4359C0.374723 2.18848 0.247879 1.88034 0.247879 1.51147C0.247879 1.05263 0.415454 0.68601 0.75061 0.411606C1.08577 0.137202 1.52799 0 2.07727 0C2.44734 0 2.77319 0.0730994 3.05481 0.219298C3.33643 0.365497 3.55987 0.574674 3.72512 0.846829L2.79646 1.30904C2.69405 1.1561 2.5835 1.04588 2.4648 0.978408C2.3461 0.908682 2.19714 0.873819 2.01792 0.873819C1.80379 0.873819 1.64087 0.918803 1.52915 1.00877C1.41976 1.09874 1.36507 1.2157 1.36507 1.35965C1.36507 1.48336 1.41743 1.59244 1.52217 1.68691C1.62923 1.77913 1.84336 1.85448 2.16455 1.91296C2.70452 2.01192 3.10718 2.19186 3.37251 2.45277C3.64017 2.71143 3.774 3.03869 3.774 3.43455C3.774 3.91588 3.61457 4.29712 3.2957 4.57827C2.97684 4.85942 2.52182 5 1.93064 5C1.50239 5 1.11603 4.91003 0.771561 4.73009C0.429422 4.54791 0.172233 4.29375 0 3.96761Z" fill="white"/>
  </svg>
</svg>