<svg preserveAspectRatio="none" width="100%" height="100%" overflow="visible" style="display: block;" viewBox="0 0 12 13" fill="none" xmlns="http://www.w3.org/2000/svg">
<path id="Shape" d="M4.64728 0.146379C4.84268 -0.0489476 5.15946 -0.0487703 5.35464 0.146775C6.5947 1.38913 7.96892 2 9.5 2C9.77614 2 10 2.22386 10 2.5V3.40135C9.69631 3.22567 9.35896 3.1017 9 3.04148V2.98121C7.51949 2.86895 6.18521 2.25528 5.00042 1.18917C3.81393 2.25491 2.47941 2.86879 1 2.98118V5.50126C1 6.9349 1.36269 8.06553 2.02127 8.94534C2.49089 9.57272 3.14168 10.1134 4 10.5478V11.6523C1.35378 10.4971 0 8.42417 0 5.50126V2.5C0 2.22386 0.223858 2 0.5 2C2.02923 2 3.40416 1.38902 4.64728 0.146379ZM6.5 6V7H6C5.44772 7 5 7.44772 5 8V12C5 12.5523 5.44771 13 6 13H11C11.5523 13 12 12.5523 12 12V8C12 7.44772 11.5523 7 11 7H10.5V6C10.5 4.89543 9.60457 4 8.5 4C7.39543 4 6.5 4.89543 6.5 6ZM7.5 7V6C7.5 5.44772 7.94772 5 8.5 5C9.05228 5 9.5 5.44772 9.5 6V7H7.5ZM8.5 9.25C8.91421 9.25 9.25 9.58579 9.25 10C9.25 10.4142 8.91421 10.75 8.5 10.75C8.08579 10.75 7.75 10.4142 7.75 10C7.75 9.58579 8.08579 9.25 8.5 9.25Z" fill="var(--fill-0, #616161)"/>
</svg>
