<svg width="20" height="20" viewBox="0 0 20 20" fill="none" xmlns="http://www.w3.org/2000/svg">
<path d="M13.576 0.409459L14.0088 1.7401C14.1433 2.14464 14.3705 2.51224 14.6722 2.81369C14.9739 3.11513 15.3417 3.34211 15.7466 3.47659L17.0782 3.90905L17.1049 3.9157C17.2075 3.95188 17.2964 4.01899 17.3593 4.10776C17.4221 4.19654 17.4559 4.30261 17.4559 4.41137C17.4559 4.52012 17.4221 4.6262 17.3593 4.71497C17.2964 4.80375 17.2075 4.87085 17.1049 4.90703L15.7732 5.33949C15.3684 5.47397 15.0005 5.70095 14.6988 6.00239C14.3971 6.30384 14.17 6.67144 14.0354 7.07598L13.6026 8.40662C13.5664 8.50918 13.4992 8.59799 13.4104 8.66081C13.3216 8.72363 13.2154 8.75736 13.1066 8.75736C12.9977 8.75736 12.8916 8.72363 12.8027 8.66081C12.794 8.65462 12.7854 8.64816 12.7771 8.64148C12.7009 8.58034 12.6432 8.49907 12.6105 8.40662L12.1777 7.07598C12.1545 7.00537 12.1284 6.93589 12.0996 6.86767C11.9629 6.54383 11.7648 6.24862 11.5156 5.99863C11.4682 5.95109 11.4191 5.9054 11.3686 5.86161C11.0972 5.62665 10.7818 5.44675 10.4399 5.33284L9.10826 4.90038C9.00562 4.8642 8.91674 4.79709 8.85388 4.70832C8.79101 4.61954 8.75725 4.51347 8.75725 4.40471C8.75725 4.29596 8.79101 4.18988 8.85388 4.10111C8.91674 4.01233 9.00562 3.94523 9.10826 3.90905L10.4399 3.47659C10.8398 3.33861 11.2024 3.11006 11.4993 2.80882C11.7961 2.50757 12.0192 2.1418 12.1511 1.7401L12.5839 0.409459C12.6201 0.3069 12.6873 0.21809 12.7761 0.15527C12.8649 0.0924508 12.9711 0.0587158 13.0799 0.0587158C13.1888 0.0587158 13.2949 0.0924508 13.3838 0.15527C13.4726 0.21809 13.5398 0.3069 13.576 0.409459ZM19.6715 10.2649L18.7203 9.95604C18.4311 9.85998 18.1683 9.69786 17.9528 9.48254C17.7374 9.26722 17.5751 9.00465 17.479 8.71569L17.1698 7.76523C17.144 7.69197 17.096 7.62854 17.0326 7.58367C16.9691 7.5388 16.8933 7.5147 16.8155 7.5147C16.7378 7.5147 16.662 7.5388 16.5985 7.58367C16.535 7.62854 16.4871 7.69197 16.4612 7.76523L16.1521 8.71569C16.0579 9.00262 15.8985 9.26388 15.6865 9.47906C15.4744 9.69423 15.2155 9.85748 14.9298 9.95604L13.9786 10.2649C13.9053 10.2908 13.8418 10.3387 13.7969 10.4021C13.752 10.4655 13.7279 10.5413 13.7279 10.619C13.7279 10.6967 13.752 10.7724 13.7969 10.8358C13.8418 10.8993 13.9053 10.9472 13.9786 10.973L14.9298 11.2819C15.2195 11.3785 15.4826 11.5413 15.6981 11.7575C15.9136 11.9737 16.0756 12.2372 16.1711 12.527L16.4802 13.4775C16.5061 13.5507 16.5541 13.6142 16.6175 13.6591C16.681 13.7039 16.7568 13.728 16.8346 13.728C16.9123 13.728 16.9881 13.7039 17.0516 13.6591C17.115 13.6142 17.163 13.5507 17.1889 13.4775L17.498 12.527C17.5941 12.2381 17.7564 11.9755 17.9719 11.7602C18.1874 11.5449 18.4501 11.3827 18.7393 11.2867L19.6905 10.9778C19.7638 10.9519 19.8273 10.904 19.8722 10.8406C19.9171 10.7772 19.9412 10.7014 19.9412 10.6237C19.9412 10.5461 19.9171 10.4703 19.8722 10.4069C19.8273 10.3435 19.7638 10.2955 19.6905 10.2697L19.6715 10.2649ZM15.9102 14.6844C16.1821 14.8699 16.5032 14.9694 16.8367 14.9707C16.9446 14.9704 17.0511 14.9637 17.1551 14.948C15.585 17.2143 12.9658 18.6987 9.99991 18.6987C5.19578 18.6987 1.30127 14.8041 1.30127 10C1.30127 5.19589 5.19578 1.30138 9.99991 1.30138C10.3285 1.30138 10.6528 1.31959 10.9719 1.35507C10.8972 1.57856 10.773 1.77722 10.6116 1.9387C10.4499 2.10051 10.2509 2.23743 10.0519 2.29966L9.13807 2.59331C5.42622 3.02054 2.54393 6.17369 2.54393 10C2.54393 14.1178 5.88209 17.456 9.99991 17.456C12.3671 17.456 14.4766 16.3528 15.8424 14.6326C15.8645 14.6503 15.8871 14.6676 15.9102 14.6844ZM11.2065 8.13705L11.4325 8.82187C11.5181 9.05967 11.6545 9.28292 11.8639 9.49164V11.2427C11.8639 11.5858 11.5857 11.864 11.2426 11.864C10.8994 11.864 10.6212 11.5858 10.6212 11.2427V8.75736C10.6212 8.42631 10.8801 8.15573 11.2065 8.13705ZM8.75725 7.51469C8.75725 7.17154 8.47907 6.89336 8.13592 6.89336C7.79276 6.89336 7.51458 7.17154 7.51458 7.51469V12.4853C7.51458 12.8285 7.79276 13.1067 8.13592 13.1067C8.47907 13.1067 8.75725 12.8285 8.75725 12.4853V7.51469ZM5.65059 9.37869C5.65059 9.03554 5.37241 8.75736 5.02926 8.75736C4.68611 8.75736 4.40793 9.03554 4.40793 9.37869V10.6214C4.40793 10.9645 4.68611 11.2427 5.02926 11.2427C5.37241 11.2427 5.65059 10.9645 5.65059 10.6214V9.37869Z" fill="white"/>
</svg>
