<svg preserveAspectRatio="none" width="100%" height="100%" overflow="visible" style="display: block;" viewBox="0 0 19.9119 19.9119" fill="none" xmlns="http://www.w3.org/2000/svg">
<path id="Shape" d="M9.95593 0C15.4544 0 19.9119 4.45742 19.9119 9.95593C19.9119 15.4544 15.4544 19.9119 9.95593 19.9119C4.45742 19.9119 0 15.4544 0 9.95593C0 4.45742 4.45742 0 9.95593 0ZM9.95593 1.49339C5.2822 1.49339 1.49339 5.2822 1.49339 9.95593C1.49339 14.6297 5.2822 18.4185 9.95593 18.4185C14.6297 18.4185 18.4185 14.6297 18.4185 9.95593C18.4185 5.2822 14.6297 1.49339 9.95593 1.49339ZM8.71144 11.3889L13.1614 6.93895C13.453 6.64735 13.9258 6.64735 14.2174 6.93895C14.4825 7.20405 14.5066 7.61887 14.2897 7.91119L14.2174 7.99494L9.23943 12.9729C8.97434 13.238 8.55951 13.2621 8.26719 13.0452L8.18345 12.9729L5.69446 10.4839C5.40286 10.1923 5.40286 9.71954 5.69446 9.42794C5.95956 9.16284 6.37438 9.13874 6.6667 9.35564L6.75045 9.42794L8.71144 11.3889L13.1614 6.93895L8.71144 11.3889Z" fill="var(--fill-0, white)"/>
</svg>
