<svg preserveAspectRatio="none" width="100%" height="100%" overflow="visible" style="display: block;" viewBox="0 0 5.59767 5.59767" fill="none" xmlns="http://www.w3.org/2000/svg">
<path id="Color 2" d="M5.35465 2.47773L4.49771 2.19944C4.23719 2.1129 4.00045 1.96683 3.80632 1.77285C3.61219 1.57887 3.46601 1.34232 3.37941 1.08199L3.1009 0.225706C3.0776 0.159708 3.03439 0.102559 2.97722 0.062134C2.92004 0.0217093 2.85173 0 2.7817 0C2.71166 0 2.64334 0.0217093 2.58617 0.062134C2.529 0.102559 2.48579 0.159708 2.46248 0.225706L2.18398 1.08199C2.09911 1.34049 1.95554 1.57586 1.76451 1.76972C1.57348 1.96357 1.34017 2.11064 1.08282 2.19944L0.22588 2.47773C0.159831 2.50101 0.102637 2.54419 0.0621811 2.60132C0.0217253 2.65845 0 2.72671 0 2.79669C0 2.86668 0.0217253 2.93494 0.0621811 2.99207C0.102637 3.04919 0.159831 3.09237 0.22588 3.11566L1.08282 3.39395C1.3438 3.48092 1.58084 3.62763 1.775 3.82239C1.96916 4.01715 2.11509 4.25456 2.20112 4.51568L2.47962 5.37196C2.50293 5.43796 2.54614 5.49511 2.60331 5.53553C2.66048 5.57596 2.7288 5.59767 2.79883 5.59767C2.86887 5.59767 2.93718 5.57596 2.99436 5.53553C3.05153 5.49511 3.09474 5.43796 3.11804 5.37196L3.39655 4.51568C3.48315 4.25535 3.62933 4.0188 3.82346 3.82482C4.01759 3.63083 4.25432 3.48477 4.51485 3.39823L5.37179 3.11994C5.43783 3.09666 5.49503 3.05348 5.53549 2.99635C5.57594 2.93922 5.59767 2.87096 5.59767 2.80097C5.59767 2.73099 5.57594 2.66273 5.53549 2.6056C5.49503 2.54847 5.43783 2.50529 5.37179 2.48201L5.35465 2.47773Z" fill="url(#paint0_radial_101_357983)"/>
<defs>
<radialGradient id="paint0_radial_101_357983" cx="0" cy="0" r="1" gradientTransform="matrix(14.354 28.6381 -21.8639 12.0469 -9.65598 -21.0612)" gradientUnits="userSpaceOnUse">
<stop offset="0.718021" stop-color="#FFCD0F"/>
<stop offset="0.990707" stop-color="#E67505"/>
</radialGradient>
</defs>
</svg>
