<svg preserveAspectRatio="none" width="100%" height="100%" overflow="visible" style="display: block;" viewBox="0 0 16 15" fill="none" xmlns="http://www.w3.org/2000/svg">
<path id="Shape" d="M9.25 0C10.2165 0 11 0.783502 11 1.75V3H13C14.6569 3 16 4.34315 16 6V12C16 13.6569 14.6569 15 13 15H3C1.39489 15 0.0842144 13.7394 0.00390625 12.1543L0 12V6C1.28853e-07 4.34315 1.34315 3 3 3H5V1.75C5 0.783502 5.7835 0 6.75 0H9.25ZM15 9.23145C14.469 9.70772 13.7695 10 13 10H9V10.5C9 10.7761 8.77614 11 8.5 11H7.5C7.22386 11 7 10.7761 7 10.5V10H3C2.23053 10 1.53103 9.70772 1 9.23145V12L1.01074 12.2041C1.113 13.2128 1.96435 14 3 14H13C14.1046 14 15 13.1046 15 12V9.23145ZM3 4C1.89543 4 1 4.89543 1 6V7C1 8.10457 1.89543 9 3 9H7V8.5C7 8.22386 7.22386 8 7.5 8H8.5C8.77614 8 9 8.22386 9 8.5V9H13C14.1046 9 15 8.10457 15 7V6C15 4.89543 14.1046 4 13 4H3ZM6.75 1C6.33579 1 6 1.33579 6 1.75V3H10V1.75C10 1.33579 9.66421 1 9.25 1H6.75Z" fill="var(--fill-0, #424242)"/>
</svg>
