<svg preserveAspectRatio="none" width="100%" height="100%" overflow="visible" style="display: block;" viewBox="0 0 19.9119 18.916" fill="none" xmlns="http://www.w3.org/2000/svg">
<path id="Shape" d="M3.23568 14.9339C1.44866 14.9339 0 13.4852 0 11.6982V3.23568C0 1.44866 1.44866 0 3.23568 0H16.6762C18.4632 0 19.9119 1.44866 19.9119 3.23568V11.6982C19.9119 13.4852 18.4632 14.9339 16.6762 14.9339H10.964L5.97224 18.668C5.42185 19.0797 4.64195 18.9672 4.23029 18.4168C4.06934 18.2017 3.98237 17.9402 3.98237 17.6717L3.98159 14.9339H3.23568ZM10.4672 13.4405H16.6762C17.6384 13.4405 18.4185 12.6605 18.4185 11.6982V3.23568C18.4185 2.27344 17.6384 1.49339 16.6762 1.49339H3.23568C2.27344 1.49339 1.49339 2.27344 1.49339 3.23568V11.6982C1.49339 12.6605 2.27344 13.4405 3.23568 13.4405H5.47455L5.47477 14.187L5.47562 17.1745L10.4672 13.4405Z" fill="var(--fill-0, white)"/>
</svg>
