<svg preserveAspectRatio="none" width="100%" height="100%" overflow="visible" style="display: block;" viewBox="0 0 18.6399 18.6399" fill="none" xmlns="http://www.w3.org/2000/svg">
<path id="Shape" d="M12.2747 0.350743L12.7075 1.68139C12.8421 2.08593 13.0692 2.45353 13.3709 2.75497C13.6726 3.05642 14.0405 3.2834 14.4453 3.41787L15.777 3.85033L15.8036 3.85699C15.9062 3.89317 15.9951 3.96027 16.058 4.04905C16.1209 4.13782 16.1546 4.2439 16.1546 4.35265C16.1546 4.4614 16.1209 4.56748 16.058 4.65626C15.9951 4.74503 15.9062 4.81213 15.8036 4.84832L14.4719 5.28077C14.0671 5.41525 13.6992 5.64223 13.3975 5.94368C13.0959 6.24512 12.8687 6.61272 12.7341 7.01726L12.3013 8.3479C12.2651 8.45046 12.198 8.53927 12.1091 8.60209C12.0203 8.66491 11.9141 8.69865 11.8053 8.69865C11.6965 8.69865 11.5903 8.66491 11.5015 8.60209C11.4927 8.5959 11.4842 8.58945 11.4758 8.58276C11.3997 8.52162 11.3419 8.44035 11.3093 8.3479L10.8765 7.01726C10.8532 6.94666 10.8271 6.87717 10.7983 6.80895C10.6616 6.48511 10.4635 6.1899 10.2143 5.93991C10.1669 5.89237 10.1179 5.84668 10.0673 5.8029C9.79593 5.56793 9.48051 5.38804 9.13865 5.27412L7.80699 4.84166C7.70435 4.80548 7.61547 4.73838 7.55261 4.6496C7.48974 4.56083 7.45598 4.45475 7.45598 4.346C7.45598 4.23725 7.48974 4.13117 7.55261 4.04239C7.61547 3.95362 7.70435 3.88651 7.80699 3.85033L9.13865 3.41787C9.53857 3.27989 9.90113 3.05134 10.198 2.7501C10.4948 2.44886 10.7179 2.08309 10.8498 1.68139L11.2826 0.350743C11.3188 0.248184 11.386 0.159374 11.4748 0.0965546C11.5637 0.033735 11.6698 0 11.7787 0C11.8875 0 11.9937 0.033735 12.0825 0.0965546C12.1713 0.159374 12.2385 0.248184 12.2747 0.350743ZM18.3702 10.2062L17.419 9.89732C17.1298 9.80127 16.8671 9.63914 16.6516 9.42382C16.4361 9.2085 16.2738 8.94593 16.1777 8.65697L15.8686 7.70651C15.8427 7.63326 15.7947 7.56982 15.7313 7.52495C15.6678 7.48008 15.592 7.45598 15.5143 7.45598C15.4365 7.45598 15.3607 7.48008 15.2972 7.52495C15.2338 7.56982 15.1858 7.63326 15.1599 7.70651L14.8508 8.65697C14.7566 8.9439 14.5972 9.20517 14.3852 9.42034C14.1732 9.63551 13.9142 9.79876 13.6285 9.89732L12.6774 10.2062C12.604 10.2321 12.5406 10.28 12.4956 10.3434C12.4507 10.4068 12.4266 10.4826 12.4266 10.5603C12.4266 10.6379 12.4507 10.7137 12.4956 10.7771C12.5406 10.8405 12.604 10.8885 12.6774 10.9143L13.6285 11.2232C13.9182 11.3197 14.1813 11.4826 14.3968 11.6988C14.6124 11.915 14.7743 12.1785 14.8698 12.4683L15.179 13.4188C15.2048 13.492 15.2528 13.5555 15.3163 13.6003C15.3797 13.6452 15.4555 13.6693 15.5333 13.6693C15.611 13.6693 15.6869 13.6452 15.7503 13.6003C15.8138 13.5555 15.8617 13.492 15.8876 13.4188L16.1967 12.4683C16.2929 12.1794 16.4551 11.9168 16.6706 11.7015C16.8861 11.4862 17.1489 11.324 17.438 11.228L18.3892 10.9191C18.4625 10.8932 18.526 10.8453 18.5709 10.7819C18.6158 10.7185 18.6399 10.6427 18.6399 10.565C18.6399 10.4873 18.6158 10.4116 18.5709 10.3482C18.526 10.2847 18.4625 10.2368 18.3892 10.211L18.3702 10.2062ZM14.6089 14.6257C14.8808 14.8112 15.2019 14.9107 15.5355 14.9119C15.6433 14.9117 15.7499 14.905 15.8539 14.8893C14.2837 17.1556 11.6645 18.6399 8.69864 18.6399C3.89451 18.6399 0 14.7454 0 9.9413C0 5.13718 3.89451 1.24266 8.69864 1.24266C9.0272 1.24266 9.3515 1.26088 9.6706 1.29636C9.59592 1.51984 9.47172 1.71851 9.31036 1.87999C9.14867 2.0418 8.94966 2.17871 8.75065 2.24095L7.8368 2.5346C4.12495 2.96183 1.24266 6.11497 1.24266 9.9413C1.24266 14.0591 4.58082 17.3973 8.69864 17.3973C11.0658 17.3973 13.1753 16.2941 14.5412 14.5739C14.5632 14.5916 14.5858 14.6089 14.6089 14.6257ZM9.90525 8.07834L10.1313 8.76316C10.2168 9.00095 10.3532 9.22421 10.5626 9.43293V11.184C10.5626 11.5271 10.2845 11.8053 9.9413 11.8053C9.59815 11.8053 9.31997 11.5271 9.31997 11.184V8.69864C9.31997 8.36759 9.57888 8.09701 9.90525 8.07834ZM7.45598 7.45598C7.45598 7.11283 7.1778 6.83465 6.83465 6.83465C6.49149 6.83465 6.21331 7.11283 6.21331 7.45598V12.4266C6.21331 12.7698 6.49149 13.048 6.83465 13.048C7.1778 13.048 7.45598 12.7698 7.45598 12.4266V7.45598ZM4.34932 9.31997C4.34932 8.97682 4.07114 8.69864 3.72799 8.69864C3.38484 8.69864 3.10666 8.97682 3.10666 9.31997V10.5626C3.10666 10.9058 3.38484 11.184 3.72799 11.184C4.07114 11.184 4.34932 10.9058 4.34932 10.5626V9.31997Z" fill="var(--fill-0, white)"/>
</svg>
