<svg preserveAspectRatio="none" width="100%" height="100%" overflow="visible" style="display: block;" viewBox="0 0 20.5248 24.2566" fill="none" xmlns="http://www.w3.org/2000/svg">
<g id="Color 06">
<path d="M3.26531 0C1.46193 0 0 1.46193 0 3.26531V20.9913C0 22.7946 1.46193 24.2566 3.26531 24.2566H11.6379C11.7736 23.951 11.9667 23.6648 12.2172 23.4142L20.152 15.4795C20.269 15.3624 20.3938 15.2579 20.5248 15.166V3.26531C20.5248 1.46193 19.0629 0 17.2595 0H3.26531Z" fill="url(#paint0_radial_101_358062)" fill-opacity="0.4"/>
<path d="M3.26531 0C1.46193 0 0 1.46193 0 3.26531V20.9913C0 22.7946 1.46193 24.2566 3.26531 24.2566H11.6379C11.7736 23.951 11.9667 23.6648 12.2172 23.4142L20.152 15.4795C20.269 15.3624 20.3938 15.2579 20.5248 15.166V3.26531C20.5248 1.46193 19.0629 0 17.2595 0H3.26531Z" fill="url(#paint1_radial_101_358062)" fill-opacity="0.4"/>
<path d="M3.26531 0C1.46193 0 0 1.46193 0 3.26531V20.9913C0 22.7946 1.46193 24.2566 3.26531 24.2566H11.6379C11.7736 23.951 11.9667 23.6648 12.2172 23.4142L20.152 15.4795C20.269 15.3624 20.3938 15.2579 20.5248 15.166V3.26531C20.5248 1.46193 19.0629 0 17.2595 0H3.26531Z" fill="url(#paint2_radial_101_358062)" fill-opacity="0.4"/>
</g>
<defs>
<radialGradient id="paint0_radial_101_358062" cx="0" cy="0" r="1" gradientUnits="userSpaceOnUse" gradientTransform="translate(10.2624 -1.34759) scale(8.33819 7.34193)">
<stop stop-color="#0A1852"/>
<stop offset="1" stop-color="#0A1852" stop-opacity="0"/>
</radialGradient>
<radialGradient id="paint1_radial_101_358062" cx="0" cy="0" r="1" gradientUnits="userSpaceOnUse" gradientTransform="translate(10.2624 -1.34759) scale(8.33819 8.28215)">
<stop stop-color="#0A1852"/>
<stop offset="1" stop-color="#0A1852" stop-opacity="0"/>
</radialGradient>
<radialGradient id="paint2_radial_101_358062" cx="0" cy="0" r="1" gradientTransform="matrix(-9.62099 9.43311 -4.02468 -4.52994 17.3178 17.5186)" gradientUnits="userSpaceOnUse">
<stop stop-color="#0A1852"/>
<stop offset="1" stop-color="#0A1852" stop-opacity="0"/>
</radialGradient>
</defs>
</svg>
