<svg preserveAspectRatio="none" width="100%" height="100%" overflow="visible" style="display: block;" viewBox="0 0 25.1905 25.1894" fill="none" xmlns="http://www.w3.org/2000/svg">
<path id="Color 3" d="M17.4466 19.0948C15.608 20.5731 13.2717 21.4577 10.7289 21.4577C4.80348 21.4577 0 16.6543 0 10.7289C0 4.80348 4.80348 0 10.7289 0C16.6543 0 21.4577 4.80348 21.4577 10.7289C21.4577 13.2712 20.5735 15.607 19.0957 17.4454L24.8489 23.1986C25.3044 23.654 25.3044 24.3924 24.8489 24.8479C24.3935 25.3033 23.6551 25.3033 23.1997 24.8479L17.4466 19.0948ZM19.1254 10.7289C19.1254 6.0916 15.3661 2.33236 10.7289 2.33236C6.0916 2.33236 2.33236 6.0916 2.33236 10.7289C2.33236 15.3661 6.0916 19.1254 10.7289 19.1254C15.3661 19.1254 19.1254 15.3661 19.1254 10.7289Z" fill="url(#paint0_linear_101_358044)"/>
<defs>
<linearGradient id="paint0_linear_101_358044" x1="1.32582" y1="22.5379" x2="22.5381" y2="5.30214" gradientUnits="userSpaceOnUse">
<stop stop-color="#0094F0"/>
<stop offset="1" stop-color="#29C3FF"/>
</linearGradient>
</defs>
</svg>
