<svg preserveAspectRatio="none" width="100%" height="100%" overflow="visible" style="display: block;" viewBox="0 0 22.3907 22.3907" fill="none" xmlns="http://www.w3.org/2000/svg">
<g id="Shape">
<path d="M0 1.86589C0 0.835385 0.835387 0 1.86589 0H17.726C20.3022 0 22.3907 2.08847 22.3907 4.66472V20.5248C22.3907 21.5553 21.5553 22.3907 20.5248 22.3907H4.66472C2.08846 22.3907 0 20.3022 0 17.7259V1.86589Z" fill="url(#paint0_linear_101_358052)"/>
<path d="M0 1.86589C0 0.835385 0.835387 0 1.86589 0H17.726C20.3022 0 22.3907 2.08847 22.3907 4.66472V20.5248C22.3907 21.5553 21.5553 22.3907 20.5248 22.3907H4.66472C2.08846 22.3907 0 20.3022 0 17.7259V1.86589Z" fill="url(#paint1_radial_101_358052)"/>
</g>
<defs>
<linearGradient id="paint0_linear_101_358052" x1="6.21963" y1="-8.34117e-08" x2="9.05196" y2="22.6586" gradientUnits="userSpaceOnUse">
<stop stop-color="white"/>
<stop offset="1" stop-color="#EBEBEB"/>
</linearGradient>
<radialGradient id="paint1_radial_101_358052" cx="0" cy="0" r="1" gradientTransform="matrix(11.8173 17.7259 -17.7259 6.64723 7.15257 5.8309)" gradientUnits="userSpaceOnUse">
<stop offset="0.177083" stop-color="white"/>
<stop offset="1" stop-color="#EFEFEF"/>
</radialGradient>
</defs>
</svg>
