<svg preserveAspectRatio="none" width="100%" height="100%" overflow="visible" style="display: block;" viewBox="0 0 10.2624 10.2624" fill="none" xmlns="http://www.w3.org/2000/svg">
<path id="Color 1" d="M3.52145 7.3117C3.43902 7.20518 3.34978 7.10363 3.25417 7.00772C2.8982 6.65066 2.46364 6.38168 1.98516 6.22224L0.414112 5.71204C0.293024 5.66935 0.188168 5.59019 0.113999 5.48545C0.0398303 5.38072 0 5.25558 0 5.12727C0 4.99897 0.0398303 4.87382 0.113999 4.76909C0.188168 4.66435 0.293024 4.58519 0.414112 4.5425L1.98516 4.0323C2.45698 3.86951 2.88472 3.59988 3.23494 3.24448C3.57556 2.89883 3.83387 2.48116 3.99093 2.02251L4.00397 1.98365L4.51456 0.413796C4.55727 0.2928 4.6365 0.188024 4.74132 0.113912C4.84613 0.0397993 4.97137 0 5.09977 0C5.22818 0 5.35342 0.0397993 5.45823 0.113912C5.56305 0.188024 5.64227 0.2928 5.68499 0.413796L6.19558 1.98365C6.35436 2.46091 6.62235 2.89459 6.97825 3.25023C7.33416 3.60586 7.76817 3.87365 8.2458 4.0323L9.81686 4.5425L9.84828 4.55035C9.96936 4.59304 10.0742 4.6722 10.1484 4.77694C10.2226 4.88167 10.2624 5.00681 10.2624 5.13512C10.2624 5.26342 10.2226 5.38857 10.1484 5.4933C10.0742 5.59804 9.96936 5.6772 9.84828 5.71989L8.27723 6.23009C7.79959 6.38874 7.36558 6.65653 7.00967 7.01216C6.65377 7.3678 6.38578 7.80148 6.227 8.27874L5.71641 9.84859C5.7118 9.86164 5.70677 9.87451 5.70133 9.88716C5.65631 9.99184 5.58316 10.0824 5.48965 10.1485C5.38484 10.2226 5.2596 10.2624 5.13119 10.2624C5.00279 10.2624 4.87755 10.2226 4.77274 10.1485C4.66792 10.0744 4.5887 9.96959 4.54598 9.84859L4.03539 8.27874C3.92002 7.92862 3.74593 7.60174 3.52145 7.3117Z" fill="url(#paint0_radial_101_358048)"/>
<defs>
<radialGradient id="paint0_radial_101_358048" cx="0" cy="0" r="1" gradientTransform="matrix(21.2578 38.6672 -29.4636 17.7273 -12.7364 -25.8392)" gradientUnits="userSpaceOnUse">
<stop offset="0.698225" stop-color="#FFCD0F"/>
<stop offset="0.990707" stop-color="#E67505"/>
</radialGradient>
</defs>
</svg>
