<svg preserveAspectRatio="none" width="100%" height="100%" overflow="visible" style="display: block;" viewBox="0 0 12 10" fill="none" xmlns="http://www.w3.org/2000/svg">
<path id="Shape" d="M4.5 2.82056V7.17941C4.5 7.4293 4.77363 7.58277 4.98686 7.45246L8.24601 5.46076C8.59056 5.2502 8.59056 4.74977 8.24601 4.53921L4.98686 2.54751C4.77363 2.4172 4.5 2.57067 4.5 2.82056ZM2.5 0C1.11929 0 0 1.11929 0 2.5V7.5C0 8.88071 1.11929 10 2.5 10H9.5C10.8807 10 12 8.88071 12 7.5V2.5C12 1.11929 10.8807 0 9.5 0H2.5ZM1 2.5C1 1.67157 1.67157 1 2.5 1H9.5C10.3284 1 11 1.67157 11 2.5V7.5C11 8.32843 10.3284 9 9.5 9H2.5C1.67157 9 1 8.32843 1 7.5V2.5Z" fill="var(--fill-0, white)"/>
</svg>
