<svg preserveAspectRatio="none" width="100%" height="100%" overflow="visible" style="display: block;" viewBox="0 0 11 16" fill="none" xmlns="http://www.w3.org/2000/svg">
<path id="Shape" d="M5.5 11C7.15685 11 8.5 9.65684 8.5 7.99998V3C8.5 1.34315 7.15685 0 5.5 0C3.84315 0 2.5 1.34315 2.5 3V7.99998C2.5 9.65684 3.84315 11 5.5 11ZM5.5 9.99998C4.39543 9.99998 3.5 9.10455 3.5 7.99998V3C3.5 1.89543 4.39543 1 5.5 1C6.60457 1 7.5 1.89543 7.5 3V7.99998C7.5 9.10455 6.60457 9.99998 5.5 9.99998ZM0.5 7.49998C0.776142 7.49998 1 7.72384 1 7.99998C1 10.4853 3.01472 12.5 5.5 12.5C7.98528 12.5 10 10.4853 10 7.99998C10 7.72384 10.2239 7.49998 10.5 7.49998C10.7761 7.49998 11 7.72384 11 7.99998C11 10.869 8.80325 13.2249 6 13.4776V15.5C6 15.7761 5.77614 16 5.5 16C5.22386 16 5 15.7761 5 15.5V13.4776C2.19675 13.2249 0 10.869 0 7.99998C0 7.72384 0.223858 7.49998 0.5 7.49998Z" fill="var(--fill-0, #424242)"/>
</svg>
