<svg preserveAspectRatio="none" width="100%" height="100%" overflow="visible" style="display: block;" viewBox="0 0 11.1953 11.1953" fill="none" xmlns="http://www.w3.org/2000/svg">
<g id="Color 07">
<path d="M0 0.932945C0 0.417694 0.417694 0 0.932945 0H10.2624C10.7776 0 11.1953 0.417694 11.1953 0.932945C11.1953 1.4482 10.7776 1.86589 10.2624 1.86589H0.932944C0.417693 1.86589 0 1.4482 0 0.932945Z" fill="url(#paint0_linear_101_358058)" fill-opacity="0.9"/>
<path d="M0 5.59767C0 5.08242 0.417694 4.66472 0.932945 4.66472H5.59767C6.11292 4.66472 6.53061 5.08242 6.53061 5.59767C6.53061 6.11292 6.11292 6.53061 5.59767 6.53061H0.932945C0.417693 6.53061 0 6.11292 0 5.59767Z" fill="url(#paint1_linear_101_358058)" fill-opacity="0.9"/>
<path d="M0.932945 9.32945C0.417694 9.32945 0 9.74714 0 10.2624C0 10.7776 0.417693 11.1953 0.932944 11.1953H10.2624C10.7776 11.1953 11.1953 10.7776 11.1953 10.2624C11.1953 9.74714 10.7776 9.32945 10.2624 9.32945H0.932945Z" fill="url(#paint2_linear_101_358058)" fill-opacity="0.9"/>
</g>
<defs>
<linearGradient id="paint0_linear_101_358058" x1="6.99708" y1="11.1953" x2="-1.28539" y2="1.0493" gradientUnits="userSpaceOnUse">
<stop stop-color="#9DEAFF"/>
<stop offset="1" stop-color="white"/>
</linearGradient>
<linearGradient id="paint1_linear_101_358058" x1="6.99708" y1="11.1953" x2="-1.28539" y2="1.0493" gradientUnits="userSpaceOnUse">
<stop stop-color="#9DEAFF"/>
<stop offset="1" stop-color="white"/>
</linearGradient>
<linearGradient id="paint2_linear_101_358058" x1="6.99708" y1="11.1953" x2="-1.28539" y2="1.0493" gradientUnits="userSpaceOnUse">
<stop stop-color="#9DEAFF"/>
<stop offset="1" stop-color="white"/>
</linearGradient>
</defs>
</svg>
