<svg preserveAspectRatio="none" width="100%" height="100%" overflow="visible" style="display: block;" viewBox="0 0 19.9119 19.9119" fill="none" xmlns="http://www.w3.org/2000/svg">
<path id="Shape" d="M9.95593 0C15.4542 0.000162662 19.9117 4.45763 19.9119 9.95593C19.9119 13.0316 18.239 14.9592 16.1784 14.9592C14.8882 14.9592 13.7505 14.2033 13.0798 12.8834C12.2794 14.1106 10.9825 14.9339 9.45813 14.9339C6.89872 14.9339 4.97796 12.6146 4.97796 9.95593C4.97796 7.29724 6.89872 4.97796 9.45813 4.97796C10.6283 4.97796 11.6643 5.46345 12.4449 6.24385V5.72466C12.4449 5.31227 12.7792 4.97796 13.1916 4.97796C13.604 4.97796 13.9383 5.31227 13.9383 5.72466V9.95593C13.9383 12.5551 15.2522 13.4658 16.1784 13.4658C17.1045 13.4658 18.4185 12.5551 18.4185 9.95593C18.4183 5.28241 14.6294 1.49355 9.95593 1.49339C5.28228 1.49339 1.49352 5.28231 1.49339 9.95593C1.49355 14.6295 5.2823 18.4185 9.95593 18.4185C10.9665 18.4184 11.9355 18.2394 12.8338 17.9139C13.1308 17.8064 13.467 17.8675 13.6904 18.0908C14.0609 18.4613 13.9598 19.0857 13.4697 19.2711C12.3771 19.6845 11.1933 19.9118 9.95593 19.9119C4.45752 19.9119 0.000162412 15.4543 0 9.95593C0.00013136 4.45753 4.4575 0 9.95593 0ZM9.45813 6.47135C7.89367 6.47135 6.47135 7.94088 6.47135 9.95593C6.47135 11.971 7.89367 13.4405 9.45813 13.4405C11.0226 13.4405 12.4449 11.971 12.4449 9.95593C12.4449 7.94088 11.0226 6.47135 9.45813 6.47135Z" fill="var(--fill-0, white)"/>
</svg>
