<svg preserveAspectRatio="none" width="100%" height="100%" overflow="visible" style="display: block;" viewBox="0 0 15.5491 9.95141" fill="none" xmlns="http://www.w3.org/2000/svg">
<g id="Color 2" filter="url(#filter0_d_101_358179)">
<path d="M2.64334 3.4208C3.41622 3.4208 4.04276 2.79426 4.04276 2.02138C4.04276 1.2485 3.41622 0.621963 2.64334 0.621963C1.87047 0.621963 1.24393 1.2485 1.24393 2.02138C1.24393 2.79426 1.87047 3.4208 2.64334 3.4208ZM4.04276 6.6861C4.04276 7.45898 3.41622 8.08552 2.64334 8.08552C1.87047 8.08552 1.24393 7.45898 1.24393 6.6861C1.24393 5.91323 1.87047 5.28669 2.64334 5.28669C3.41622 5.28669 4.04276 5.91323 4.04276 6.6861ZM7.77454 8.08552C8.54741 8.08552 9.17396 7.45898 9.17396 6.6861C9.17396 5.91323 8.54741 5.28669 7.77454 5.28669C7.00166 5.28669 6.37512 5.91323 6.37512 6.6861C6.37512 7.45898 7.00166 8.08552 7.77454 8.08552ZM9.17396 2.02138C9.17396 2.79426 8.54741 3.4208 7.77454 3.4208C7.00166 3.4208 6.37512 2.79426 6.37512 2.02138C6.37512 1.2485 7.00166 0.621963 7.77454 0.621963C8.54741 0.621963 9.17396 1.2485 9.17396 2.02138ZM12.9057 3.4208C13.6786 3.4208 14.3052 2.79426 14.3052 2.02138C14.3052 1.2485 13.6786 0.621963 12.9057 0.621963C12.1329 0.621963 11.5063 1.2485 11.5063 2.02138C11.5063 2.79426 12.1329 3.4208 12.9057 3.4208Z" fill="url(#paint0_linear_101_358179)"/>
</g>
<defs>
<filter id="filter0_d_101_358179" x="0" y="0" width="15.5491" height="9.95141" filterUnits="userSpaceOnUse" color-interpolation-filters="sRGB">
<feFlood flood-opacity="0" result="BackgroundImageFix"/>
<feColorMatrix in="SourceAlpha" type="matrix" values="0 0 0 0 0 0 0 0 0 0 0 0 0 0 0 0 0 0 127 0" result="hardAlpha"/>
<feOffset dy="0.621963"/>
<feGaussianBlur stdDeviation="0.621963"/>
<feColorMatrix type="matrix" values="0 0 0 0 0.1242 0 0 0 0 0.323337 0 0 0 0 0.7958 0 0 0 0.32 0"/>
<feBlend mode="normal" in2="BackgroundImageFix" result="effect1_dropShadow_101_358179"/>
<feBlend mode="normal" in="SourceGraphic" in2="effect1_dropShadow_101_358179" result="shape"/>
</filter>
<linearGradient id="paint0_linear_101_358179" x1="6.58715" y1="-0.239217" x2="8.8353" y2="14.7069" gradientUnits="userSpaceOnUse">
<stop stop-color="#0078D4"/>
<stop offset="1" stop-color="#0067BF"/>
</linearGradient>
</defs>
</svg>
