<svg width="24" height="23" viewBox="0 0 24 23" fill="none" xmlns="http://www.w3.org/2000/svg">
<path d="M7.79004 3C6.80141 3.0001 6 3.8283 6 4.84961V16.5449C6 17.5662 6.80141 18.3944 7.79004 18.3945H15L17.6113 22.249C17.6507 22.3167 17.6933 22.382 17.7422 22.4424L17.7441 22.4463L17.7451 22.4453C18.0203 22.7838 18.4355 23 18.9004 23C19.6769 22.9998 20.3158 22.398 20.3926 21.627L20.4004 21.4707V18.3945H22.21C23.1986 18.3944 24 17.5662 24 16.5449V4.84961C24 3.8283 23.1986 3.0001 22.21 3H7.79004Z" fill="#D87B27"/>
<path d="M18.0107 0C19.1092 0 19.9999 0.873983 20 1.95215V14.2998C20 15.3781 19.1093 16.2529 18.0107 16.2529H10L6.67773 20.4258C6.40308 20.7747 5.9785 21 5.5 21C4.67157 21 4 20.3284 4 19.5V16.2529H1.98926C0.89069 16.2529 0 15.3781 0 14.2998V1.95215C0.000142551 0.873983 0.890778 0 1.98926 0H18.0107Z" fill="#F7992F"/>
<rect x="3.74023" y="4.84961" width="12.87" height="1.79" rx="0.895" fill="#FEFEFE"/>
<rect x="3.74023" y="9.41992" width="10.06" height="1.79" rx="0.895" fill="#FEFEFE"/>
</svg>
