<svg width="18" height="25" viewBox="0 0 18 25" fill="none" xmlns="http://www.w3.org/2000/svg">
<path fill-rule="evenodd" clip-rule="evenodd" d="M16 13V22.6177C16 22.7058 16 22.7499 16 22.7499C16 23.9612 15.8639 24.4179 15.2453 24.8236C14.6268 25.2292 13.7876 24.8494 13.1604 24.545C13.1604 24.545 13.1265 24.5271 13.0587 24.4912L11.9083 23.8824L8.96092 22.2016L6.0917 23.8824L4.94131 24.4912C4.87347 24.5271 4.83955 24.545 4.83955 24.545C4.21244 24.8494 3.37324 25.2292 2.75466 24.8236C2.13607 24.4179 2 23.9612 2 22.7499C2 22.7499 2 22.7058 2 22.6177V13C2 13 5.58779 15.0413 8.96092 15.0413C12.3341 15.0413 16 13 16 13Z" fill="#5C2E91"/>
<circle cx="9" cy="9" r="9" fill="#C239B3"/>
<path fill-rule="evenodd" clip-rule="evenodd" d="M15 9C15 12.3137 12.3137 15 9 15C5.68629 15 3 12.3137 3 9C3 5.68629 5.68629 3 9 3C12.3137 3 15 5.68629 15 9ZM9 13C11.2091 13 13 11.2091 13 9C13 6.79086 11.2091 5 9 5C6.79086 5 5 6.79086 5 9C5 11.2091 6.79086 13 9 13Z" fill="white" fill-opacity="0.748798"/>
</svg>
