<svg width="24" height="23" viewBox="0 0 24 23" fill="none" xmlns="http://www.w3.org/2000/svg">
<path d="M7.79004 3C6.80141 3.0001 6 3.8283 6 4.84961V16.5449C6 17.5662 6.80141 18.3944 7.79004 18.3945H15L17.6113 22.249C17.6507 22.3167 17.6933 22.382 17.7422 22.4424L17.7441 22.4463L17.7451 22.4453C18.0203 22.7838 18.4355 23 18.9004 23C19.6769 22.9998 20.3158 22.398 20.3926 21.627L20.4004 21.4707V18.3945H22.21C23.1986 18.3944 24 17.5662 24 16.5449V4.84961C24 3.8283 23.1986 3.0001 22.21 3H7.79004Z" fill="#004E8C"/>
<path d="M18.0107 0C19.1092 0 19.9999 0.873983 20 1.95215V14.2998C20 15.3781 19.1093 16.2529 18.0107 16.2529H10L6.67773 20.4258C6.40308 20.7747 5.9785 21 5.5 21C4.67157 21 4 20.3284 4 19.5V16.2529H1.98926C0.89069 16.2529 0 15.3781 0 14.2998V1.95215C0.000142551 0.873983 0.890778 0 1.98926 0H18.0107Z" fill="#2488D8"/>
<path fill-rule="evenodd" clip-rule="evenodd" d="M7.0008 5.67706C6.99861 5.7021 6.99915 5.85098 7.0262 5.91647C7.03303 5.93299 7.03947 5.95208 7.04636 5.97247C7.06677 6.03287 7.09103 6.10468 7.14036 6.15499C7.1472 6.16197 7.15453 6.16997 7.16258 6.17874C7.2321 6.25458 7.35456 6.38816 7.66957 6.41833C8.02103 6.45199 8.23859 6.2746 8.30733 6.19057C8.35775 6.12894 8.46238 5.95892 8.48384 5.88006C8.48957 5.85903 8.49569 5.83753 8.50193 5.81564C8.51908 5.75544 8.53707 5.69231 8.54981 5.62801C8.68979 4.92163 9.19909 4.4835 9.94501 4.4835C10.764 4.4835 11.31 5.01585 11.31 5.75405C11.31 6.45676 11.037 6.83296 10.231 7.36531C9.37855 7.91171 8.99573 8.51579 9.01002 9.48828C9.01077 9.5391 9.01544 9.6389 9.04711 9.71254C9.0516 9.72298 9.0562 9.73451 9.06116 9.74695C9.09121 9.82231 9.13461 9.93114 9.248 10.0333C9.38011 10.1522 9.57391 10.1954 9.83306 10.1954C9.96331 10.1954 10.1742 10.1561 10.3046 10.071C10.4181 9.99682 10.4507 9.91505 10.4647 9.87999C10.4666 9.8752 10.4681 9.87128 10.4695 9.86837C10.4925 9.81969 10.5122 9.74124 10.5156 9.69386C10.5174 9.66826 10.5228 9.63031 10.5279 9.59438C10.5323 9.56382 10.5364 9.53473 10.538 9.51593C10.5857 8.943 10.8578 8.60113 11.622 8.11061C12.506 7.53567 13 6.77617 13 5.69017C13 4.1215 11.8105 3 10.0295 3C8.1866 3 7.13744 4.1126 7.0008 5.67706ZM9.8255 13C10.3778 13 10.8255 12.5523 10.8255 12C10.8255 11.4477 10.3778 11 9.8255 11C9.27322 11 8.8255 11.4477 8.8255 12C8.8255 12.5523 9.27322 13 9.8255 13Z" fill="white"/>
</svg>
